<svg xmlns="http://www.w3.org/2000/svg" version="1.1" xmlns:xlink="http://www.w3.org/1999/xlink" viewBox="0 0 29.37806479466819 6.534137597402572"><g transform="matrix(1,0,0,1,6.2605109824092295,2.090700548701286)"><g clip-path="url(#SvgjsClipPath1005)"><g clip-path="url(#SvgjsClipPath1000198f3132-81ef-423d-81b4-29fbd925f5d1)"><path d=" M -1.4443301624513882 -0.856837193320136 L -5.02664762702808 -0.856837193320136 L -5.02664762702808 2.725480271256556 L -1.4443301624513882 2.725480271256556 Z M -5.171884367415888 -1.0020739337079447 L -5.171884367415888 2.8707170116443645 L -1.2990934220635797 2.8707170116443645 L -1.2990934220635797 -1.0020739337079447 Z" fill="#ffffff" transform="matrix(1,0,0,1,0,0)" fill-rule="evenodd"></path></g><g clip-path="url(#SvgjsClipPath1000198f3132-81ef-423d-81b4-29fbd925f5d1)"><path d=" M -0.9602367403878085 -0.37274377125655667 L -4.5425542049645005 -0.37274377125655667 L -4.5425542049645005 3.2095736933201353 L -0.9602367403878085 3.2095736933201353 Z M -4.687790945352309 -0.5179805116443652 L -4.687790945352309 3.354810433707944 L -0.815 3.354810433707944 L -0.815 -0.5179805116443652 Z" fill="#ffffff" transform="matrix(1,0,0,1,0,0)" fill-rule="evenodd"></path></g><path d=" M -3.841462579044226 0.6420629096127098 L -3.577363082224222 0.6420629096127098 C -3.503069196798942 0.6420629096127098 -3.436662675922236 0.6509679986191647 -3.3781435195941043 0.6687781766320744 C -3.3196243632659725 0.6865883546449839 -3.2735723315468777 0.714575777236699 -3.239987424436819 0.7527404444072198 C -3.206402517326761 0.7909051115777405 -3.189610063771732 0.8410280411283576 -3.189610063771732 0.9031092330590714 C -3.189610063771732 0.9499245581215768 -3.198515152778187 0.9893613808644482 -3.2163253307910966 1.0214197012876856 C -3.2341355088040062 1.053478021710923 -3.2572887402207886 1.0784122709289967 -3.285785025041444 1.0962224489419061 C -3.3142813098621 1.1140326269548158 -3.344304181369576 1.1249731648770316 -3.375853639563873 1.1290440627085538 C -3.3249674166698453 1.133114960540076 -3.278915384950751 1.1473631029504037 -3.237697544406588 1.1717884899395372 C -3.1964797038624257 1.1962138769286703 -3.1641669523247185 1.228781059580848 -3.1407592897934657 1.26949003789607 C -3.117351627262213 1.3101990162112922 -3.1056477959965867 1.358032065731678 -3.1056477959965867 1.412989186457228 C -3.1056477959965867 1.4781235517615834 -3.1234579740094963 1.532826241372663 -3.1590783300353156 1.577097255290467 C -3.194698686061135 1.621368269208271 -3.244821615611752 1.654698745203859 -3.3094471186871672 1.6770886832772314 C -3.3740726217625823 1.6994786213506035 -3.449129800531273 1.7106735903872894 -3.5346186549932392 1.7106735903872894 L -3.6857507369885014 1.7106735903872894 C -3.6857507369885014 1.7106735903872894 -3.685496305874031 1.7048216747544762 -3.684987443645091 1.6931178434888499 C -3.6844785814161507 1.6814140122232235 -3.6842241503016804 1.6699646120720675 -3.6842241503016804 1.658769643035381 C -3.6842241503016804 1.6475746739986952 -3.6842241503016804 1.641977189480352 -3.6842241503016804 1.641977189480352 L -3.6017884692133557 1.641977189480352 C -3.555990868608731 1.641977189480352 -3.515536321407979 1.6333265315883674 -3.4804248276111 1.616025215804398 C -3.445313333814221 1.5987239000204287 -3.417834773451446 1.5717542018865942 -3.397989146522775 1.535116121402894 C -3.3781435195941043 1.4984780409191942 -3.368220706129769 1.451662715856689 -3.368220706129769 1.394670146215378 C -3.368220706129769 1.3498902700686337 -3.3750903462204627 1.311725602898113 -3.3888296264018503 1.280176144703816 C -3.4025689065832374 1.2486266865095188 -3.4208879468250877 1.222929143948035 -3.4437867471274 1.203083517019364 C -3.4666855474297122 1.1832378900906932 -3.493400814449077 1.1687353165658956 -3.5239325481854933 1.1595757964449704 C -3.55446428192191 1.1504162763240455 -3.5865226023451475 1.145836516263583 -3.6201075094552055 1.145836516263583 L -3.6201075094552055 1.1320972360821955 C -3.596699846923953 1.1320972360821955 -3.5738010466216403 1.1282807693651435 -3.5514111085482685 1.1206478359310394 C -3.529021170474896 1.1130149024969354 -3.5089211124317554 1.1010566401168387 -3.491110934418846 1.0847730487907499 C -3.473300756405936 1.068489457464661 -3.4593070451100782 1.0468628127346993 -3.449129800531273 1.0198931146008647 C -3.4389525559524676 0.9929234164670302 -3.4338639336630647 0.9606106649293226 -3.4338639336630647 0.9229548599877422 C -3.4338639336630647 0.871050912635834 -3.442005729326109 0.8293242098627314 -3.458289320652198 0.7977747516684341 C -3.474572911978287 0.7662252934741371 -3.497217281166129 0.7433264931718248 -3.526222428215725 0.7290783507614971 C -3.55522757526532 0.7148302083511693 -3.589575775718789 0.7077061371460053 -3.6292670295761305 0.7077061371460053 L -3.826196712176017 0.7077061371460053 C -3.826196712176017 0.7066884126881248 -3.827468867748368 0.7008364970553116 -3.8300131788930694 0.6901503902475659 C -3.832557490037771 0.67946428343982 -3.8351018011824722 0.6687781766320743 -3.8376461123271737 0.6580920698243283 C -3.840190423471875 0.6474059630165827 -3.841462579044226 0.6420629096127098 -3.841462579044226 0.6420629096127098 M -3.672011456807114 0.6420629096127098 L -3.672011456807114 1.7106735903872894 L -3.900999459830238 1.7106735903872894 L -3.900999459830238 0.6420629096127098 L -3.672011456807114 0.6420629096127098 M -3.8964196997697753 1.599232762249369 L -3.8964196997697753 1.7106735903872894 L -4.018546634715442 1.7106735903872894 L -4.018546634715442 1.6954077235190812 C -4.016511185799681 1.6954077235190812 -4.012949150197099 1.6954077235190812 -4.007860527907696 1.6954077235190812 C -4.002771905618293 1.6954077235190812 -3.9997187322446517 1.6954077235190812 -3.998701007786771 1.6954077235190812 C -3.9722401718818765 1.6954077235190812 -3.9495958026940343 1.685993772283686 -3.9307679002232443 1.6671658698128957 C -3.911939997752454 1.6483379673421057 -3.9020171842881184 1.6256935981542633 -3.900999459830238 1.599232762249369 L -3.8964196997697753 1.599232762249369 M -3.8964196997697753 0.7535037377506303 L -3.900999459830238 0.7535037377506303 C -3.9020171842881184 0.7270429018457358 -3.911939997752454 0.7043985326578935 -3.9307679002232443 0.6855706301871034 C -3.9495958026940343 0.6667427277163132 -3.9722401718818765 0.657328776480918 -3.998701007786771 0.657328776480918 C -3.9997187322446517 0.657328776480918 -4.002771905618293 0.657328776480918 -4.007860527907696 0.657328776480918 C -4.012949150197099 0.657328776480918 -4.016511185799681 0.657328776480918 -4.018546634715442 0.657328776480918 L -4.018546634715442 0.6420629096127098 L -3.8964196997697753 0.6420629096127098 L -3.8964196997697753 0.7535037377506303 M -2.4293959828629084 1.0527147283675125 L -2.0294302709158516 1.6007593489361898 C -2.006022608384599 1.6312910826726064 -1.9821060836244055 1.654444314089389 -1.9576806966352724 1.6702190431865374 C -1.9332553096461393 1.685993772283686 -1.9052678870544244 1.6943899990612006 -1.8737184288601272 1.6954077235190812 L -1.8737184288601272 1.7106735903872894 L -1.9988985371794348 1.7106735903872894 C -2.010093506216121 1.7106735903872894 -2.028666977572441 1.7101647281583492 -2.054618951248395 1.7091470037004686 C -2.080570924924349 1.708129279242588 -2.109830503088415 1.704058381411066 -2.142397685740592 1.696934310205902 C -2.1749648683927703 1.6898102390007381 -2.2077864821594178 1.6773431143917013 -2.2408625270405365 1.6595329363787916 C -2.2739385719216543 1.641722758365882 -2.3026892878567797 1.6165340780333384 -2.327114674845913 1.5839668953811608 C -2.3322032971353157 1.5768428241759969 -2.342380541714121 1.5631035439946095 -2.3576464085823297 1.5427490548369982 C -2.372912275450538 1.5223945656793874 -2.3907224534634475 1.497969178690254 -2.4110769426210585 1.4694728938695987 C -2.4314314317786696 1.440976609048943 -2.452549214279691 1.4117170308848772 -2.474430290124123 1.3816941593774008 C -2.4963113659685545 1.3516712878699246 -2.516920286240636 1.3234294341637394 -2.5362570509403666 1.296968598258845 C -2.555593815640097 1.2705077623539507 -2.5711141136227753 1.248881117623989 -2.5828179448884017 1.23208866406896 C -2.594521776154028 1.2152962105139307 -2.6003736917868414 1.206899983736416 -2.6003736917868414 1.206899983736416 L -2.4293959828629084 1.0527147283675125 M -2.046222724470881 0.6527490164204556 L -2.5057253172039493 1.1977404636154911 L -2.6003736917868414 1.206899983736416 L -2.1805623529111133 0.6527490164204556 L -2.046222724470881 0.6527490164204556 M -1.9393616563934226 0.6420629096127098 L -1.9393616563934226 0.6558021897940972 L -1.945468003140706 0.6558021897940972 C -1.979052910250764 0.6558021897940972 -2.010347937330591 0.662671829884791 -2.039353084380187 0.6764111100661785 C -2.068358231429783 0.6901503902475659 -2.0930380495333862 0.7082149993749457 -2.113392538690997 0.7306049374483179 L -2.2370460603234843 0.7275517640746763 C -2.2248333668289173 0.7102504482907067 -2.222797917913156 0.6939668569646179 -2.230939713576201 0.6787009900964096 C -2.239081509239245 0.6634351232282014 -2.253329651649573 0.6558021897940972 -2.273684140807184 0.6558021897940972 L -2.288950007675392 0.6558021897940972 L -2.288950007675392 0.6420629096127098 L -1.945468003140706 0.6420629096127098 L -1.9393616563934226 0.6420629096127098 M -2.6492244657651076 0.6420629096127098 L -2.6492244657651076 1.7106735903872894 L -2.878212468788232 1.7106735903872894 L -2.878212468788232 0.6420629096127098 L -2.6492244657651076 0.6420629096127098 M -2.8736327087277695 1.599232762249369 L -2.8736327087277695 1.7106735903872894 L -2.9957596436734355 1.7106735903872894 L -2.9957596436734355 1.6954077235190812 C -2.9947419192155547 1.6954077235190812 -2.991434314727443 1.6954077235190812 -2.9858368302091005 1.6954077235190812 C -2.980239345690757 1.6954077235190812 -2.9769317412026455 1.6954077235190812 -2.975914016744765 1.6954077235190812 C -2.9494531808398703 1.6954077235190812 -2.926808811652028 1.685993772283686 -2.907980909181238 1.6671658698128957 C -2.8891530067104476 1.6483379673421057 -2.879230193246112 1.6256935981542633 -2.878212468788232 1.599232762249369 L -2.8736327087277695 1.599232762249369 M -2.8736327087277695 0.7535037377506303 L -2.878212468788232 0.7535037377506303 C -2.879230193246112 0.7270429018457358 -2.8891530067104476 0.7043985326578935 -2.907980909181238 0.6855706301871034 C -2.926808811652028 0.6667427277163132 -2.9494531808398703 0.657328776480918 -2.975914016744765 0.657328776480918 C -2.9769317412026455 0.657328776480918 -2.980239345690757 0.657328776480918 -2.9858368302091005 0.657328776480918 C -2.991434314727443 0.657328776480918 -2.9947419192155547 0.657328776480918 -2.9957596436734355 0.657328776480918 L -2.9957596436734355 0.6420629096127098 L -2.8736327087277695 0.6420629096127098 L -2.8736327087277695 0.7535037377506303 M -2.65380422582557 1.599232762249369 L -2.6492244657651076 1.599232762249369 C -2.648206741307227 1.6256935981542633 -2.638283927842892 1.6483379673421057 -2.6194560253721013 1.6671658698128957 C -2.6006281229013117 1.685993772283686 -2.577983753713469 1.6954077235190812 -2.5515229178085743 1.6954077235190812 C -2.550505193350694 1.6954077235190812 -2.5471975888625824 1.6954077235190812 -2.5416001043442393 1.6954077235190812 C -2.5360026198258963 1.6954077235190812 -2.5326950153377843 1.6954077235190812 -2.531677290879904 1.6954077235190812 L -2.531677290879904 1.7106735903872894 L -2.65380422582557 1.7106735903872894 L -2.65380422582557 1.599232762249369 M -2.65380422582557 0.7535037377506303 L -2.65380422582557 0.6420629096127098 L -2.531677290879904 0.6420629096127098 L -2.531677290879904 0.657328776480918 C -2.5326950153377843 0.657328776480918 -2.5360026198258963 0.657328776480918 -2.5416001043442393 0.657328776480918 C -2.5471975888625824 0.657328776480918 -2.550505193350694 0.657328776480918 -2.5515229178085743 0.657328776480918 C -2.577983753713469 0.657328776480918 -2.6006281229013117 0.6667427277163132 -2.6194560253721013 0.6855706301871034 C -2.638283927842892 0.7043985326578935 -2.648206741307227 0.7270429018457358 -2.6492244657651076 0.7535037377506303 L -2.65380422582557 0.7535037377506303" fill="#ffffff" transform="matrix(1,0,0,1,0,0)" fill-rule="nonzero"></path></g><g><path d=" M 0.09 1.005 L 0.09 0.9809999999999999 L 0.2115 0.9209999999999999 L 0.2115 0.09899999999999987 L 0.09 0.038999999999999924 L 0.09 0.014999999999999902 L 0.4935 0.014999999999999902 Q 0.594 0.014999999999999902 0.67425 0.03974999999999984 Q 0.7545000000000001 0.06449999999999989 0.80025 0.11324999999999985 Q 0.846 0.16199999999999992 0.846 0.23699999999999988 Q 0.846 0.3134999999999999 0.7935 0.37724999999999986 Q 0.741 0.44099999999999984 0.642 0.46799999999999986 Q 0.7785 0.4859999999999999 0.85575 0.5512499999999999 Q 0.933 0.6164999999999998 0.933 0.7169999999999999 Q 0.933 0.7994999999999999 0.8805000000000001 0.8647499999999999 Q 0.8280000000000001 0.9299999999999999 0.7365 0.9674999999999999 Q 0.645 1.005 0.528 1.005 L 0.09 1.005 M 0.45 0.09749999999999992 L 0.369 0.09749999999999992 L 0.369 0.4544999999999999 L 0.4575 0.4544999999999999 Q 0.5640000000000001 0.4544999999999999 0.6225 0.4079999999999999 Q 0.681 0.36149999999999993 0.681 0.28049999999999986 Q 0.681 0.09749999999999992 0.45 0.09749999999999992 M 0.5055000000000001 0.5339999999999998 L 0.369 0.5339999999999998 L 0.369 0.9224999999999999 L 0.516 0.9224999999999999 Q 0.6315000000000001 0.9224999999999999 0.69825 0.8677499999999999 Q 0.765 0.813 0.765 0.7274999999999998 Q 0.765 0.6269999999999999 0.6975 0.5804999999999999 Q 0.63 0.5339999999999998 0.5055000000000001 0.5339999999999998 M 1.144584521484375 1.005 L 1.144584521484375 0.9809999999999999 L 1.266084521484375 0.9209999999999999 L 1.266084521484375 0.09899999999999987 L 1.144584521484375 0.038999999999999924 L 1.144584521484375 0.014999999999999902 L 1.561584521484375 0.014999999999999902 Q 1.7190845214843749 0.014999999999999902 1.809834521484375 0.08024999999999982 Q 1.900584521484375 0.14549999999999985 1.900584521484375 0.25949999999999984 Q 1.900584521484375 0.3434999999999999 1.8435845214843751 0.4079999999999999 Q 1.786584521484375 0.4724999999999999 1.693584521484375 0.5069999999999999 L 1.9770845214843749 0.9254999999999999 L 2.077584521484375 0.9809999999999999 L 2.077584521484375 1.005 L 1.8360845214843748 1.005 L 1.548084521484375 0.5489999999999999 L 1.423584521484375 0.5489999999999999 L 1.423584521484375 0.9194999999999999 L 1.536084521484375 0.9809999999999999 L 1.536084521484375 1.005 L 1.144584521484375 1.005 M 1.512084521484375 0.09749999999999992 L 1.423584521484375 0.09749999999999992 L 1.423584521484375 0.4694999999999999 L 1.521084521484375 0.4694999999999999 Q 1.6140845214843749 0.4694999999999999 1.674834521484375 0.4162499999999999 Q 1.735584521484375 0.3629999999999999 1.735584521484375 0.28049999999999986 Q 1.735584521484375 0.19499999999999984 1.676334521484375 0.14624999999999988 Q 1.617084521484375 0.09749999999999992 1.512084521484375 0.09749999999999992 M 2.157190283203125 1.005 L 2.157190283203125 0.9809999999999999 L 2.251690283203125 0.9314999999999999 L 2.637190283203125 0.00749999999999984 L 2.719690283203125 0.00749999999999984 L 3.100690283203125 0.9269999999999999 L 3.201190283203125 0.9809999999999999 L 3.201190283203125 1.005 L 2.805190283203125 1.005 L 2.805190283203125 0.9809999999999999 L 2.937190283203125 0.9284999999999999 L 2.826190283203125 0.6584999999999999 L 2.464690283203125 0.6584999999999999 L 2.355190283203125 0.9299999999999999 L 2.4811902832031247 0.9809999999999999 L 2.4811902832031247 1.005 L 2.157190283203125 1.005 M 2.499190283203125 0.5759999999999998 L 2.793190283203125 0.5759999999999998 L 2.6461902832031248 0.2144999999999999 L 2.499190283203125 0.5759999999999998 M 3.381237451171875 1.005 L 3.381237451171875 0.9809999999999999 L 3.5027374511718747 0.9209999999999999 L 3.5027374511718747 0.10199999999999987 L 3.382737451171875 0.038999999999999924 L 3.382737451171875 0.014999999999999902 L 3.618237451171875 0.014999999999999902 L 4.192737451171875 0.7214999999999998 L 4.192737451171875 0.09749999999999992 L 4.038237451171875 0.038999999999999924 L 4.038237451171875 0.014999999999999902 L 4.417737451171875 0.014999999999999902 L 4.417737451171875 0.038999999999999924 L 4.297737451171875 0.09749999999999992 L 4.297737451171875 1.0125 L 4.233237451171875 1.0125 L 3.607737451171875 0.24449999999999983 L 3.607737451171875 0.9224999999999999 L 3.762237451171875 0.9809999999999999 L 3.762237451171875 1.005 L 3.381237451171875 1.005 M 4.62932197265625 1.005 L 4.62932197265625 0.9809999999999999 L 4.75082197265625 0.9209999999999999 L 4.75082197265625 0.09899999999999987 L 4.62932197265625 0.038999999999999924 L 4.62932197265625 0.014999999999999902 L 5.08532197265625 0.014999999999999902 Q 5.25332197265625 0.014999999999999902 5.3718219726562495 0.0734999999999999 Q 5.49032197265625 0.1319999999999999 5.55257197265625 0.23399999999999987 Q 5.61482197265625 0.33599999999999985 5.61482197265625 0.46499999999999986 Q 5.61482197265625 0.5819999999999999 5.57432197265625 0.6809999999999998 Q 5.53382197265625 0.7799999999999999 5.46107197265625 0.8519999999999999 Q 5.38832197265625 0.9239999999999999 5.29007197265625 0.9644999999999999 Q 5.19182197265625 1.005 5.07482197265625 1.005 L 4.62932197265625 1.005 M 5.0448219726562495 0.09749999999999992 L 4.90832197265625 0.09749999999999992 L 4.90832197265625 0.9224999999999999 L 5.06732197265625 0.9224999999999999 Q 5.18732197265625 0.9224999999999999 5.27282197265625 0.8722499999999999 Q 5.35832197265625 0.8219999999999998 5.40482197265625 0.7297499999999999 Q 5.45132197265625 0.6375 5.45132197265625 0.5114999999999998 Q 5.45132197265625 0.3869999999999999 5.40407197265625 0.2932499999999999 Q 5.35682197265625 0.1994999999999999 5.26607197265625 0.14849999999999985 Q 5.17532197265625 0.09749999999999992 5.0448219726562495 0.09749999999999992 M 6.384371337890625 1.0199999999999998 Q 6.276371337890625 1.0199999999999998 6.184121337890625 0.9817499999999999 Q 6.091871337890625 0.9434999999999999 6.023621337890625 0.8752499999999999 Q 5.955371337890625 0.8069999999999999 5.917871337890625 0.714 Q 5.880371337890625 0.6209999999999999 5.880371337890625 0.5099999999999999 Q 5.880371337890625 0.3989999999999999 5.917871337890625 0.3059999999999998 Q 5.955371337890625 0.21299999999999986 6.023621337890625 0.14474999999999982 Q 6.091871337890625 0.0764999999999999 6.184121337890625 0.038249999999999895 Q 6.276371337890625 -2.220446049250313e-16 6.384371337890625 -2.220446049250313e-16 Q 6.492371337890625 -2.220446049250313e-16 6.584621337890625 0.038249999999999895 Q 6.676871337890625 0.0764999999999999 6.745121337890625 0.14474999999999982 Q 6.813371337890625 0.21299999999999986 6.851621337890625 0.3059999999999998 Q 6.889871337890625 0.3989999999999999 6.889871337890625 0.5099999999999999 Q 6.889871337890625 0.6209999999999999 6.851621337890625 0.714 Q 6.813371337890625 0.8069999999999999 6.745121337890625 0.8752499999999999 Q 6.676871337890625 0.9434999999999999 6.584621337890625 0.9817499999999999 Q 6.492371337890625 1.0199999999999998 6.384371337890625 1.0199999999999998 M 6.414371337890625 0.9449999999999998 Q 6.505871337890625 0.9449999999999998 6.574871337890625 0.8969999999999999 Q 6.643871337890625 0.8489999999999999 6.682871337890625 0.7619999999999999 Q 6.721871337890625 0.6749999999999998 6.721871337890625 0.5564999999999999 Q 6.721871337890625 0.4109999999999999 6.673871337890625 0.3022499999999999 Q 6.625871337890625 0.1934999999999999 6.543371337890625 0.13349999999999984 Q 6.460871337890625 0.0734999999999999 6.360371337890625 0.0734999999999999 Q 6.268871337890625 0.0734999999999999 6.198371337890625 0.12074999999999991 Q 6.127871337890625 0.16799999999999993 6.088121337890625 0.2549999999999999 Q 6.048371337890625 0.34199999999999986 6.048371337890625 0.4604999999999999 Q 6.048371337890625 0.6059999999999999 6.097121337890625 0.7154999999999999 Q 6.145871337890625 0.825 6.229121337890625 0.8849999999999999 Q 6.3123713378906245 0.9449999999999998 6.414371337890625 0.9449999999999998 M 7.1224141113281245 1.005 L 7.1224141113281245 0.9809999999999999 L 7.243914111328125 0.9209999999999999 L 7.243914111328125 0.10199999999999987 L 7.123914111328125 0.038999999999999924 L 7.123914111328125 0.014999999999999902 L 7.359414111328125 0.014999999999999902 L 7.933914111328125 0.7214999999999998 L 7.933914111328125 0.09749999999999992 L 7.7794141113281245 0.038999999999999924 L 7.7794141113281245 0.014999999999999902 L 8.158914111328125 0.014999999999999902 L 8.158914111328125 0.038999999999999924 L 8.038914111328126 0.09749999999999992 L 8.038914111328126 1.0125 L 7.974414111328125 1.0125 L 7.348914111328125 0.24449999999999983 L 7.348914111328125 0.9224999999999999 L 7.503414111328125 0.9809999999999999 L 7.503414111328125 1.005 L 7.1224141113281245 1.005 M 8.810031884765625 1.005 L 8.810031884765625 0.9809999999999999 L 8.931531884765624 0.9209999999999999 L 8.931531884765624 0.09899999999999987 L 8.810031884765625 0.038999999999999924 L 8.810031884765625 0.014999999999999902 L 9.210531884765626 0.014999999999999902 L 9.210531884765626 0.038999999999999924 L 9.089031884765625 0.09899999999999987 L 9.089031884765625 0.9209999999999999 L 9.210531884765626 0.9809999999999999 L 9.210531884765626 1.005 L 8.810031884765625 1.005 M 9.089031884765625 0.49949999999999983 L 9.503031884765624 0.08999999999999986 L 9.396531884765626 0.038999999999999924 L 9.396531884765626 0.014999999999999902 L 9.720531884765625 0.014999999999999902 L 9.720531884765625 0.038999999999999924 L 9.626031884765625 0.0764999999999999 L 9.242031884765625 0.45299999999999985 L 9.704031884765625 0.9404999999999999 L 9.798531884765625 0.9809999999999999 L 9.798531884765625 1.005 L 9.554031884765624 1.005 L 9.089031884765625 0.49949999999999983 M 9.959098828125 1.005 L 9.959098828125 0.9809999999999999 L 10.080598828125 0.9209999999999999 L 10.080598828125 0.09899999999999987 L 9.959098828125 0.038999999999999924 L 9.959098828125 0.014999999999999902 L 10.712098828125 0.014999999999999902 L 10.712098828125 0.2729999999999999 L 10.688098828125002 0.2729999999999999 L 10.590598828125001 0.09749999999999992 L 10.238098828125 0.09749999999999992 L 10.238098828125 0.45299999999999985 L 10.487098828125001 0.45299999999999985 L 10.563598828125 0.32699999999999985 L 10.587598828125001 0.32699999999999985 L 10.587598828125001 0.6584999999999999 L 10.563598828125 0.6584999999999999 L 10.487098828125001 0.5354999999999999 L 10.238098828125 0.5354999999999999 L 10.238098828125 0.9224999999999999 L 10.631098828125001 0.9224999999999999 L 10.730098828125001 0.7244999999999999 L 10.754098828125 0.7244999999999999 L 10.754098828125 1.005 L 9.959098828125 1.005 M 10.992668701171876 1.005 L 10.992668701171876 0.9809999999999999 L 11.114168701171877 0.9209999999999999 L 11.114168701171877 0.10199999999999987 L 10.994168701171876 0.038999999999999924 L 10.994168701171876 0.014999999999999902 L 11.229668701171876 0.014999999999999902 L 11.804168701171877 0.7214999999999998 L 11.804168701171877 0.09749999999999992 L 11.649668701171876 0.038999999999999924 L 11.649668701171876 0.014999999999999902 L 12.029168701171876 0.014999999999999902 L 12.029168701171876 0.038999999999999924 L 11.909168701171877 0.09749999999999992 L 11.909168701171877 1.0125 L 11.844668701171877 1.0125 L 11.219168701171876 0.24449999999999983 L 11.219168701171876 0.9224999999999999 L 11.373668701171876 0.9809999999999999 L 11.373668701171876 1.005 L 10.992668701171876 1.005 M 12.234753222656252 1.005 L 12.234753222656252 0.9809999999999999 L 12.356253222656253 0.9209999999999999 L 12.356253222656253 0.10199999999999987 L 12.236253222656252 0.038999999999999924 L 12.236253222656252 0.014999999999999902 L 12.471753222656252 0.014999999999999902 L 13.046253222656253 0.7214999999999998 L 13.046253222656253 0.09749999999999992 L 12.891753222656252 0.038999999999999924 L 12.891753222656252 0.014999999999999902 L 13.271253222656252 0.014999999999999902 L 13.271253222656252 0.038999999999999924 L 13.151253222656253 0.09749999999999992 L 13.151253222656253 1.0125 L 13.086753222656252 1.0125 L 12.461253222656252 0.24449999999999983 L 12.461253222656252 0.9224999999999999 L 12.615753222656252 0.9809999999999999 L 12.615753222656252 1.005 L 12.234753222656252 1.005 M 13.482837744140628 1.005 L 13.482837744140628 0.9809999999999999 L 13.604337744140627 0.9209999999999999 L 13.604337744140627 0.09899999999999987 L 13.482837744140628 0.038999999999999924 L 13.482837744140628 0.014999999999999902 L 14.235837744140628 0.014999999999999902 L 14.235837744140628 0.2729999999999999 L 14.21183774414063 0.2729999999999999 L 14.114337744140629 0.09749999999999992 L 13.761837744140628 0.09749999999999992 L 13.761837744140628 0.45299999999999985 L 14.010837744140629 0.45299999999999985 L 14.087337744140628 0.32699999999999985 L 14.111337744140629 0.32699999999999985 L 14.111337744140629 0.6584999999999999 L 14.087337744140628 0.6584999999999999 L 14.010837744140629 0.5354999999999999 L 13.761837744140628 0.5354999999999999 L 13.761837744140628 0.9224999999999999 L 14.154837744140629 0.9224999999999999 L 14.253837744140629 0.7244999999999999 L 14.277837744140628 0.7244999999999999 L 14.277837744140628 1.005 L 13.482837744140628 1.005 M 14.522407617187504 1.005 L 14.522407617187504 0.9809999999999999 L 14.643907617187503 0.9209999999999999 L 14.643907617187503 0.09899999999999987 L 14.522407617187504 0.038999999999999924 L 14.522407617187504 0.014999999999999902 L 14.978407617187504 0.014999999999999902 Q 15.146407617187505 0.014999999999999902 15.264907617187504 0.0734999999999999 Q 15.383407617187505 0.1319999999999999 15.445657617187504 0.23399999999999987 Q 15.507907617187504 0.33599999999999985 15.507907617187504 0.46499999999999986 Q 15.507907617187504 0.5819999999999999 15.467407617187504 0.6809999999999998 Q 15.426907617187505 0.7799999999999999 15.354157617187504 0.8519999999999999 Q 15.281407617187504 0.9239999999999999 15.183157617187504 0.9644999999999999 Q 15.084907617187504 1.005 14.967907617187505 1.005 L 14.522407617187504 1.005 M 14.937907617187504 0.09749999999999992 L 14.801407617187504 0.09749999999999992 L 14.801407617187504 0.9224999999999999 L 14.960407617187505 0.9224999999999999 Q 15.080407617187504 0.9224999999999999 15.165907617187504 0.8722499999999999 Q 15.251407617187505 0.8219999999999998 15.297907617187505 0.7297499999999999 Q 15.344407617187505 0.6375 15.344407617187505 0.5114999999999998 Q 15.344407617187505 0.3869999999999999 15.297157617187505 0.2932499999999999 Q 15.249907617187505 0.1994999999999999 15.159157617187503 0.14849999999999985 Q 15.068407617187503 0.09749999999999992 14.937907617187504 0.09749999999999992 M 15.93398920898438 1.005 L 15.93398920898438 0.9809999999999999 L 16.06898920898438 0.9209999999999999 L 16.06898920898438 0.5429999999999999 L 15.73748920898438 0.09149999999999991 L 15.64298920898438 0.038999999999999924 L 15.64298920898438 0.014999999999999902 L 16.02998920898438 0.014999999999999902 L 16.02998920898438 0.038999999999999924 L 15.92048920898438 0.09299999999999986 L 15.92048920898438 0.09899999999999987 L 16.18598920898438 0.4604999999999999 L 16.42598920898438 0.10049999999999992 L 16.42598920898438 0.09449999999999992 L 16.31498920898438 0.038999999999999924 L 16.31498920898438 0.014999999999999902 L 16.63898920898438 0.014999999999999902 L 16.63898920898438 0.038999999999999924 L 16.54148920898438 0.08849999999999991 L 16.22498920898438 0.5414999999999999 L 16.22498920898438 0.9209999999999999 L 16.35998920898438 0.9809999999999999 L 16.35998920898438 1.005 L 15.93398920898438 1.005 M 17.123590576171882 1.0199999999999998 Q 17.029090576171882 1.0199999999999998 16.96234057617188 1.002 Q 16.89559057617188 0.9839999999999999 16.82509057617188 0.9494999999999999 L 16.81009057617188 0.702 L 16.83409057617188 0.702 L 16.91359057617188 0.8654999999999999 Q 16.96609057617188 0.9089999999999999 17.01709057617188 0.9284999999999999 Q 17.06809057617188 0.9479999999999998 17.11909057617188 0.9479999999999998 Q 17.20609057617188 0.9479999999999998 17.25634057617188 0.9029999999999999 Q 17.30659057617188 0.8579999999999999 17.30659057617188 0.7799999999999999 Q 17.30659057617188 0.7184999999999999 17.27884057617188 0.6817499999999999 Q 17.25109057617188 0.6449999999999999 17.19634057617188 0.6157499999999999 Q 17.141590576171883 0.5864999999999999 17.06209057617188 0.5474999999999999 Q 16.955590576171883 0.49649999999999983 16.89859057617188 0.4402499999999999 Q 16.841590576171882 0.3839999999999999 16.841590576171882 0.2819999999999999 Q 16.841590576171882 0.22799999999999987 16.86784057617188 0.17774999999999985 Q 16.89409057617188 0.12749999999999984 16.939090576171882 0.08774999999999988 Q 16.98409057617188 0.04799999999999982 17.039590576171882 0.02399999999999991 Q 17.09509057617188 -2.220446049250313e-16 17.15509057617188 -2.220446049250313e-16 Q 17.225590576171882 -2.220446049250313e-16 17.28709057617188 0.016499999999999848 Q 17.34859057617188 0.03299999999999992 17.408590576171882 0.06449999999999989 L 17.423590576171883 0.3044999999999999 L 17.39959057617188 0.3044999999999999 L 17.321590576171882 0.1439999999999999 Q 17.27359057617188 0.10649999999999993 17.234590576171883 0.08999999999999986 Q 17.19559057617188 0.0734999999999999 17.14609057617188 0.0734999999999999 Q 17.08159057617188 0.0734999999999999 17.038840576171882 0.11699999999999988 Q 16.99609057617188 0.16049999999999986 16.99609057617188 0.22649999999999992 Q 16.99609057617188 0.29999999999999993 17.041840576171882 0.34199999999999986 Q 17.08759057617188 0.3839999999999999 17.18959057617188 0.43199999999999983 Q 17.27959057617188 0.4754999999999999 17.33884057617188 0.5152499999999999 Q 17.39809057617188 0.5549999999999999 17.426590576171883 0.6044999999999998 Q 17.45509057617188 0.6539999999999999 17.45509057617188 0.7304999999999999 Q 17.45509057617188 0.8009999999999999 17.425090576171883 0.8549999999999999 Q 17.39509057617188 0.9089999999999999 17.34559057617188 0.9457499999999999 Q 17.29609057617188 0.9824999999999999 17.238340576171883 1.00125 Q 17.18059057617188 1.0199999999999998 17.123590576171882 1.0199999999999998 M 17.67118901367188 1.005 L 17.67118901367188 0.9809999999999999 L 17.791189013671882 0.9209999999999999 L 17.82268901367188 0.09899999999999987 L 17.693689013671882 0.038999999999999924 L 17.693689013671882 0.014999999999999902 L 17.992189013671883 0.014999999999999902 L 18.32818901367188 0.7904999999999999 L 18.662689013671883 0.014999999999999902 L 18.949189013671884 0.014999999999999902 L 18.949189013671884 0.038999999999999924 L 18.821689013671882 0.09449999999999992 L 18.847189013671883 0.9209999999999999 L 18.95518901367188 0.9809999999999999 L 18.95518901367188 1.005 L 18.58468901367188 1.005 L 18.58468901367188 0.9809999999999999 L 18.69718901367188 0.9224999999999999 L 18.68218901367188 0.18899999999999983 L 18.32818901367188 1.0125 L 18.256189013671882 1.0125 L 17.905189013671883 0.19799999999999984 L 17.885689013671882 0.9224999999999999 L 18.01018901367188 0.9809999999999999 L 18.01018901367188 1.005 L 17.67118901367188 1.005 M 19.186290380859383 1.005 L 19.186290380859383 0.9809999999999999 L 19.309290380859384 0.9209999999999999 L 19.309290380859384 0.09899999999999987 L 19.186290380859383 0.038999999999999924 L 19.186290380859383 0.014999999999999902 L 19.586790380859384 0.014999999999999902 L 19.586790380859384 0.038999999999999924 L 19.465290380859383 0.09899999999999987 L 19.465290380859383 0.9209999999999999 L 19.586790380859384 0.9809999999999999 L 19.586790380859384 1.005 L 19.186290380859383 1.005 M 20.014394677734384 1.005 L 20.014394677734384 0.9809999999999999 L 20.165894677734382 0.9209999999999999 L 20.165894677734382 0.09749999999999992 L 19.928894677734384 0.09749999999999992 L 19.822394677734383 0.32399999999999984 L 19.798394677734382 0.32399999999999984 L 19.798394677734382 0.014999999999999902 L 20.689394677734384 0.014999999999999902 L 20.689394677734384 0.32399999999999984 L 20.665394677734383 0.32399999999999984 L 20.560394677734383 0.09749999999999992 L 20.321894677734385 0.09749999999999992 L 20.321894677734385 0.9209999999999999 L 20.474894677734383 0.9809999999999999 L 20.474894677734383 1.005 L 20.014394677734384 1.005 M 20.89495869140626 1.005 L 20.89495869140626 0.9809999999999999 L 21.01645869140626 0.9209999999999999 L 21.01645869140626 0.09899999999999987 L 20.89495869140626 0.038999999999999924 L 20.89495869140626 0.014999999999999902 L 21.29245869140626 0.014999999999999902 L 21.29245869140626 0.038999999999999924 L 21.17395869140626 0.09899999999999987 L 21.17395869140626 0.45299999999999985 L 21.66145869140626 0.45299999999999985 L 21.66145869140626 0.09899999999999987 L 21.54145869140626 0.038999999999999924 L 21.54145869140626 0.014999999999999902 L 21.93895869140626 0.014999999999999902 L 21.93895869140626 0.038999999999999924 L 21.81745869140626 0.09899999999999987 L 21.81745869140626 0.9209999999999999 L 21.93895869140626 0.9809999999999999 L 21.93895869140626 1.005 L 21.54145869140626 1.005 L 21.54145869140626 0.9809999999999999 L 21.66145869140626 0.9209999999999999 L 21.66145869140626 0.5354999999999999 L 21.17395869140626 0.5354999999999999 L 21.17395869140626 0.9209999999999999 L 21.29245869140626 0.9809999999999999 L 21.29245869140626 1.005 L 20.89495869140626 1.005" fill="#ffffff" fill-rule="nonzero"></path></g><g><path d=" M 0.0737625 2.3527364999999993 L 0.0737625 2.3358764999999995 L 0.1580625 2.2937264999999996 L 0.1580625 1.7162714999999995 L 0.0737625 1.6741214999999994 L 0.0737625 1.6572614999999993 L 0.3372 1.6572614999999993 L 0.3372 1.6741214999999994 L 0.2529 1.7162714999999995 L 0.2529 2.2937264999999996 L 0.3372 2.3358764999999995 L 0.3372 2.3527364999999993 L 0.0737625 2.3527364999999993 M 0.4757835607910157 2.3527364999999993 L 0.4757835607910157 2.3358764999999995 L 0.5600835607910156 2.2937264999999996 L 0.5600835607910156 1.7183789999999992 L 0.47683731079101566 1.6741214999999994 L 0.47683731079101566 1.6572614999999993 L 0.6317385607910156 1.6572614999999993 L 1.0342710607910157 2.1630614999999995 L 1.0342710607910157 1.7141639999999994 L 0.9288960607910157 1.6741214999999994 L 0.9288960607910157 1.6572614999999993 L 1.1912798107910156 1.6572614999999993 L 1.1912798107910156 1.6741214999999994 L 1.1080335607910157 1.7152177499999994 L 1.1080335607910157 2.3580052499999993 L 1.0690448107910158 2.3580052499999993 L 0.6338460607910157 1.8090014999999995 L 0.6338460607910157 2.294780249999999 L 0.7392210607910157 2.3358764999999995 L 0.7392210607910157 2.3527364999999993 L 0.4757835607910157 2.3527364999999993 M 1.3087744793701173 2.3527364999999993 L 1.3087744793701173 2.3358764999999995 L 1.393074479370117 2.2937264999999996 L 1.393074479370117 1.7183789999999992 L 1.3098282293701171 1.6741214999999994 L 1.3098282293701171 1.6572614999999993 L 1.464729479370117 1.6572614999999993 L 1.867261979370117 2.1630614999999995 L 1.867261979370117 1.7141639999999994 L 1.761886979370117 1.6741214999999994 L 1.761886979370117 1.6572614999999993 L 2.024270729370117 1.6572614999999993 L 2.024270729370117 1.6741214999999994 L 1.941024479370117 1.7152177499999994 L 1.941024479370117 2.3580052499999993 L 1.9020357293701173 2.3580052499999993 L 1.4668369793701173 1.8090014999999995 L 1.4668369793701173 2.294780249999999 L 1.5722119793701173 2.3358764999999995 L 1.5722119793701173 2.3527364999999993 L 1.3087744793701173 2.3527364999999993 M 2.5137494384765624 2.363273999999999 Q 2.4378794384765627 2.363273999999999 2.374127563476563 2.3364033749999993 Q 2.3103756884765625 2.3095327499999994 2.2629569384765627 2.2615871249999993 Q 2.215538188476563 2.213641499999999 2.1891944384765627 2.1483089999999994 Q 2.1628506884765626 2.082976499999999 2.1628506884765626 2.0049989999999993 Q 2.1628506884765626 1.9270214999999993 2.1891944384765627 1.8616889999999993 Q 2.215538188476563 1.7963564999999995 2.2629569384765627 1.7484108749999994 Q 2.3103756884765625 1.7004652499999993 2.374127563476563 1.6735946249999993 Q 2.4378794384765627 1.6467239999999994 2.5137494384765624 1.6467239999999994 Q 2.5896194384765625 1.6467239999999994 2.6538981884765627 1.6735946249999993 Q 2.718176938476563 1.7004652499999993 2.7655956884765627 1.7484108749999994 Q 2.8130144384765625 1.7963564999999995 2.8393581884765626 1.8616889999999993 Q 2.8657019384765627 1.9270214999999993 2.8657019384765627 2.0049989999999993 Q 2.8657019384765627 2.082976499999999 2.8393581884765626 2.1483089999999994 Q 2.8130144384765625 2.213641499999999 2.7655956884765627 2.2615871249999993 Q 2.718176938476563 2.3095327499999994 2.6538981884765627 2.3364033749999993 Q 2.5896194384765625 2.363273999999999 2.5137494384765624 2.363273999999999 M 2.5358781884765627 2.3105864999999994 Q 2.6033181884765626 2.3105864999999994 2.6544250634765625 2.2768664999999992 Q 2.705531938476563 2.2431464999999995 2.734510063476563 2.182028999999999 Q 2.7634881884765625 2.120911499999999 2.7634881884765625 2.0376652499999994 Q 2.7634881884765625 1.9354514999999992 2.7276606884765626 1.8590546249999993 Q 2.6918331884765627 1.7826577499999994 2.6312425634765626 1.7405077499999995 Q 2.5706519384765625 1.6983577499999993 2.4958356884765625 1.6983577499999993 Q 2.4283956884765625 1.6983577499999993 2.3762350634765625 1.7315508749999995 Q 2.3240744384765626 1.7647439999999994 2.2945694384765627 1.8258614999999994 Q 2.265064438476563 1.8869789999999993 2.265064438476563 1.9702252499999993 Q 2.265064438476563 2.0724389999999993 2.3014188134765625 2.1493627499999994 Q 2.3377731884765627 2.226286499999999 2.3988906884765626 2.2684364999999995 Q 2.4600081884765626 2.3105864999999994 2.5358781884765627 2.3105864999999994 M 3.2845438952636723 2.3580052499999993 L 3.018998895263672 1.7110027499999994 L 2.946290145263672 1.6741214999999994 L 2.946290145263672 1.6572614999999993 L 3.2097276452636723 1.6572614999999993 L 3.2097276452636723 1.6741214999999994 L 3.119105145263672 1.7131102499999993 L 3.119105145263672 1.7183789999999992 L 3.316156395263672 2.2009964999999996 L 3.321425145263672 2.2009964999999996 L 3.517422645263672 1.7141639999999994 L 3.517422645263672 1.7099489999999995 L 3.431015145263672 1.6741214999999994 L 3.431015145263672 1.6572614999999993 L 3.652302645263672 1.6572614999999993 L 3.652302645263672 1.6741214999999994 L 3.592238895263672 1.7057339999999992 L 3.321425145263672 2.3580052499999993 L 3.2845438952636723 2.3580052499999993 M 3.6412099713134762 2.3527364999999993 L 3.6412099713134762 2.3358764999999995 L 3.7086499713134766 2.301102749999999 L 3.9784099713134764 1.6519927499999993 L 4.025828721313476 1.6519927499999993 L 4.291373721313477 2.2979414999999994 L 4.361974971313477 2.3358764999999995 L 4.361974971313477 2.3527364999999993 L 4.100644971313477 2.3527364999999993 L 4.100644971313477 2.3358764999999995 L 4.193374971313476 2.3000489999999996 L 4.114343721313476 2.1051052499999994 L 3.8582824713134762 2.1051052499999994 L 3.7803049713134764 2.3000489999999996 L 3.8688199713134765 2.3358764999999995 L 3.8688199713134765 2.3527364999999993 L 3.6412099713134762 2.3527364999999993 M 3.8825187213134766 2.047148999999999 L 4.0911612213134765 2.047148999999999 L 3.9868399713134766 1.7879264999999993 L 3.8825187213134766 2.047148999999999 M 4.5690059747314455 2.3527364999999993 L 4.5690059747314455 2.3358764999999995 L 4.674380974731445 2.2937264999999996 L 4.674380974731445 1.7152177499999994 L 4.502619724731446 1.7152177499999994 L 4.430964724731445 1.8701189999999994 L 4.4141047247314456 1.8701189999999994 L 4.4141047247314456 1.6572614999999993 L 5.029494724731445 1.6572614999999993 L 5.029494724731445 1.8701189999999994 L 5.012634724731445 1.8701189999999994 L 4.940979724731445 1.7152177499999994 L 4.769218474731446 1.7152177499999994 L 4.769218474731446 2.2937264999999996 L 4.874593474731445 2.3358764999999995 L 4.874593474731445 2.3527364999999993 L 4.5690059747314455 2.3527364999999993 M 5.14699968383789 2.3527364999999993 L 5.14699968383789 2.3358764999999995 L 5.23129968383789 2.2937264999999996 L 5.23129968383789 1.7162714999999995 L 5.14699968383789 1.6741214999999994 L 5.14699968383789 1.6572614999999993 L 5.6622834338378905 1.6572614999999993 L 5.6622834338378905 1.8385064999999994 L 5.64542343383789 1.8385064999999994 L 5.580090933837891 1.7152177499999994 L 5.326137183837891 1.7152177499999994 L 5.326137183837891 1.9649564999999993 L 5.50527468383789 1.9649564999999993 L 5.5579621838378905 1.8774952499999993 L 5.57482218383789 1.8774952499999993 L 5.57482218383789 2.108266499999999 L 5.5579621838378905 2.108266499999999 L 5.50527468383789 2.0229127499999993 L 5.326137183837891 2.0229127499999993 L 5.326137183837891 2.294780249999999 L 5.60959593383789 2.294780249999999 L 5.6749284338378905 2.1609539999999994 L 5.691788433837891 2.1609539999999994 L 5.691788433837891 2.3527364999999993 L 5.14699968383789 2.3527364999999993 M 6.084813515625 2.1188039999999995 L 6.084813515625 2.0450414999999995 L 6.374594765625 2.0450414999999995 L 6.374594765625 2.1188039999999995 L 6.084813515625 2.1188039999999995 M 6.767643515625 2.3527364999999993 L 6.767643515625 2.3358764999999995 L 6.851943515625 2.2937264999999996 L 6.851943515625 1.7162714999999995 L 6.767643515625 1.6741214999999994 L 6.767643515625 1.6572614999999993 L 7.031081015625 1.6572614999999993 L 7.031081015625 1.6741214999999994 L 6.9467810156250005 1.7162714999999995 L 6.9467810156250005 2.2937264999999996 L 7.031081015625 2.3358764999999995 L 7.031081015625 2.3527364999999993 L 6.767643515625 2.3527364999999993 M 7.169664576416016 2.3527364999999993 L 7.169664576416016 2.3358764999999995 L 7.253964576416016 2.2937264999999996 L 7.253964576416016 1.7183789999999992 L 7.170718326416016 1.6741214999999994 L 7.170718326416016 1.6572614999999993 L 7.325619576416016 1.6572614999999993 L 7.728152076416016 2.1630614999999995 L 7.728152076416016 1.7141639999999994 L 7.622777076416016 1.6741214999999994 L 7.622777076416016 1.6572614999999993 L 7.8851608264160165 1.6572614999999993 L 7.8851608264160165 1.6741214999999994 L 7.801914576416016 1.7152177499999994 L 7.801914576416016 2.3580052499999993 L 7.762925826416017 2.3580052499999993 L 7.327727076416016 1.8090014999999995 L 7.327727076416016 2.294780249999999 L 7.4331020764160165 2.3358764999999995 L 7.4331020764160165 2.3527364999999993 L 7.169664576416016 2.3527364999999993 M 8.15229828552246 2.3527364999999993 L 8.15229828552246 2.3358764999999995 L 8.257673285522461 2.2937264999999996 L 8.257673285522461 1.7152177499999994 L 8.085912035522462 1.7152177499999994 L 8.014257035522462 1.8701189999999994 L 7.997397035522462 1.8701189999999994 L 7.997397035522462 1.6572614999999993 L 8.612787035522462 1.6572614999999993 L 8.612787035522462 1.8701189999999994 L 8.595927035522461 1.8701189999999994 L 8.524272035522461 1.7152177499999994 L 8.352510785522462 1.7152177499999994 L 8.352510785522462 2.2937264999999996 L 8.45788578552246 2.3358764999999995 L 8.45788578552246 2.3527364999999993 L 8.15229828552246 2.3527364999999993 M 8.730291994628907 2.3527364999999993 L 8.730291994628907 2.3358764999999995 L 8.814591994628907 2.2937264999999996 L 8.814591994628907 1.7162714999999995 L 8.730291994628907 1.6741214999999994 L 8.730291994628907 1.6572614999999993 L 9.245575744628907 1.6572614999999993 L 9.245575744628907 1.8385064999999994 L 9.228715744628907 1.8385064999999994 L 9.163383244628907 1.7152177499999994 L 8.909429494628906 1.7152177499999994 L 8.909429494628906 1.9649564999999993 L 9.088566994628907 1.9649564999999993 L 9.141254494628907 1.8774952499999993 L 9.158114494628906 1.8774952499999993 L 9.158114494628906 2.108266499999999 L 9.141254494628907 2.108266499999999 L 9.088566994628907 2.0229127499999993 L 8.909429494628906 2.0229127499999993 L 8.909429494628906 2.294780249999999 L 9.192888244628907 2.294780249999999 L 9.258220744628906 2.1609539999999994 L 9.275080744628907 2.1609539999999994 L 9.275080744628907 2.3527364999999993 L 8.730291994628907 2.3527364999999993 M 9.775061451416015 2.363273999999999 Q 9.673901451416015 2.363273999999999 9.594343326416015 2.319016499999999 Q 9.514785201416014 2.2747589999999995 9.469473951416015 2.198362124999999 Q 9.424162701416016 2.1219652499999992 9.424162701416016 2.0239664999999993 Q 9.424162701416016 1.9428277499999993 9.453140826416014 1.8743339999999993 Q 9.482118951416014 1.8058402499999993 9.534279576416015 1.7547333749999994 Q 9.586440201416014 1.7036264999999995 9.653880201416015 1.6751752499999992 Q 9.721320201416015 1.6467239999999994 9.799297701416014 1.6467239999999994 Q 9.854092701416015 1.6467239999999994 9.893081451416014 1.6530464999999994 Q 9.932070201416016 1.6593689999999994 9.962628951416015 1.6709602499999994 Q 9.993187701416016 1.6825514999999993 10.023746451416015 1.6973039999999995 L 10.029015201416016 1.8711727499999993 L 10.012155201416014 1.8711727499999993 L 9.943661451416014 1.7531527499999995 Q 9.899403951416016 1.7225939999999993 9.868318326416015 1.7110027499999994 Q 9.837232701416015 1.6994114999999992 9.797190201416015 1.6994114999999992 Q 9.716051451416014 1.6994114999999992 9.652826451416015 1.7347121249999993 Q 9.589601451416016 1.7700127499999994 9.553773951416016 1.8316571249999993 Q 9.517946451416016 1.8933014999999993 9.517946451416016 1.9712789999999993 Q 9.517946451416016 2.0766539999999996 9.556408326416015 2.1504164999999995 Q 9.594870201416015 2.2241789999999995 9.660202701416015 2.263167749999999 Q 9.725535201416015 2.3021564999999993 9.805620201416016 2.3021564999999993 Q 9.840393951416015 2.3021564999999993 9.872533326416015 2.2979414999999994 Q 9.904672701416015 2.2937264999999996 9.939446451416014 2.2800277499999995 L 9.939446451416014 2.1061589999999994 L 9.845662701416016 2.0640089999999995 L 9.845662701416016 2.047148999999999 L 10.106992701416015 2.047148999999999 L 10.106992701416015 2.0640089999999995 L 10.034283951416015 2.1093202499999992 L 10.034283951416015 2.2747589999999995 Q 9.985811451416016 2.3148014999999993 9.914683326416014 2.3390377499999992 Q 9.843555201416015 2.363273999999999 9.775061451416015 2.363273999999999 M 10.229760236206054 2.3527364999999993 L 10.229760236206054 2.3358764999999995 L 10.314060236206055 2.2937264999999996 L 10.314060236206055 1.7162714999999995 L 10.229760236206054 1.6741214999999994 L 10.229760236206054 1.6572614999999993 L 10.501627736206055 1.6572614999999993 Q 10.612271486206055 1.6572614999999993 10.676023361206054 1.7030996249999992 Q 10.739775236206054 1.7489377499999992 10.739775236206054 1.8290227499999994 Q 10.739775236206054 1.8880327499999994 10.699732736206055 1.9349246249999994 Q 10.659690236206055 1.9818164999999994 10.593303986206054 2.0060527499999994 L 10.793516486206055 2.2979414999999994 L 10.863063986206054 2.3358764999999995 L 10.863063986206054 2.3527364999999993 L 10.711323986206054 2.3527364999999993 L 10.506896486206054 2.0334502499999996 L 10.408897736206054 2.0334502499999996 L 10.408897736206054 2.2926727499999995 L 10.487928986206054 2.3358764999999995 L 10.487928986206054 2.3527364999999993 L 10.229760236206054 2.3527364999999993 M 10.477391486206054 1.7152177499999994 L 10.408897736206054 1.7152177499999994 L 10.408897736206054 1.9754939999999994 L 10.483713986206055 1.9754939999999994 Q 10.550100236206054 1.9754939999999994 10.593830861206055 1.9380858749999994 Q 10.637561486206055 1.9006777499999994 10.637561486206055 1.8427214999999992 Q 10.637561486206055 1.7837114999999995 10.594357736206055 1.7494646249999994 Q 10.551153986206055 1.7152177499999994 10.477391486206054 1.7152177499999994 M 10.894160930786132 2.3527364999999993 L 10.894160930786132 2.3358764999999995 L 10.961600930786133 2.301102749999999 L 11.231360930786133 1.6519927499999993 L 11.278779680786133 1.6519927499999993 L 11.544324680786133 2.2979414999999994 L 11.614925930786132 2.3358764999999995 L 11.614925930786132 2.3527364999999993 L 11.353595930786133 2.3527364999999993 L 11.353595930786133 2.3358764999999995 L 11.446325930786132 2.3000489999999996 L 11.367294680786133 2.1051052499999994 L 11.111233430786132 2.1051052499999994 L 11.033255930786133 2.3000489999999996 L 11.121770930786132 2.3358764999999995 L 11.121770930786132 2.3527364999999993 L 10.894160930786132 2.3527364999999993 M 11.135469680786132 2.047148999999999 L 11.344112180786132 2.047148999999999 L 11.239790930786132 1.7879264999999993 L 11.135469680786132 2.047148999999999 M 11.8219569342041 2.3527364999999993 L 11.8219569342041 2.3358764999999995 L 11.927331934204101 2.2937264999999996 L 11.927331934204101 1.7152177499999994 L 11.7555706842041 1.7152177499999994 L 11.6839156842041 1.8701189999999994 L 11.6670556842041 1.8701189999999994 L 11.6670556842041 1.6572614999999993 L 12.2824456842041 1.6572614999999993 L 12.2824456842041 1.8701189999999994 L 12.265585684204101 1.8701189999999994 L 12.193930684204101 1.7152177499999994 L 12.0221694342041 1.7152177499999994 L 12.0221694342041 2.2937264999999996 L 12.1275444342041 2.3358764999999995 L 12.1275444342041 2.3527364999999993 L 11.8219569342041 2.3527364999999993 M 12.399950643310547 2.3527364999999993 L 12.399950643310547 2.3358764999999995 L 12.484250643310547 2.2937264999999996 L 12.484250643310547 1.7162714999999995 L 12.399950643310547 1.6741214999999994 L 12.399950643310547 1.6572614999999993 L 12.915234393310547 1.6572614999999993 L 12.915234393310547 1.8385064999999994 L 12.898374393310547 1.8385064999999994 L 12.833041893310547 1.7152177499999994 L 12.579088143310546 1.7152177499999994 L 12.579088143310546 1.9649564999999993 L 12.758225643310547 1.9649564999999993 L 12.810913143310547 1.8774952499999993 L 12.827773143310546 1.8774952499999993 L 12.827773143310546 2.108266499999999 L 12.810913143310547 2.108266499999999 L 12.758225643310547 2.0229127499999993 L 12.579088143310546 2.0229127499999993 L 12.579088143310546 2.294780249999999 L 12.862546893310547 2.294780249999999 L 12.927879393310546 2.1609539999999994 L 12.944739393310547 2.1609539999999994 L 12.944739393310547 2.3527364999999993 L 12.399950643310547 2.3527364999999993 M 13.337764475097654 2.1188039999999995 L 13.337764475097654 2.0450414999999995 L 13.627545725097654 2.0450414999999995 L 13.627545725097654 2.1188039999999995 L 13.337764475097654 2.1188039999999995 M 14.020594475097655 2.3527364999999993 L 14.020594475097655 2.3358764999999995 L 14.104894475097653 2.2937264999999996 L 14.104894475097653 1.7162714999999995 L 14.020594475097655 1.6741214999999994 L 14.020594475097655 1.6572614999999993 L 14.284031975097653 1.6572614999999993 L 14.284031975097653 1.6741214999999994 L 14.199731975097654 1.7162714999999995 L 14.199731975097654 2.2937264999999996 L 14.284031975097653 2.3358764999999995 L 14.284031975097653 2.3527364999999993 L 14.020594475097655 2.3527364999999993 M 14.422615535888669 2.3527364999999993 L 14.422615535888669 2.3358764999999995 L 14.50586178588867 2.2937264999999996 L 14.52799053588867 1.7173252499999994 L 14.43736803588867 1.6741214999999994 L 14.43736803588867 1.6572614999999993 L 14.63231178588867 1.6572614999999993 L 14.87572803588867 2.2178564999999995 L 15.118090535888669 1.6572614999999993 L 15.30355053588867 1.6572614999999993 L 15.30355053588867 1.6741214999999994 L 15.21503553588867 1.7162714999999995 L 15.23294928588867 2.2937264999999996 L 15.30671178588867 2.3358764999999995 L 15.30671178588867 2.3527364999999993 L 15.06434928588867 2.3527364999999993 L 15.06434928588867 2.3358764999999995 L 15.14232678588867 2.294780249999999 L 15.13178928588867 1.7752814999999993 L 14.879943035888669 2.3580052499999993 L 14.83252428588867 2.3580052499999993 L 14.584893035888669 1.7826577499999994 L 14.57119428588867 2.294780249999999 L 14.65654803588867 2.3358764999999995 L 14.65654803588867 2.3527364999999993 L 14.422615535888669 2.3527364999999993 M 15.43999469604492 2.3527364999999993 L 15.43999469604492 2.3358764999999995 L 15.52429469604492 2.2937264999999996 L 15.52429469604492 1.7162714999999995 L 15.43999469604492 1.6741214999999994 L 15.43999469604492 1.6572614999999993 L 15.71396969604492 1.6572614999999993 Q 15.83831219604492 1.6572614999999993 15.91365532104492 1.7025727499999994 Q 15.98899844604492 1.7478839999999993 15.98899844604492 1.8458827499999995 Q 15.98899844604492 1.9038389999999994 15.94948282104492 1.9486233749999993 Q 15.90996719604492 1.9934077499999994 15.84200032104492 2.0197514999999995 Q 15.77403344604492 2.0460952499999996 15.68867969604492 2.0460952499999996 L 15.61913219604492 2.0460952499999996 L 15.61913219604492 2.2937264999999996 L 15.71396969604492 2.3358764999999995 L 15.71396969604492 2.3527364999999993 L 15.43999469604492 2.3527364999999993 M 15.61913219604492 1.7152177499999994 L 15.61913219604492 1.9881389999999994 L 15.70870094604492 1.9881389999999994 Q 15.79194719604492 1.9881389999999994 15.83936594604492 1.9507308749999994 Q 15.88678469604492 1.9133227499999994 15.88678469604492 1.8543127499999994 Q 15.88678469604492 1.7805502499999992 15.83883907104492 1.7478839999999993 Q 15.79089344604492 1.7152177499999994 15.701324696044919 1.7152177499999994 L 15.61913219604492 1.7152177499999994 M 15.995830327148434 2.3527364999999993 L 15.995830327148434 2.3358764999999995 L 16.063270327148434 2.301102749999999 L 16.333030327148435 1.6519927499999993 L 16.380449077148434 1.6519927499999993 L 16.645994077148433 2.2979414999999994 L 16.716595327148436 2.3358764999999995 L 16.716595327148436 2.3527364999999993 L 16.455265327148435 2.3527364999999993 L 16.455265327148435 2.3358764999999995 L 16.547995327148435 2.3000489999999996 L 16.468964077148435 2.1051052499999994 L 16.212902827148437 2.1051052499999994 L 16.134925327148434 2.3000489999999996 L 16.223440327148435 2.3358764999999995 L 16.223440327148435 2.3527364999999993 L 15.995830327148434 2.3527364999999993 M 16.237139077148434 2.047148999999999 L 16.445781577148434 2.047148999999999 L 16.341460327148436 1.7879264999999993 L 16.237139077148434 2.047148999999999 M 17.1428063305664 2.363273999999999 Q 17.0353238305664 2.363273999999999 16.957346330566402 2.319016499999999 Q 16.879368830566403 2.2747589999999995 16.837218830566403 2.198362124999999 Q 16.795068830566404 2.1219652499999992 16.795068830566404 2.0239664999999993 Q 16.795068830566404 1.9491502499999993 16.824046955566402 1.8811833749999993 Q 16.853025080566404 1.8132164999999993 16.903078205566402 1.7605289999999993 Q 16.953131330566404 1.7078414999999993 17.018990705566402 1.6772827499999994 Q 17.084850080566405 1.6467239999999994 17.158612580566402 1.6467239999999994 Q 17.211300080566403 1.6467239999999994 17.248181330566403 1.6535733749999992 Q 17.285062580566404 1.6604227499999995 17.314040705566402 1.6714871249999992 Q 17.343018830566404 1.6825514999999993 17.372523830566404 1.6973039999999995 L 17.377792580566403 1.8817102499999994 L 17.358825080566405 1.8817102499999994 L 17.2945463305664 1.7531527499999995 Q 17.254503830566403 1.7247014999999992 17.224471955566404 1.7120564999999992 Q 17.1944400805664 1.6994114999999992 17.156505080566404 1.6994114999999992 Q 17.080635080566402 1.6994114999999992 17.021098205566403 1.7373464999999992 Q 16.961561330566404 1.7752814999999993 16.927314455566403 1.8411408749999993 Q 16.893067580566402 1.9070002499999994 16.893067580566402 1.9923539999999993 Q 16.893067580566402 2.0924602499999994 16.926260705566403 2.1635883749999993 Q 16.959453830566403 2.2347164999999993 17.015829455566404 2.272124624999999 Q 17.072205080566402 2.3095327499999994 17.140698830566404 2.3095327499999994 Q 17.198655080566404 2.3095327499999994 17.238170705566404 2.2931996249999993 Q 17.277686330566404 2.2768664999999992 17.308245080566405 2.256845249999999 L 17.371470080566404 2.1440939999999995 L 17.389383830566402 2.1440939999999995 L 17.377792580566403 2.3116402499999995 Q 17.347233830566402 2.3274464999999993 17.315094455566403 2.3390377499999992 Q 17.282955080566403 2.350628999999999 17.241858830566404 2.356951499999999 Q 17.2007625805664 2.363273999999999 17.1428063305664 2.363273999999999 M 17.66914776672363 2.3527364999999993 L 17.66914776672363 2.3358764999999995 L 17.774522766723628 2.2937264999999996 L 17.774522766723628 1.7152177499999994 L 17.60276151672363 1.7152177499999994 L 17.53110651672363 1.8701189999999994 L 17.514246516723627 1.8701189999999994 L 17.514246516723627 1.6572614999999993 L 18.12963651672363 1.6572614999999993 L 18.12963651672363 1.8701189999999994 L 18.112776516723628 1.8701189999999994 L 18.041121516723628 1.7152177499999994 L 17.86936026672363 1.7152177499999994 L 17.86936026672363 2.2937264999999996 L 17.974735266723627 2.3358764999999995 L 17.974735266723627 2.3527364999999993 L 17.66914776672363 2.3527364999999993" fill="#ffffff" fill-rule="nonzero"></path></g></g><defs><clipPath id="SvgjsClipPath1005"><path d=" M -5.171884367415888 -1.0020739337079447 h 4.356884367415889 v 4.356884367415889 h -4.356884367415889 Z"></path></clipPath><clipPath id="SvgjsClipPath1000198f3132-81ef-423d-81b4-29fbd925f5d1"><path d=" M -5.171884367415888 -1.0020739337079447 L -0.815 -1.0020739337079447 L -0.815 3.354810433707944 L -5.171884367415888 3.354810433707944 Z"></path></clipPath></defs></svg>