<svg xmlns="http://www.w3.org/2000/svg" version="1.1" xmlns:xlink="http://www.w3.org/1999/xlink" viewBox="0 0 18.269118464975612 17.618106283013006"><g transform="matrix(1,0,0,1,1.4950057656909337,14.977100517322071)"><g clip-path="url(#SvgjsClipPath1001)"><path d=" M 1.0235060909813036 -11.847982859154675 L 14.255600842612441 -11.847982859154675 L 14.255600842612441 -1.8841118924764633 L 1.0235060909813036 -1.8841118924764633 Z" fill="#ffffff" transform="matrix(1,0,0,1,0,0)" fill-rule="nonzero" mask="url(#maskedMgText-2d9170de-420d-49be-9080-4fdaaa263239)"></path></g><g><path d=" M 0.2955 0.9809999999999999 L 0.2955 0.7184999999999999 C 0.2955 0.708 0.3 0.702 0.312 0.6929999999999998 L 0.426 0.6164999999999999 C 0.426 0.6164999999999999 0.519 0.6839999999999999 0.519 0.7049999999999998 L 0.519 0.96 C 0.519 0.9749999999999999 0.513 0.9809999999999999 0.498 0.9809999999999999 M 0.459 0.17849999999999988 C 0.47700000000000004 0.17849999999999988 0.48 0.18149999999999988 0.48 0.19799999999999984 L 0.48 0.3599999999999999 C 0.48 0.37349999999999994 0.46950000000000003 0.38849999999999985 0.4545 0.3989999999999999 L 0.2955 0.4979999999999999 L 0.2955 0.17849999999999988 M 0.5775 1.146 C 0.654 1.146 0.72 1.107 0.72 1.0305 L 0.72 0.6344999999999998 C 0.72 0.5744999999999999 0.642 0.5309999999999999 0.6015 0.5025 C 0.6315000000000001 0.47699999999999987 0.681 0.44099999999999995 0.681 0.3869999999999999 L 0.681 0.15749999999999986 C 0.681 0.06599999999999984 0.6285000000000001 0.013499999999999845 0.5175 0.013499999999999845 L 0.063 0.013499999999999845 C 0.042 0.013499999999999845 0.03 0.025499999999999856 0.03 0.038999999999999924 C 0.03 0.07049999999999979 0.0945 0.10499999999999998 0.0945 0.16499999999999992 L 0.0945 0.9944999999999999 C 0.0945 1.0545 0.03 1.089 0.03 1.1204999999999998 C 0.03 1.134 0.042 1.146 0.063 1.146 M 1.242029296875 0.17849999999999988 C 1.257029296875 0.17849999999999988 1.263029296875 0.1844999999999999 1.263029296875 0.19799999999999984 L 1.263029296875 0.45299999999999985 C 1.263029296875 0.4634999999999999 1.260029296875 0.4754999999999999 1.227029296875 0.4979999999999999 L 1.078529296875 0.5999999999999999 L 1.078529296875 0.17849999999999988 M 1.462529296875 1.011 C 1.4520292968750002 0.9914999999999999 1.389029296875 0.8324999999999999 1.3275292968749999 0.6555 C 1.396529296875 0.6119999999999999 1.4640292968750002 0.5729999999999998 1.4640292968750002 0.5084999999999998 L 1.4640292968750002 0.15599999999999992 C 1.4640292968750002 0.05699999999999994 1.401029296875 0.011999999999999789 1.300529296875 0.011999999999999789 L 0.8460292968750001 0.013499999999999845 C 0.825029296875 0.013499999999999845 0.813029296875 0.025499999999999856 0.813029296875 0.038999999999999924 C 0.813029296875 0.07049999999999979 0.877529296875 0.10499999999999998 0.877529296875 0.16499999999999992 L 0.877529296875 0.9944999999999999 C 0.877529296875 1.0545 0.813029296875 1.089 0.813029296875 1.1204999999999998 C 0.813029296875 1.134 0.825029296875 1.146 0.8460292968750001 1.146 L 1.110029296875 1.146 C 1.131029296875 1.146 1.143029296875 1.134 1.143029296875 1.1204999999999998 C 1.143029296875 1.089 1.078529296875 1.0545 1.078529296875 0.9944999999999999 L 1.078529296875 0.8264999999999999 C 1.078529296875 0.8174999999999999 1.080029296875 0.813 1.084529296875 0.8099999999999998 L 1.1400292968749999 0.7754999999999999 C 1.1400292968749999 0.7754999999999999 1.245029296875 1.0439999999999998 1.245029296875 1.0605 C 1.245029296875 1.0935 1.2105292968749999 1.0979999999999999 1.2105292968749999 1.1204999999999998 C 1.2105292968749999 1.134 1.224029296875 1.146 1.245029296875 1.146 L 1.504529296875 1.146 C 1.521029296875 1.146 1.536029296875 1.134 1.536029296875 1.1204999999999998 C 1.536029296875 1.0875 1.507529296875 1.0904999999999998 1.462529296875 1.011 M 1.905065185546875 0.7424999999999999 L 2.004065185546875 0.32099999999999984 L 2.076065185546875 0.6509999999999999 M 2.356565185546875 0.9614999999999999 C 2.340065185546875 0.9015 2.155565185546875 0.16499999999999992 2.155565185546875 0.11849999999999983 C 2.155565185546875 0.08999999999999986 2.194565185546875 0.058499999999999774 2.194565185546875 0.04049999999999998 C 2.194565185546875 0.0239999999999998 2.182565185546875 0.013499999999999845 2.161565185546875 0.013499999999999845 L 1.851065185546875 0.013499999999999845 C 1.830065185546875 0.013499999999999845 1.818065185546875 0.0239999999999998 1.818065185546875 0.04049999999999998 C 1.818065185546875 0.058499999999999774 1.857065185546875 0.08999999999999986 1.857065185546875 0.11849999999999983 C 1.857065185546875 0.16499999999999992 1.653065185546875 0.966 1.641065185546875 1.0125 C 1.627565185546875 1.065 1.569065185546875 1.095 1.569065185546875 1.119 C 1.569065185546875 1.1355 1.581065185546875 1.146 1.602065185546875 1.146 L 1.869065185546875 1.146 C 1.893065185546875 1.146 1.9035651855468751 1.134 1.9035651855468751 1.119 C 1.9035651855468751 1.095 1.8495651855468749 1.0755 1.8495651855468749 1.017 L 1.8495651855468749 0.9764999999999999 L 2.121065185546875 0.8294999999999999 C 2.121065185546875 0.8294999999999999 2.170565185546875 1.0319999999999998 2.170565185546875 1.0425 C 2.170565185546875 1.0785 2.131565185546875 1.095 2.131565185546875 1.119 C 2.131565185546875 1.134 2.142065185546875 1.146 2.166065185546875 1.146 L 2.412065185546875 1.146 C 2.433065185546875 1.146 2.4450651855468752 1.1355 2.4450651855468752 1.119 C 2.4450651855468752 1.095 2.380565185546875 1.053 2.356565185546875 0.9614999999999999 M 2.7735710449218747 1.146 C 2.7975710449218747 1.146 2.815571044921875 1.131 2.815571044921875 1.1084999999999998 C 2.815571044921875 1.0739999999999998 2.7510710449218747 1.0379999999999998 2.7510710449218747 1.0065 L 2.7510710449218747 0.5129999999999999 L 3.0540710449218746 1.1039999999999999 C 3.067571044921875 1.131 3.0780710449218747 1.146 3.118571044921875 1.146 L 3.213071044921875 1.146 C 3.246071044921875 1.146 3.2670710449218747 1.125 3.2670710449218747 1.0935 L 3.2670710449218747 0.16499999999999992 C 3.2670710449218747 0.10499999999999998 3.331571044921875 0.07049999999999979 3.331571044921875 0.038999999999999924 C 3.331571044921875 0.025499999999999856 3.319571044921875 0.013499999999999845 3.298571044921875 0.013499999999999845 L 3.042071044921875 0.013499999999999845 C 3.021071044921875 0.013499999999999845 3.0090710449218747 0.025499999999999856 3.0090710449218747 0.038999999999999924 C 3.0090710449218747 0.07049999999999979 3.073571044921875 0.10499999999999998 3.073571044921875 0.16499999999999992 L 3.073571044921875 0.696 L 2.772071044921875 0.05999999999999983 C 2.7630710449218747 0.038999999999999924 2.7525710449218748 0.013499999999999845 2.706071044921875 0.013499999999999845 L 2.526071044921875 0.013499999999999845 C 2.5050710449218747 0.013499999999999845 2.4930710449218747 0.025499999999999856 2.4930710449218747 0.038999999999999924 C 2.4930710449218747 0.07049999999999979 2.557571044921875 0.10499999999999998 2.557571044921875 0.16499999999999992 L 2.557571044921875 0.9944999999999999 C 2.557571044921875 1.0545 2.4930710449218747 1.089 2.4930710449218747 1.1204999999999998 C 2.4930710449218747 1.134 2.5050710449218747 1.146 2.526071044921875 1.146 M 3.660069580078125 0.9809999999999999 L 3.660069580078125 0.17849999999999988 L 3.802569580078125 0.17849999999999988 C 3.814569580078125 0.17849999999999988 3.823569580078125 0.1874999999999999 3.823569580078125 0.1994999999999999 L 3.823569580078125 0.96 C 3.823569580078125 0.9779999999999999 3.819069580078125 0.9809999999999999 3.802569580078125 0.9809999999999999 M 3.882069580078125 1.146 C 3.963069580078125 1.146 4.024569580078125 1.1055 4.024569580078125 1.029 L 4.024569580078125 0.15599999999999992 C 4.024569580078125 0.06449999999999978 3.972069580078125 0.013499999999999845 3.861069580078125 0.013499999999999845 L 3.427569580078125 0.013499999999999845 C 3.406569580078125 0.013499999999999845 3.394569580078125 0.025499999999999856 3.394569580078125 0.038999999999999924 C 3.394569580078125 0.07049999999999979 3.459069580078125 0.10499999999999998 3.459069580078125 0.16499999999999992 L 3.459069580078125 0.9944999999999999 C 3.459069580078125 1.0545 3.394569580078125 1.089 3.394569580078125 1.1204999999999998 C 3.394569580078125 1.134 3.406569580078125 1.146 3.427569580078125 1.146 M 4.290040283203124 1.146 L 4.585540283203125 1.146 C 4.677040283203125 1.146 4.734040283203124 1.0785 4.734040283203124 1.017 L 4.734040283203124 0.14249999999999985 C 4.734040283203124 0.07649999999999979 4.675540283203125 0.013499999999999845 4.585540283203125 0.013499999999999845 L 4.290040283203124 0.013499999999999845 C 4.210540283203125 0.013499999999999845 4.147540283203124 0.05549999999999988 4.147540283203124 0.1349999999999998 L 4.147540283203124 1.0245 C 4.147540283203124 1.1024999999999998 4.209040283203125 1.146 4.290040283203124 1.146 M 4.348540283203125 0.9704999999999999 L 4.348540283203125 0.18899999999999983 C 4.348540283203125 0.18299999999999994 4.353040283203125 0.17849999999999988 4.359040283203124 0.17849999999999988 L 4.522540283203124 0.17849999999999988 C 4.5285402832031245 0.17849999999999988 4.533040283203125 0.18299999999999994 4.533040283203125 0.18899999999999983 L 4.533040283203125 0.9704999999999999 C 4.533040283203125 0.9749999999999999 4.5285402832031245 0.9809999999999999 4.522540283203124 0.9809999999999999 L 4.359040283203124 0.9809999999999999 C 4.353040283203125 0.9809999999999999 4.348540283203125 0.9749999999999999 4.348540283203125 0.9704999999999999 M 5.107552734375 1.146 C 5.131552734375 1.146 5.149552734375 1.131 5.149552734375 1.1084999999999998 C 5.149552734375 1.0739999999999998 5.085052734375 1.0379999999999998 5.085052734375 1.0065 L 5.085052734375 0.5129999999999999 L 5.388052734375 1.1039999999999999 C 5.401552734375 1.131 5.412052734375 1.146 5.452552734375 1.146 L 5.547052734375 1.146 C 5.580052734375 1.146 5.601052734375 1.125 5.601052734375 1.0935 L 5.601052734375 0.16499999999999992 C 5.601052734375 0.10499999999999998 5.665552734375 0.07049999999999979 5.665552734375 0.038999999999999924 C 5.665552734375 0.025499999999999856 5.653552734374999 0.013499999999999845 5.6325527343749995 0.013499999999999845 L 5.3760527343749995 0.013499999999999845 C 5.355052734375 0.013499999999999845 5.343052734375 0.025499999999999856 5.343052734375 0.038999999999999924 C 5.343052734375 0.07049999999999979 5.407552734375 0.10499999999999998 5.407552734375 0.16499999999999992 L 5.407552734375 0.696 L 5.106052734375 0.05999999999999983 C 5.097052734375 0.038999999999999924 5.086552734375 0.013499999999999845 5.040052734375 0.013499999999999845 L 4.8600527343749995 0.013499999999999845 C 4.839052734375 0.013499999999999845 4.827052734375 0.025499999999999856 4.827052734375 0.038999999999999924 C 4.827052734375 0.07049999999999979 4.891552734375 0.10499999999999998 4.891552734375 0.16499999999999992 L 4.891552734375 0.9944999999999999 C 4.891552734375 1.0545 4.827052734375 1.089 4.827052734375 1.1204999999999998 C 4.827052734375 1.134 4.839052734375 1.146 4.8600527343749995 1.146 M 6.852093017578125 1.119 C 6.852093017578125 1.0919999999999999 6.808593017578125 1.0875 6.768093017578125 1.0139999999999998 L 6.505593017578125 0.5324999999999999 L 6.738093017578125 0.1469999999999999 C 6.769593017578125 0.09599999999999986 6.820593017578125 0.0674999999999999 6.820593017578125 0.04349999999999987 C 6.820593017578125 0.025499999999999856 6.808593017578125 0.013499999999999845 6.783093017578125 0.013499999999999845 L 6.526593017578125 0.013499999999999845 C 6.510093017578125 0.013499999999999845 6.495093017578125 0.0239999999999998 6.495093017578125 0.038999999999999924 C 6.495093017578125 0.05999999999999983 6.525093017578125 0.07499999999999996 6.525093017578125 0.10799999999999987 C 6.525093017578125 0.11399999999999988 6.517593017578125 0.12749999999999995 6.517593017578125 0.12749999999999995 L 6.358593017578125 0.4109999999999999 L 6.358593017578125 0.16499999999999992 C 6.358593017578125 0.10499999999999998 6.423093017578125 0.07049999999999979 6.423093017578125 0.038999999999999924 C 6.423093017578125 0.0239999999999998 6.411093017578125 0.013499999999999845 6.390093017578125 0.013499999999999845 L 6.126093017578125 0.013499999999999845 C 6.105093017578125 0.013499999999999845 6.093093017578125 0.025499999999999856 6.093093017578125 0.038999999999999924 C 6.093093017578125 0.07049999999999979 6.157593017578125 0.10499999999999998 6.157593017578125 0.16499999999999992 L 6.157593017578125 0.9944999999999999 C 6.157593017578125 1.0545 6.093093017578125 1.089 6.093093017578125 1.1204999999999998 C 6.093093017578125 1.134 6.105093017578125 1.146 6.126093017578125 1.146 L 6.390093017578125 1.146 C 6.411093017578125 1.146 6.423093017578125 1.134 6.423093017578125 1.1204999999999998 C 6.423093017578125 1.089 6.358593017578125 1.0545 6.358593017578125 0.9944999999999999 L 6.358593017578125 0.7665 L 6.378093017578125 0.7304999999999999 L 6.550593017578125 1.0379999999999998 C 6.570093017578125 1.0755 6.525093017578125 1.0875 6.525093017578125 1.1204999999999998 C 6.525093017578125 1.134 6.537093017578125 1.146 6.558093017578125 1.146 L 6.819093017578125 1.146 C 6.840093017578125 1.146 6.852093017578125 1.1324999999999998 6.852093017578125 1.119 M 7.458109130859375 1.146 C 7.494109130859375 1.146 7.509109130859375 1.131 7.509109130859375 1.095 L 7.509109130859375 0.7785 C 7.509109130859375 0.7619999999999999 7.495609130859375 0.7499999999999999 7.483609130859375 0.7499999999999999 C 7.4656091308593755 0.7499999999999999 7.3486091308593755 0.8294999999999999 7.3246091308593755 0.8474999999999999 C 7.312609130859375 0.8564999999999999 7.308109130859375 0.8639999999999999 7.308109130859375 0.8864999999999998 L 7.308109130859375 0.9809999999999999 L 7.1851091308593755 0.9809999999999999 C 7.174609130859375 0.9809999999999999 7.165609130859375 0.9734999999999999 7.165609130859375 0.9629999999999999 L 7.165609130859375 0.7949999999999999 L 7.338109130859375 0.6854999999999999 C 7.360609130859375 0.6719999999999999 7.366609130859375 0.6599999999999999 7.366609130859375 0.6344999999999998 L 7.366609130859375 0.49649999999999994 C 7.366609130859375 0.47999999999999987 7.356109130859375 0.46499999999999986 7.338109130859375 0.46499999999999986 C 7.3261091308593755 0.46499999999999986 7.312609130859375 0.47099999999999986 7.299109130859375 0.47999999999999987 L 7.165609130859375 0.564 L 7.165609130859375 0.1964999999999999 C 7.165609130859375 0.1874999999999999 7.174609130859375 0.17849999999999988 7.1851091308593755 0.17849999999999988 L 7.308109130859375 0.17849999999999988 L 7.308109130859375 0.3434999999999999 C 7.308109130859375 0.3599999999999999 7.321609130859375 0.3719999999999999 7.333609130859375 0.3719999999999999 C 7.351609130859375 0.3719999999999999 7.468609130859376 0.29249999999999987 7.492609130859375 0.27449999999999986 C 7.504609130859375 0.26549999999999985 7.509109130859375 0.2579999999999999 7.509109130859375 0.23549999999999993 L 7.509109130859375 0.06449999999999978 C 7.509109130859375 0.02849999999999997 7.494109130859375 0.013499999999999845 7.458109130859375 0.013499999999999845 L 6.933109130859375 0.013499999999999845 C 6.912109130859375 0.013499999999999845 6.900109130859375 0.025499999999999856 6.900109130859375 0.038999999999999924 C 6.900109130859375 0.07049999999999979 6.964609130859375 0.10499999999999998 6.964609130859375 0.16499999999999992 L 6.964609130859375 0.9944999999999999 C 6.964609130859375 1.0545 6.900109130859375 1.089 6.900109130859375 1.1204999999999998 C 6.900109130859375 1.134 6.912109130859375 1.146 6.933109130859375 1.146 M 7.8826142578125005 1.146 C 7.9066142578125005 1.146 7.9246142578125 1.131 7.9246142578125 1.1084999999999998 C 7.9246142578125 1.0739999999999998 7.8601142578125005 1.0379999999999998 7.8601142578125005 1.0065 L 7.8601142578125005 0.5129999999999999 L 8.1631142578125 1.1039999999999999 C 8.176614257812501 1.131 8.1871142578125 1.146 8.227614257812501 1.146 L 8.322114257812501 1.146 C 8.3551142578125 1.146 8.3761142578125 1.125 8.3761142578125 1.0935 L 8.3761142578125 0.16499999999999992 C 8.3761142578125 0.10499999999999998 8.4406142578125 0.07049999999999979 8.4406142578125 0.038999999999999924 C 8.4406142578125 0.025499999999999856 8.4286142578125 0.013499999999999845 8.4076142578125 0.013499999999999845 L 8.1511142578125 0.013499999999999845 C 8.130114257812501 0.013499999999999845 8.1181142578125 0.025499999999999856 8.1181142578125 0.038999999999999924 C 8.1181142578125 0.07049999999999979 8.1826142578125 0.10499999999999998 8.1826142578125 0.16499999999999992 L 8.1826142578125 0.696 L 7.8811142578125 0.05999999999999983 C 7.8721142578125 0.038999999999999924 7.861614257812501 0.013499999999999845 7.815114257812501 0.013499999999999845 L 7.6351142578125 0.013499999999999845 C 7.6141142578125 0.013499999999999845 7.6021142578125005 0.025499999999999856 7.6021142578125005 0.038999999999999924 C 7.6021142578125005 0.07049999999999979 7.6666142578125 0.10499999999999998 7.6666142578125 0.16499999999999992 L 7.6666142578125 0.9944999999999999 C 7.6666142578125 1.0545 7.6021142578125005 1.089 7.6021142578125005 1.1204999999999998 C 7.6021142578125005 1.134 7.6141142578125 1.146 7.6351142578125 1.146 M 8.784112792968749 1.146 C 8.80811279296875 1.146 8.826112792968749 1.131 8.826112792968749 1.1084999999999998 C 8.826112792968749 1.0739999999999998 8.76161279296875 1.0379999999999998 8.76161279296875 1.0065 L 8.76161279296875 0.5129999999999999 L 9.064612792968749 1.1039999999999999 C 9.07811279296875 1.131 9.08861279296875 1.146 9.12911279296875 1.146 L 9.22361279296875 1.146 C 9.256612792968749 1.146 9.27761279296875 1.125 9.27761279296875 1.0935 L 9.27761279296875 0.16499999999999992 C 9.27761279296875 0.10499999999999998 9.342112792968749 0.07049999999999979 9.342112792968749 0.038999999999999924 C 9.342112792968749 0.025499999999999856 9.33011279296875 0.013499999999999845 9.30911279296875 0.013499999999999845 L 9.05261279296875 0.013499999999999845 C 9.03161279296875 0.013499999999999845 9.019612792968749 0.025499999999999856 9.019612792968749 0.038999999999999924 C 9.019612792968749 0.07049999999999979 9.08411279296875 0.10499999999999998 9.08411279296875 0.16499999999999992 L 9.08411279296875 0.696 L 8.782612792968749 0.05999999999999983 C 8.77361279296875 0.038999999999999924 8.76311279296875 0.013499999999999845 8.71661279296875 0.013499999999999845 L 8.53661279296875 0.013499999999999845 C 8.51561279296875 0.013499999999999845 8.503612792968749 0.025499999999999856 8.503612792968749 0.038999999999999924 C 8.503612792968749 0.07049999999999979 8.56811279296875 0.10499999999999998 8.56811279296875 0.16499999999999992 L 8.56811279296875 0.9944999999999999 C 8.56811279296875 1.0545 8.503612792968749 1.089 8.503612792968749 1.1204999999999998 C 8.503612792968749 1.134 8.51561279296875 1.146 8.53661279296875 1.146 M 9.963111328124999 1.146 C 9.999111328125 1.146 10.014111328124999 1.131 10.014111328124999 1.095 L 10.014111328124999 0.7785 C 10.014111328124999 0.7619999999999999 10.000611328125 0.7499999999999999 9.988611328125 0.7499999999999999 C 9.970611328124999 0.7499999999999999 9.853611328125 0.8294999999999999 9.829611328124999 0.8474999999999999 C 9.817611328125 0.8564999999999999 9.813111328125 0.8639999999999999 9.813111328125 0.8864999999999998 L 9.813111328125 0.9809999999999999 L 9.690111328124999 0.9809999999999999 C 9.679611328124999 0.9809999999999999 9.670611328125 0.9734999999999999 9.670611328125 0.9629999999999999 L 9.670611328125 0.7949999999999999 L 9.843111328125 0.6854999999999999 C 9.865611328125 0.6719999999999999 9.871611328124999 0.6599999999999999 9.871611328124999 0.6344999999999998 L 9.871611328124999 0.49649999999999994 C 9.871611328124999 0.47999999999999987 9.861111328125 0.46499999999999986 9.843111328125 0.46499999999999986 C 9.831111328124999 0.46499999999999986 9.817611328125 0.47099999999999986 9.804111328125 0.47999999999999987 L 9.670611328125 0.564 L 9.670611328125 0.1964999999999999 C 9.670611328125 0.1874999999999999 9.679611328124999 0.17849999999999988 9.690111328124999 0.17849999999999988 L 9.813111328125 0.17849999999999988 L 9.813111328125 0.3434999999999999 C 9.813111328125 0.3599999999999999 9.826611328124999 0.3719999999999999 9.838611328125 0.3719999999999999 C 9.856611328125 0.3719999999999999 9.973611328125 0.29249999999999987 9.997611328125 0.27449999999999986 C 10.009611328125 0.26549999999999985 10.014111328124999 0.2579999999999999 10.014111328124999 0.23549999999999993 L 10.014111328124999 0.06449999999999978 C 10.014111328124999 0.02849999999999997 9.999111328125 0.013499999999999845 9.963111328124999 0.013499999999999845 L 9.438111328125 0.013499999999999845 C 9.417111328125 0.013499999999999845 9.405111328124999 0.025499999999999856 9.405111328124999 0.038999999999999924 C 9.405111328124999 0.07049999999999979 9.469611328125 0.10499999999999998 9.469611328125 0.16499999999999992 L 9.469611328125 0.9944999999999999 C 9.469611328125 1.0545 9.405111328124999 1.089 9.405111328124999 1.1204999999999998 C 9.405111328124999 1.134 9.417111328125 1.146 9.438111328125 1.146 M 10.372616455078125 0.9809999999999999 L 10.372616455078125 0.17849999999999988 L 10.515116455078125 0.17849999999999988 C 10.527116455078124 0.17849999999999988 10.536116455078124 0.1874999999999999 10.536116455078124 0.1994999999999999 L 10.536116455078124 0.96 C 10.536116455078124 0.9779999999999999 10.531616455078124 0.9809999999999999 10.515116455078125 0.9809999999999999 M 10.594616455078125 1.146 C 10.675616455078124 1.146 10.737116455078125 1.1055 10.737116455078125 1.029 L 10.737116455078125 0.15599999999999992 C 10.737116455078125 0.06449999999999978 10.684616455078125 0.013499999999999845 10.573616455078124 0.013499999999999845 L 10.140116455078125 0.013499999999999845 C 10.119116455078125 0.013499999999999845 10.107116455078124 0.025499999999999856 10.107116455078124 0.038999999999999924 C 10.107116455078124 0.07049999999999979 10.171616455078125 0.10499999999999998 10.171616455078125 0.16499999999999992 L 10.171616455078125 0.9944999999999999 C 10.171616455078125 1.0545 10.107116455078124 1.089 10.107116455078124 1.1204999999999998 C 10.107116455078124 1.134 10.119116455078125 1.146 10.140116455078125 1.146 M 11.070078369140624 0.1499999999999999 C 11.070078369140624 0.10799999999999987 11.118078369140624 0.07049999999999979 11.118078369140624 0.038999999999999924 C 11.118078369140624 0.025499999999999856 11.106078369140624 0.013499999999999845 11.085078369140625 0.013499999999999845 L 10.801578369140625 0.013499999999999845 C 10.780578369140624 0.013499999999999845 10.768578369140625 0.025499999999999856 10.768578369140625 0.038999999999999924 C 10.768578369140625 0.07049999999999979 10.822578369140626 0.11249999999999982 10.849578369140625 0.16799999999999993 C 10.933578369140625 0.3404999999999999 11.064078369140624 0.6179999999999999 11.074578369140625 0.6509999999999999 L 11.074578369140625 0.9944999999999999 C 11.074578369140625 1.0545 11.010078369140626 1.089 11.010078369140626 1.1204999999999998 C 11.010078369140626 1.134 11.022078369140624 1.146 11.043078369140625 1.146 L 11.307078369140624 1.146 C 11.328078369140625 1.146 11.340078369140624 1.134 11.340078369140624 1.1204999999999998 C 11.340078369140624 1.089 11.275578369140625 1.0545 11.275578369140625 0.9944999999999999 L 11.275578369140625 0.6509999999999999 C 11.286078369140625 0.6179999999999999 11.416578369140625 0.3404999999999999 11.500578369140625 0.16799999999999993 C 11.527578369140624 0.11249999999999982 11.581578369140624 0.07049999999999979 11.581578369140624 0.038999999999999924 C 11.581578369140624 0.025499999999999856 11.569578369140626 0.013499999999999845 11.548578369140625 0.013499999999999845 L 11.265078369140625 0.013499999999999845 C 11.244078369140626 0.013499999999999845 11.232078369140625 0.025499999999999856 11.232078369140625 0.038999999999999924 C 11.232078369140625 0.07049999999999979 11.280078369140625 0.10799999999999987 11.280078369140625 0.1499999999999999 L 11.175078369140625 0.3959999999999999 M 11.808095947265626 1.146 L 12.073595947265625 1.146 C 12.145595947265624 1.146 12.216095947265625 1.0844999999999998 12.216095947265625 1.023 L 12.216095947265625 0.714 C 12.216095947265625 0.6495 12.189095947265624 0.6194999999999999 12.139595947265626 0.5864999999999999 L 11.889095947265625 0.4139999999999999 C 11.865095947265624 0.3959999999999999 11.860595947265624 0.3839999999999999 11.860595947265624 0.3629999999999999 L 11.860595947265624 0.17849999999999988 L 12.000095947265624 0.17849999999999988 L 12.000095947265624 0.2789999999999999 C 12.000095947265624 0.31799999999999984 12.012095947265625 0.3314999999999999 12.025595947265625 0.3404999999999999 C 12.051095947265624 0.3569999999999999 12.132095947265626 0.4139999999999999 12.168095947265625 0.4139999999999999 C 12.183095947265626 0.4139999999999999 12.201095947265625 0.3959999999999999 12.201095947265625 0.3689999999999999 L 12.201095947265625 0.13649999999999984 C 12.201095947265625 0.07499999999999996 12.142595947265624 0.013499999999999845 12.052595947265624 0.013499999999999845 L 11.802095947265625 0.013499999999999845 C 11.722595947265624 0.013499999999999845 11.659595947265625 0.053999999999999826 11.659595947265625 0.12899999999999978 L 11.659595947265625 0.4274999999999999 C 11.659595947265625 0.49349999999999994 11.697095947265625 0.5249999999999999 11.740595947265625 0.5549999999999999 L 11.988095947265625 0.726 C 12.007595947265624 0.7394999999999998 12.015095947265625 0.7529999999999999 12.015095947265625 0.7725 L 12.015095947265625 0.9809999999999999 L 11.860595947265624 0.9809999999999999 L 11.860595947265624 0.8399999999999999 C 11.860595947265624 0.8009999999999999 11.848595947265625 0.7874999999999999 11.835095947265625 0.7785 C 11.811095947265624 0.7605 11.728595947265624 0.7049999999999998 11.698595947265625 0.7049999999999998 C 11.677595947265624 0.7049999999999998 11.659595947265625 0.7214999999999999 11.659595947265625 0.7484999999999999 L 11.659595947265625 1.023 C 11.659595947265625 1.0844999999999998 11.719595947265624 1.146 11.808095947265626 1.146 M 13.0920791015625 0.9944999999999999 C 13.0920791015625 1.0545 13.0275791015625 1.089 13.0275791015625 1.1204999999999998 C 13.0275791015625 1.134 13.0395791015625 1.146 13.0605791015625 1.146 L 13.3170791015625 1.146 C 13.3380791015625 1.146 13.3500791015625 1.134 13.3500791015625 1.1204999999999998 C 13.3500791015625 1.089 13.2855791015625 1.0545 13.2855791015625 0.9944999999999999 L 13.2855791015625 0.16199999999999992 C 13.2855791015625 0.10199999999999987 13.3500791015625 0.0674999999999999 13.3500791015625 0.03599999999999981 C 13.3500791015625 0.022499999999999964 13.3380791015625 0.010499999999999954 13.3170791015625 0.010499999999999954 L 13.1235791015625 0.010499999999999954 C 13.0740791015625 0.010499999999999954 13.0560791015625 0.04799999999999982 13.0485791015625 0.07049999999999979 L 12.8295791015625 0.726 L 12.6030791015625 0.05249999999999999 C 12.5955791015625 0.029999999999999805 12.5850791015625 0.010499999999999954 12.537079101562501 0.010499999999999954 L 12.3420791015625 0.010499999999999954 C 12.3210791015625 0.010499999999999954 12.3090791015625 0.022499999999999964 12.3090791015625 0.03599999999999981 C 12.3090791015625 0.0674999999999999 12.3735791015625 0.10199999999999987 12.3735791015625 0.16199999999999992 L 12.3735791015625 0.9944999999999999 C 12.3735791015625 1.0545 12.3090791015625 1.089 12.3090791015625 1.1204999999999998 C 12.3090791015625 1.134 12.3210791015625 1.146 12.3420791015625 1.146 L 12.5985791015625 1.146 C 12.6195791015625 1.146 12.6315791015625 1.134 12.6315791015625 1.1204999999999998 C 12.6315791015625 1.089 12.5670791015625 1.0545 12.5670791015625 0.9944999999999999 L 12.5670791015625 0.5624999999999999 L 12.7200791015625 1.008 C 12.724579101562501 1.023 12.7260791015625 1.035 12.7260791015625 1.0439999999999998 C 12.724579101562501 1.0679999999999998 12.6960791015625 1.0919999999999999 12.6960791015625 1.1204999999999998 C 12.6960791015625 1.134 12.7080791015625 1.146 12.7290791015625 1.146 L 12.9285791015625 1.146 C 12.9495791015625 1.146 12.9615791015625 1.134 12.9615791015625 1.1204999999999998 C 12.9615791015625 1.0919999999999999 12.9315791015625 1.0679999999999998 12.9315791015625 1.0439999999999998 C 12.9315791015625 1.035 12.9330791015625 1.023 12.9375791015625 1.008 L 13.0920791015625 0.5609999999999999 M 13.67859228515625 0.16499999999999992 C 13.67859228515625 0.10499999999999998 13.74309228515625 0.07049999999999979 13.74309228515625 0.038999999999999924 C 13.74309228515625 0.025499999999999856 13.731092285156251 0.013499999999999845 13.71009228515625 0.013499999999999845 L 13.44609228515625 0.013499999999999845 C 13.42509228515625 0.013499999999999845 13.41309228515625 0.025499999999999856 13.41309228515625 0.038999999999999924 C 13.41309228515625 0.07049999999999979 13.47759228515625 0.10499999999999998 13.47759228515625 0.16499999999999992 L 13.47759228515625 0.9944999999999999 C 13.47759228515625 1.0545 13.41309228515625 1.089 13.41309228515625 1.1204999999999998 C 13.41309228515625 1.134 13.42509228515625 1.146 13.44609228515625 1.146 L 13.71009228515625 1.146 C 13.731092285156251 1.146 13.74309228515625 1.134 13.74309228515625 1.1204999999999998 C 13.74309228515625 1.089 13.67859228515625 1.0545 13.67859228515625 0.9944999999999999 M 14.21260693359375 0.17849999999999988 C 14.30560693359375 0.17849999999999988 14.30560693359375 0.1874999999999999 14.33560693359375 0.22049999999999992 C 14.36110693359375 0.25049999999999983 14.37310693359375 0.26249999999999984 14.39260693359375 0.26249999999999984 C 14.41660693359375 0.26249999999999984 14.43310693359375 0.24599999999999989 14.43310693359375 0.22199999999999986 L 14.43310693359375 0.038999999999999924 C 14.43310693359375 0.014999999999999902 14.41660693359375 -2.220446049250313e-16 14.39260693359375 -2.220446049250313e-16 C 14.38360693359375 -2.220446049250313e-16 14.36860693359375 0.0014999999999998348 14.34310693359375 0.0044999999999999485 C 14.313106933593751 0.008999999999999897 14.27410693359375 0.013499999999999845 14.25010693359375 0.013499999999999845 L 13.97410693359375 0.013499999999999845 C 13.86760693359375 0.013499999999999845 13.84810693359375 -2.220446049250313e-16 13.82410693359375 -2.220446049250313e-16 C 13.80010693359375 -2.220446049250313e-16 13.79110693359375 0.010499999999999954 13.79110693359375 0.034499999999999975 L 13.79110693359375 0.23099999999999987 C 13.79110693359375 0.2489999999999999 13.80160693359375 0.26249999999999984 13.81810693359375 0.26249999999999984 C 13.83910693359375 0.26249999999999984 13.85260693359375 0.24749999999999994 13.88560693359375 0.21899999999999986 C 13.91860693359375 0.1904999999999999 13.92760693359375 0.17849999999999988 14.01160693359375 0.17849999999999988 L 14.01160693359375 0.9944999999999999 C 14.01160693359375 1.0545 13.94710693359375 1.089 13.94710693359375 1.1204999999999998 C 13.94710693359375 1.134 13.95910693359375 1.146 13.980106933593751 1.146 L 14.24410693359375 1.146 C 14.265106933593751 1.146 14.27710693359375 1.134 14.27710693359375 1.1204999999999998 C 14.27710693359375 1.089 14.21260693359375 1.0545 14.21260693359375 0.9944999999999999 M 15.18460400390625 0.16499999999999992 C 15.18460400390625 0.10499999999999998 15.24910400390625 0.07049999999999979 15.24910400390625 0.038999999999999924 C 15.24910400390625 0.025499999999999856 15.23710400390625 0.013499999999999845 15.216104003906251 0.013499999999999845 L 14.95210400390625 0.013499999999999845 C 14.93110400390625 0.013499999999999845 14.91910400390625 0.025499999999999856 14.91910400390625 0.038999999999999924 C 14.91910400390625 0.07049999999999979 14.983604003906251 0.10499999999999998 14.983604003906251 0.16499999999999992 L 14.983604003906251 0.5789999999999998 L 14.746604003906251 0.69 L 14.746604003906251 0.16499999999999992 C 14.746604003906251 0.10499999999999998 14.81110400390625 0.07049999999999979 14.81110400390625 0.038999999999999924 C 14.81110400390625 0.025499999999999856 14.799104003906251 0.013499999999999845 14.77810400390625 0.013499999999999845 L 14.514104003906251 0.013499999999999845 C 14.49310400390625 0.013499999999999845 14.48110400390625 0.025499999999999856 14.48110400390625 0.038999999999999924 C 14.48110400390625 0.07049999999999979 14.54560400390625 0.10499999999999998 14.54560400390625 0.16499999999999992 L 14.54560400390625 0.9944999999999999 C 14.54560400390625 1.0545 14.48110400390625 1.089 14.48110400390625 1.1204999999999998 C 14.48110400390625 1.134 14.49310400390625 1.146 14.514104003906251 1.146 L 14.77810400390625 1.146 C 14.799104003906251 1.146 14.81110400390625 1.134 14.81110400390625 1.1204999999999998 C 14.81110400390625 1.089 14.746604003906251 1.0545 14.746604003906251 0.9944999999999999 L 14.746604003906251 0.9059999999999999 L 14.983604003906251 0.7949999999999999 L 14.983604003906251 0.9944999999999999 C 14.983604003906251 1.0545 14.91910400390625 1.089 14.91910400390625 1.1204999999999998 C 14.91910400390625 1.134 14.93110400390625 1.146 14.95210400390625 1.146 L 15.216104003906251 1.146 C 15.23710400390625 1.146 15.24910400390625 1.134 15.24910400390625 1.1204999999999998 C 15.24910400390625 1.089 15.18460400390625 1.0545 15.18460400390625 0.9944999999999999" fill="#ffffff" fill-rule="nonzero"></path></g><g></g></g><defs><clipPath id="SvgjsClipPath1001"><path d=" M 1.0235060909813036 -13.482094751631138 h 13.232094751631138 v 13.232094751631138 h -13.232094751631138 Z"></path></clipPath><mask id="maskedMgText-2d9170de-420d-49be-9080-4fdaaa263239"><path d=" M 14.04280535150219 -5.8641021879620325 C 14.019580470476164 -5.798662281025453 13.996818763715616 -5.733156206336663 13.978424128600984 -5.6818761983732164 C 13.876194951435147 -5.6382054819140235 13.768473850835804 -5.692198367718117 13.701975259863849 -5.599431179118437 L 13.458477931727742 -5.602739566728982 C 13.44656773632978 -5.754925396814048 13.434657540931816 -5.907772904421225 13.423276687551542 -6.057841366435544 C 13.43141532107348 -6.068229703532655 13.437370418772462 -6.081330918470414 13.444979710276716 -6.0829851122756855 C 13.494737859939313 -6.092777939602898 13.546150203407182 -6.095556985195756 13.594849669034403 -6.109452213160044 C 13.630973282523303 -6.123884179004788 13.665427125478017 -6.1421870897824045 13.697608188217929 -6.1640406087340365 C 13.7684738508358 -6.214791274679797 13.817768826232921 -6.273151232129809 13.78905202177339 -6.371939686180681 C 13.782338595160619 -6.391967925869651 13.782595103210184 -6.413677834428366 13.789779867047708 -6.433541863489029 C 13.79692318483929 -6.453345322944055 13.810598935423686 -6.470124955487026 13.828554169843297 -6.481116477328664 C 13.887509637063209 -6.506789565186493 13.889163830868481 -6.5553566953092925 13.878907829275793 -6.608820239095699 C 13.8832087331695 -6.671017926173944 13.886980295045523 -6.733811123022087 13.89134736669144 -6.796008810100331 C 13.888038979080893 -6.8429217464178596 13.885392268992458 -6.889900850487598 13.882679391151813 -6.936813786805125 C 13.882679391151813 -6.996364763794935 13.899419832461168 -7.067825936182705 13.873482073594497 -7.112555336677272 C 13.83680174486714 -7.161303446053905 13.783782858535956 -7.195200766823023 13.724141456854497 -7.208035403117599 C 13.634843394611545 -7.225401814621764 13.544433048088056 -7.236457127231629 13.453581518064137 -7.241119279223048 C 13.420967788011467 -7.263565782784109 13.387003654985053 -7.283984038422629 13.35188168291598 -7.302258282265919 C 13.213921919556256 -7.36558082113175 13.212267725750982 -7.366639505167124 13.222589895095881 -7.567524800879413 L 13.313504386633664 -7.474294438014257 C 13.375579589487957 -7.549077407814089 13.403275295925141 -7.646552842959014 13.389795804932831 -7.742803176486085 C 13.417917099622462 -7.851979967634068 13.335670583624314 -7.9346896578976915 13.31998882635033 -8.050615559771186 L 13.454177027834033 -8.307147935092843 C 13.52180047059357 -8.309860812933488 13.596967037105152 -8.290738332544539 13.641894940856353 -8.367162086348127 C 13.71170191943885 -8.461054126735393 13.707334847792932 -8.57128960191875 13.708989041598205 -8.679870883296836 C 13.775156793809103 -8.729562865207221 13.75656365543784 -8.805589612497544 13.767944508818115 -8.872551377734972 C 13.800047874681058 -8.890029098391437 13.826648764399824 -8.916103010966763 13.844765269134967 -8.947850279750975 C 13.86290162503198 -8.979708704901597 13.87189953690521 -9.015952202345145 13.870769195753851 -9.052593831500829 C 13.855616780497556 -9.19617785379848 13.924894417062367 -9.298208527707684 13.993047201839595 -9.406260467068083 C 14.028242489592714 -9.461328777352286 14.015808441286845 -9.534128124691481 13.964330397380065 -9.574392725435978 L 13.899419832461172 -9.68350334883175 C 13.906499781947737 -9.708051584901993 13.925886933345533 -9.738091744405741 13.91834380959349 -9.756287876263738 C 13.90455553034381 -9.787946925120096 13.883710831642132 -9.816034081568285 13.857403309807252 -9.838402056757463 C 13.83122173250919 -9.860722841982428 13.800247363997894 -9.876708152047469 13.766885824782742 -9.885116489818358 C 13.728971702765898 -9.91621533335748 13.692777942306536 -9.950556396754937 13.652746452218944 -9.977751342913617 C 13.590138794873281 -10.011333498381873 13.541725578976854 -10.066347448711536 13.516374714912276 -10.132716218591542 C 13.524513348434219 -10.138737484042734 13.538540911902931 -10.143633897706339 13.540195105708204 -10.151309356962804 C 13.590482597388487 -10.408900416319833 13.590482597388487 -10.408900416319833 13.508236081390338 -10.617924345554062 C 13.489312104258023 -10.665366623889277 13.473101004966352 -10.71340441199439 13.454177027834033 -10.760912858081817 C 13.546811880929294 -10.85315070466381 13.529872936363303 -10.960077792236621 13.49579654397469 -11.069254583384605 C 13.486599226417372 -11.098169891100767 13.460132125533015 -11.129798076657577 13.466616565249682 -11.153287628692446 C 13.497980079797648 -11.265772807450974 13.537482227867555 -11.37653762465202 13.574800840114502 -11.49735994018912 L 13.32210619442108 -11.626188553743741 C 13.165188524809182 -11.695081230852708 13.000646832236713 -11.745101194631488 12.83193548604274 -11.775198331722684 C 12.761470825888402 -11.835443762375213 12.66532579441653 -11.855982253044374 12.576395627004247 -11.829786727296677 L 12.265407191613026 -11.829786727296677 C 12.153385187119973 -11.833028947155011 12.033290716857191 -11.865781984499407 11.932120223726727 -11.834683140960284 C 11.753004118491823 -11.780094745386291 11.570116451380898 -11.789953740465716 11.391066513898206 -11.76156777476724 C 11.271066726758402 -11.771223788432817 11.15029626622543 -11.762567047496775 11.032900471180609 -11.735894686909411 C 10.908968271289599 -11.711875792856855 10.775375579575792 -11.735894686909411 10.646546966021171 -11.713529986662127 C 10.630865208747188 -11.724977007794614 10.614124767437831 -11.747341708041898 10.598972352181537 -11.746613862767576 C 10.468533566095221 -11.751705575219523 10.343996722954273 -11.692049728107465 10.266214726312926 -11.587215747691522 C 10.247102366842498 -11.59049882979243 10.227679881621079 -11.591608686090797 10.208317943128387 -11.590524135302067 C 10.16504423318246 -11.645112530876059 10.122829207271907 -11.600316962629279 10.080084839343668 -11.590524135302067 C 9.917775343170334 -11.590524135302067 9.755465846996998 -11.586686405673834 9.589384788947642 -11.5834441858155 C 9.507345528996689 -11.592683501440094 9.424876905209025 -11.57022003302032 9.35885634024487 -11.520650988967358 C 9.326635532876335 -11.49444456648128 9.282202831023584 -11.489138400346981 9.24471696768107 -11.507020432011911 C 9.13653269281625 -11.547912102878247 9.054286176818103 -11.489022803410547 8.957945929599035 -11.449189816579587 C 8.861605682379967 -11.409356829748624 8.738268992258849 -11.487368609605275 8.64470779063264 -11.394601421005595 L 8.45692370985811 -11.340013025431603 C 8.343313679311995 -11.38474242592617 8.23023299078357 -11.421333192898798 8.126084948803614 -11.316523473396733 L 8.126084948803614 -11.199538887487865 C 8.126084948803614 -11.193517622036673 8.109873849511944 -11.188091866355379 8.101205873972315 -11.182599942921875 C 7.888542718366487 -11.349607349502183 7.888542718366487 -11.349607349502183 7.708367929096211 -11.272124911663221 C 7.574522784934655 -11.277451003145297 7.440795208559889 -11.2589679657003 7.313412616149355 -11.217536516089229 C 7.176071754739601 -11.185118959306157 7.0368520960669185 -11.161252732105126 6.896555777220695 -11.146075343701458 L 6.381969168276531 -11.057675226747698 C 6.230047476105029 -11.04099701505344 6.079076620142546 -11.016571361645818 5.929646414162812 -10.98449369280244 C 5.852189810408868 -10.959682696218158 5.771319731437956 -10.947179315703606 5.689986815654951 -10.947439751564339 C 5.445496971235676 -10.959813121227779 5.230187105541411 -10.868700126433371 5.0200383245195965 -10.7589939932677 C 4.892930072522459 -10.7589939932677 4.762513432914777 -10.69348791857891 4.641294110864411 -10.77884431893097 C 4.536352055857925 -10.757008960701373 4.419499805453478 -10.782682048559202 4.32911465593339 -10.70083253907432 C 4.3115455518765575 -10.700029426895139 4.294204892887628 -10.696525587176655 4.277702312465521 -10.69044420197721 L 4.150792563725018 -10.69044420197721 C 4.0996060699320624 -10.697259320775522 4.047742027114366 -10.697259320775522 3.9965555333214113 -10.69044420197721 C 3.843972696723079 -10.651140557163934 3.6952275897529785 -10.673505257411218 3.542115411136958 -10.68382742675612 C 3.409090627916929 -10.695159368805589 3.2777236902068294 -10.721144281653313 3.1504023180484357 -10.761309864595082 C 3.0920598983746146 -10.781300526739855 3.032607701633368 -10.797892351248468 2.9723448968489112 -10.811001846505466 C 2.9471509414240233 -10.81749793833754 2.9205330486947094 -10.815687828805817 2.8964504850630073 -10.805840761833016 C 2.8722565745152933 -10.795984712319425 2.85183607679957 -10.778670169988386 2.838156695365205 -10.756413450931475 C 2.7840976418089007 -10.734578092701879 2.7770176923223344 -10.683628923499485 2.7678203747650194 -10.63526029663332 C 2.719855066699045 -10.624990583497128 2.6738394752579566 -10.607120450898648 2.6315148052105677 -10.5823260948646 C 2.5205750487640324 -10.489117689220144 2.4578887130858975 -10.350628583496439 2.4610666755152923 -10.205765417032374 C 2.4677291140918616 -10.094609680771589 2.4519779382101046 -9.98324886728756 2.4147492489676634 -9.878301211340636 C 2.4008888363167116 -9.818763339895956 2.395256246780263 -9.757606330185979 2.3980088076583055 -9.696538396017296 C 2.253123746280558 -9.62022143695888 2.090977099468399 -9.582636418601663 1.9272914184299705 -9.587427772621524 C 1.8875228133653636 -9.589682603933104 1.8476342733597408 -9.58636412684721 1.8087849742202513 -9.5775687775421 C 1.6911387107892732 -9.545345082215393 1.5742864603848261 -9.507563295702969 1.4390395748657485 -9.465943779562313 C 1.402250304636489 -9.430477864377272 1.358976594690561 -9.356833156166541 1.297308249630003 -9.335527139954632 C 1.1527978788013997 -9.286563003318566 1.1035690711564912 -9.16322631319745 1.0235060909813036 -9.055174373837053 C 1.0489145078302888 -8.988543447360678 1.0711468725731508 -8.931837683715939 1.0927837275461147 -8.8745364103013 L 1.0927837275461147 -8.810883032674415 C 1.0828606996222319 -8.760194680316017 1.1069674176400066 -8.708927726664882 1.1523347045359236 -8.684237954942754 C 1.1593499657498483 -8.664820027973228 1.1689896124917327 -8.64645349549735 1.1809853412432427 -8.629649559368762 C 1.343952486258953 -8.469123435559505 1.4507093008097511 -8.26025140709055 1.4853570014133775 -8.034139789470672 C 1.4853570014133775 -8.017200844904682 1.5102360762446758 -8.00304094593155 1.523204955678012 -7.987822362923043 L 1.5275720273239313 -7.866073698854989 C 1.5069938563863419 -7.802817327741369 1.4858863434310647 -7.73949478887554 1.4653081724934753 -7.676172250009709 C 1.4247473403881945 -7.54959334003026 1.37657721677866 -7.4251317981215585 1.345743044248381 -7.29411964874398 C 1.31619103031821 -7.203855992623179 1.3335602835434694 -7.104801622801418 1.39206047079601 -7.029977981918069 C 1.4440294702175573 -6.964760656517683 1.4726795020348051 -6.884028127835909 1.4734468060154162 -6.800640552755095 C 1.4734468060154162 -6.774967464897266 1.5065306821208653 -6.752073422632295 1.5238004654479105 -6.727856025323106 C 1.5221433897631496 -6.708040282213689 1.5221433897631496 -6.688120791442714 1.5238004654479105 -6.668305048333297 C 1.5035966041229907 -6.6543585708520325 1.4881667762394062 -6.634540019468625 1.4796004069710293 -6.611533116936346 C 1.4709964510813043 -6.588473426096333 1.4696117870314214 -6.56334177359096 1.4756303418383756 -6.539476434778677 L 1.4247473403881945 -6.430365811382905 C 1.5014959041844782 -6.285057363982415 1.6000361191347943 -6.152353863459423 1.7169441341515221 -6.036866188984691 C 1.7915813586454177 -5.894936360492311 1.9117419966604103 -5.777091593804699 1.9149842165187443 -5.600159024392756 C 1.9149842165187443 -5.553246088075229 1.9858498791366168 -5.507921177810762 2.023168491383564 -5.462133093280821 C 2.0415631264981937 -5.437518689458367 2.0550613479492172 -5.402582116291011 2.077293712692079 -5.390076411123153 C 2.1674037778626096 -5.337959232272075 2.238067786837946 -5.257887293107714 2.2785760149176335 -5.161996169252185 L 2.1822357676985646 -5.094835900758122 L 2.090262592125415 -5.027146290246372 C 2.053446498845028 -4.9758688327676595 1.9895304565964653 -4.951584384591686 1.9279530959520805 -4.965477945185814 C 1.845880594144313 -4.967568039386323 1.765794595972387 -4.940066366700304 1.7023210609129151 -4.887995507346851 C 1.6305072576763204 -4.832266194628189 1.5630416506952445 -4.771148990664677 1.5005094166696717 -4.705174007988137 C 1.4803735612194973 -4.670698386877264 1.4669056307204178 -4.632741269420691 1.4608087653431343 -4.593284338999507 C 1.3942440066189699 -4.587263073548316 1.3184819303374904 -4.604202018114306 1.2790459500197953 -4.525065386470069 C 1.2449033898789712 -4.4366652695163085 1.2579384370645186 -4.378834654083984 1.3368765654521204 -4.273627928068653 C 1.3591089301949824 -4.212488925025783 1.381275127185634 -4.151349921982913 1.4039706661939721 -4.089681576922356 C 1.4580958875024872 -3.9908931228714835 1.595857147605579 -4.023116818198191 1.654481776064435 -3.925982557952591 C 1.713106404523292 -3.8288482977069913 1.839751482254952 -3.850683655936588 1.95223666101348 -3.7955659183449093 C 1.9408558076332056 -3.631800731622935 2.0669053755949682 -3.5815794076948624 2.1978513572203373 -3.5357913231649203 C 2.2519765785288524 -3.516668842775969 2.3060356320851567 -3.578337187836528 2.2971029855366853 -3.6492690182066125 C 2.2922040626658076 -3.6694514066773802 2.2851266907906687 -3.689041749516714 2.275995472581408 -3.707695143408835 C 2.3800321436817935 -3.8190509830884407 2.44744036275641 -3.9596175570888494 2.469139141285022 -4.110458251116576 C 2.4739693871964183 -4.145394824283931 2.5069870955496567 -4.177023009840742 2.526506582451872 -4.210305389202824 C 2.548672779442523 -4.1911829088138735 2.5686554406102147 -4.155716993628831 2.592674334662771 -4.155716993628831 C 2.7474407070840634 -4.133881635399235 2.785884171118596 -4.033505155295301 2.775562001773695 -3.8959423984488417 L 2.4703963285770296 -3.677588816152876 C 2.5359024032658195 -3.6186333489329643 2.586189894946103 -3.5733746064207104 2.6327058247503645 -3.5297038899615174 C 2.684432691370154 -3.5678851172862505 2.73868159781702 -3.6025257189171542 2.795081488675911 -3.633388757675996 C 2.861249240886809 -3.6634289171797425 2.924902618513694 -3.5624569273059112 3.001723378830548 -3.624125272366469 C 3.0083401540516377 -3.648673508436713 3.0163464520691567 -3.6786475001882497 3.023889575821199 -3.7070334658867266 C 3.0689101909269203 -3.7269493651179397 3.1158762145608208 -3.74213903753967 3.1640328750038833 -3.7523583761511903 C 3.20949012077277 -3.757254789814798 3.2581895863999923 -3.6977699805772 3.302521980381295 -3.7430948908416655 C 3.35664720168981 -3.7976832864156584 3.317145053619903 -3.852205514237439 3.302521980381295 -3.911690323475036 C 3.2985523270809134 -3.9399375045053002 3.2985523270809134 -3.968601039540199 3.302521980381295 -3.996848220570463 L 3.395620007742029 -4.020337772605333 C 3.4259248382546206 -3.9166529048908556 3.4259248382546206 -3.9166529048908556 3.491894087208887 -3.9607867956155243 L 3.586050798604996 -4.022455140676081 C 3.5852220640976693 -3.9923752617645683 3.5799373339879117 -3.9625845468842478 3.5703690413310136 -3.9340550237223217 C 3.5323682698638605 -3.8734014996339177 3.5311197597065713 -3.7966818244584823 3.5671268214726792 -3.7348239218153045 C 3.5772322804185377 -3.7064500968316043 3.5823585089890013 -3.676543365957631 3.582279236728975 -3.646423804861545 C 3.5572938878992884 -3.6477477677675045 3.5323106450422554 -3.643779310418375 3.508965367279299 -3.6347782804724256 C 3.485580383255366 -3.6257356227868662 3.4643480822976294 -3.611896309848384 3.4466353446966322 -3.594151280614933 C 3.410575590031569 -3.5580939798080067 3.391361567654453 -3.5085218020750473 3.393701142927913 -3.457581040051638 C 3.30880791684133 -3.424828002707242 3.2221943291972637 -3.3947878432034937 3.1383597871460545 -3.357733901965392 C 3.0545252450948457 -3.320679960727288 2.939856530513358 -3.3325901561252502 2.8889073613109657 -3.225398397543594 C 2.937606826938187 -3.201908845508725 2.9971578039279962 -3.19046182437624 3.025279098617628 -3.1549959091911974 C 3.0635470897451746 -3.0989193718523893 3.0953132385056437 -3.038672462183688 3.1199651520314253 -2.9754166296908187 C 3.172568084682969 -2.983791703729481 3.2261648246860375 -2.983791703729481 3.278767757337582 -2.9754166296908187 C 3.35758528516632 -2.943846959845281 3.4477519140407082 -2.9657707643903377 3.503274940589162 -3.030005025264809 C 3.5514450641986963 -3.07420508374169 3.5990858457905435 -3.0332472451231443 3.64666045963018 -3.020741539955284 L 3.886386225890266 -2.959073194894727 C 3.9647950122601814 -3.0053906214423565 4.042211282346933 -3.053428409547468 4.121149410734536 -3.0980254745376152 C 4.164022542757915 -3.12863844490008 4.219771513945705 -3.134634846391476 4.268174156147152 -3.1138395673160186 C 4.433196530161134 -3.035232277689472 4.538734094937518 -3.1138395673160195 4.620980610935665 -3.251931666180165 C 4.62581085684706 -3.2600702997021056 4.6377210522450225 -3.263908029330339 4.64638902778465 -3.2693337850116313 C 4.668586339451829 -3.256316178053085 4.6862543858083425 -3.236800492861902 4.697007358225989 -3.2134220343934228 C 4.707844383137203 -3.18999514309313 4.711327897052386 -3.1638341842863973 4.7069986888098345 -3.138387803386264 C 4.702102275146228 -3.0805571879539393 4.69561783542956 -3.0226604047694012 4.6901920797482655 -2.96813817694762 C 4.804397620064277 -2.9053449800994775 4.91205255291141 -2.851352094295385 5.021891021581502 -2.873121284772769 C 5.1901556154538175 -2.906205160878219 5.352729782635995 -2.967542667177722 5.518546169676508 -3.016705307070419 C 5.525535964851281 -2.958409060394951 5.517918651545563 -2.8992896138431092 5.496379972685858 -2.8446691513220825 C 5.47502709458615 -2.7899020852256697 5.440235231198528 -2.7413891664928967 5.395209479555392 -2.7035995036084453 C 5.281003939239381 -2.6109646505131883 5.124649540765027 -2.628829943610133 4.999658656838639 -2.564978062726614 C 4.989931997263637 -2.4885543089230255 4.980734679706321 -2.4194090078626376 4.971537362149007 -2.3466244804306466 C 5.004443889038783 -2.3190424488718753 5.040758635087991 -2.295803679967147 5.0795893015094045 -2.277479179370257 C 5.117480946919729 -2.2613713668009847 5.160105488287148 -2.2604004744698383 5.198691255489023 -2.2747663015296125 C 5.33175460518514 -2.358270004819767 5.455091295306255 -2.286213322662098 5.581736373037916 -2.262723770627229 C 5.589379863193671 -2.163980267356955 5.638289220832582 -2.0730319235352876 5.716453916539306 -2.0122126607567665 L 5.949099733312828 -2.0122126607567665 C 6.103270595964222 -2.016050390384999 6.25261121270422 -2.0089704408984304 6.391166485833843 -1.9232832017853188 C 6.483294877070625 -1.8761048358551538 6.591239868128948 -1.870731681166312 6.687598015738669 -1.9085277930422873 C 6.754692116480522 -1.928378118705556 6.825623946850605 -1.9363844167230742 6.894835415663206 -1.949485631660833 C 6.924081562140422 -1.959278458988047 6.957628612511349 -1.9832973530406015 6.982507687342648 -1.9759527325451938 C 7.086920400331445 -1.9464419150591326 7.18001842769218 -1.9797904621734244 7.281188920822645 -2.0005009686154374 C 7.421266052253118 -2.0294162763316006 7.555983595754508 -2.0997525969317845 7.7059197222644045 -2.0732854960474256 C 7.736224552776996 -2.0187632682256442 7.752237148812034 -1.9570287554128765 7.814103997129224 -1.9254005698560661 L 8.060314203105978 -1.9729090159434914 C 8.064515270381731 -2.031320897609671 8.086289868235152 -2.0870952382977723 8.122776561193069 -2.1329026407894442 C 8.159074168257714 -2.1785300164233474 8.208425632657478 -2.212000373476508 8.26424321541997 -2.228845881495247 C 8.375735877895334 -2.266495332503248 8.45414466426525 -2.4018745535267483 8.595081976474464 -2.344573280112109 C 8.673490762844379 -2.3990955079338905 8.687716829569723 -2.515352248568438 8.798481646770767 -2.5364597615237168 C 8.81721802414802 -2.5152752792618784 8.83889976636878 -2.4968914793316346 8.862862869671972 -2.4818713659497247 C 8.971113312289003 -2.4272829703757353 9.039795439083916 -2.454610252038834 9.079297587153821 -2.5643163852045054 C 9.089024246728824 -2.593761034938355 9.086311368888175 -2.6330646797516284 9.104706004002807 -2.652120992388369 C 9.13604247261062 -2.676799314968844 9.170646177573339 -2.697018210790044 9.207530690938544 -2.7122013113958623 C 9.280315218370532 -2.732382475820188 9.354687771855584 -2.749850762403864 9.423965408420395 -2.7743989984741084 C 9.457586277237487 -2.789425036192033 9.489654325391642 -2.8077084776068064 9.519710145869565 -2.8289873940481005 C 9.627228666395837 -2.819286185362567 9.735155968617129 -2.84250082424104 9.829176722959936 -2.895552152772262 C 10.015835951946885 -2.8846344736574663 10.187342765677535 -2.9501405483462557 10.35997443119577 -3.004728943920248 C 10.394552007802329 -3.0142876985133107 10.42662065884446 -3.0312931169884685 10.453932639335243 -3.0545532613350534 C 10.481309963379214 -3.077907407792255 10.503335988442856 -3.106884268634176 10.518512365493084 -3.1395126551738475 C 10.537965684643087 -3.142754875032181 10.558213016819622 -3.14493841085514 10.578526516748369 -3.1465926046604134 C 10.710862021170167 -3.1236985623954414 10.828508284601144 -3.19132200515498 10.954028510545221 -3.209915143526243 C 11.122326666974976 -3.1964959725412925 11.291586012787981 -3.2178476504961466 11.451279168410123 -3.2726421726221764 L 11.637409055379383 -3.2726421726221764 C 11.774490336925256 -3.2582669110081905 11.90752476984774 -3.3244360048013863 11.97876848903541 -3.442428624795344 C 12.021346007340817 -3.493465310316277 12.06983357327081 -3.539265292426971 12.123212692111803 -3.578866529854217 L 12.247144892002815 -3.3538961723371603 C 12.26785670961522 -3.3476815819312495 12.289372822045127 -3.344560073392195 12.31099677288633 -3.3446326870276355 C 12.445184974370033 -3.3659387032395447 12.489649703855758 -3.5138236294309033 12.608023812561058 -3.5531272742441775 C 12.68851599294906 -3.565193643705981 12.768332136246975 -3.581404227319889 12.847154069051248 -3.601694404366979 C 12.916961047633743 -3.618633348932967 12.986106348694133 -3.6371603195520192 13.055450153011154 -3.6562827999409677 C 13.138832876094815 -3.667199329081771 13.212206733043454 -3.7167444560090006 13.253490235378376 -3.7900078271591937 C 13.236749794069018 -3.8789372861306433 13.215112939096052 -3.968660758128623 13.203732085715778 -4.062883637276943 C 13.187431205952876 -4.126155926141802 13.214466041316658 -4.192641197205411 13.270296844439942 -4.2265826562467055 C 13.305431920863931 -4.243521600812696 13.35843229038486 -4.251130892316949 13.37252602160578 -4.278458173980051 C 13.402594253656899 -4.3490986414265596 13.426675747695343 -4.422139937682867 13.444516536011237 -4.496811756276019 L 13.22808181852939 -4.676920377794083 L 13.332494531518188 -4.786031001189857 C 13.351947850668193 -4.789868730818088 13.386619752826702 -4.786031001189857 13.38933263066735 -4.799264551632036 C 13.43419436666634 -4.919888363912504 13.474821366523832 -5.041570860228348 13.516970224682176 -5.163848866314089 C 13.551749246000616 -5.145796592735934 13.58795491900787 -5.130637126959668 13.625220667299208 -5.118523956049623 C 13.709055209350412 -5.097813449607613 13.755041797136988 -5.138374281712894 13.758284016995324 -5.227700747197607 C 13.763764865333977 -5.277863054101639 13.7434058951213 -5.32737746513296 13.704224963439017 -5.359176070840662 C 13.704224963439017 -5.510898726660254 13.704224963439017 -5.510898726660254 13.821606555861152 -5.547489493632881 L 14.055906566439946 -5.529491865031516 C 14.083810933018832 -5.59959650933819 14.107822278178213 -5.671188753737047 14.12783091309319 -5.743941549947042 C 14.130715873387029 -5.75753095837464 14.130715873387029 -5.771574651146828 14.12783091309319 -5.78516405957443 C 14.124975799965378 -5.798730294097625 14.11936831656469 -5.811566701882334 14.111355142792677 -5.822879678334642 C 14.103290141727252 -5.8341091194783115 14.092968020759805 -5.843529745164757 14.081050312280087 -5.850537798758798 C 14.069399153441026 -5.857701427368169 14.056366480077223 -5.862323742315539 14.04280535150219 -5.8641021879620325 Z" fill="#ffffff" transform="matrix(1,0,0,1,0,0)" fill-rule="nonzero"></path><path d=" M 14.186190870543209 -5.331385614912086 C 14.174086244015653 -5.333761077400247 14.161601781988312 -5.333376592156651 14.149666271322795 -5.3302607631245 C 14.125427955875471 -5.32385166839796 14.105387189276895 -5.306826745316643 14.09514404350101 -5.283943336576871 C 14.089991602236072 -5.272633683020745 14.087458392016572 -5.26030690114906 14.087733255253392 -5.24788191162193 C 14.085329616090574 -5.227683851010219 14.091318520759085 -5.207384194971575 14.104300834033241 -5.191725373951107 C 14.117283147307399 -5.1760665529306396 14.136121691191931 -5.166420192024769 14.156415382048305 -5.165039885853887 C 14.18095130624112 -5.160101462790753 14.206400840714503 -5.166603879732756 14.225560683108693 -5.182706675694195 C 14.24479104402477 -5.198904707425744 14.255743262036235 -5.2228733087058234 14.25540233935581 -5.248014247126353 C 14.256809150985582 -5.268220097363764 14.250388535706158 -5.288192712421155 14.237470878506656 -5.303793662240141 C 14.224601862772287 -5.31929225112488 14.206215279687619 -5.329185419055597 14.18619087054321 -5.331385614912086 Z" fill="#ffffff" transform="matrix(1,0,0,1,0,0)" fill-rule="nonzero"></path><path d=" M 14.136895895146088 -6.178465178716014 C 14.145563870685717 -6.178465178716014 14.163958505800347 -6.20843917046755 14.160716285942012 -6.216643971741702 C 14.15533883482484 -6.236074439516591 14.142653818630267 -6.2526716569674345 14.125316538509182 -6.262961398289331 C 14.108121033270818 -6.2731368248745465 14.087633172179737 -6.276199320912495 14.068213768351177 -6.271497038324537 C 14.062258670652195 -6.263821579068074 14.050348475254234 -6.254558093758547 14.051936501307294 -6.248536828307357 C 14.054756479068912 -6.228295611447156 14.06507641659319 -6.209851970242443 14.080851809023457 -6.196859813830644 C 14.096508108195035 -6.18381333055484 14.11655345477069 -6.177234102280895 14.136895895146088 -6.178465178716014 Z" fill="#ffffff" transform="matrix(1,0,0,1,0,0)" fill-rule="nonzero"></path><path d=" M 4.802262194517291 -9.619509587777799 L 5.647001186945985 -9.619509587777799 C 5.771670045879482 -9.619509587777799 5.900637830983099 -9.615210661607678 6.0339045422568365 -9.606612809267435 C 6.167171253530575 -9.598014956927194 6.297213770176722 -9.579744520704182 6.424032092195279 -9.5518015005984 C 6.550850414213837 -9.523858480492615 6.671220346977212 -9.482481316105204 6.7851418904854075 -9.427670007436166 C 6.899063433993604 -9.37285869876713 6.998476101677642 -9.299239588103816 7.083379893537523 -9.206812675446223 C 7.168283685397404 -9.114385762788629 7.235991772576804 -8.99992685350917 7.28650415507572 -8.863435947607842 C 7.3370165375746375 -8.726945041706514 7.362272728824095 -8.563048481470666 7.362272728824095 -8.3717462669003 L 7.362272728824095 -8.104138112810295 C 7.362272728824095 -7.957974623026195 7.341315463744758 -7.823633180209927 7.299400933586082 -7.701113784361491 C 7.257486403427406 -7.578594388513054 7.202137728987104 -7.470583868488775 7.133354910265174 -7.377082224288651 C 7.064572091543245 -7.283580580088529 6.986116688938544 -7.206199909026359 6.897988702451073 -7.14494021110214 C 6.809860715963601 -7.083680513177923 6.719583266391069 -7.042303348790512 6.627156353733477 -7.020808717939909 L 6.627156353733477 -6.995015160919186 C 6.900138165536133 -6.945577509962799 7.105949255930656 -6.816072359087917 7.244589624917045 -6.606499708294539 C 7.383229993903433 -6.39692705750116 7.452550178396628 -6.128781537639889 7.452550178396628 -5.802063148710725 L 7.452550178396628 -5.521558216110358 C 7.452550178396628 -5.3216581491997506 7.43051818177476 -5.1480890050811325 7.386454188531024 -5.000850783754503 C 7.342390195287288 -4.853612562427873 7.280593131591804 -4.727868971951846 7.2010629974445735 -4.6236200123264215 C 7.121532863297343 -4.519371052700998 7.02695648755469 -4.433929895069851 6.917333870216615 -4.367296539432982 C 6.807711252878541 -4.300663183796114 6.687341320115165 -4.248538703983401 6.556224071926487 -4.210923099994846 C 6.42510682373781 -4.1733074960062915 6.285391723208891 -4.1475139389855675 6.1370787703397305 -4.133542428932676 C 5.98876581747057 -4.119570918879784 5.83615393843129 -4.112585163853338 5.679243133221889 -4.112585163853338 L 4.802262194517291 -4.112585163853338 L 4.802262194517291 -9.619509587777799 M 5.782417361304783 -7.262623315009192 C 5.894189441727918 -7.262623315009192 5.9962889382682825 -7.2760574592908185 6.088715850925874 -7.302925747854072 C 6.181142763583466 -7.329794036417326 6.260135531959432 -7.371708566576001 6.325694156053771 -7.428669338330099 C 6.391252780148109 -7.485630110084196 6.441765162647027 -7.5597865865187766 6.477231303550521 -7.651138767633839 C 6.512697444454016 -7.742490948748901 6.530430514905763 -7.852650931858241 6.530430514905763 -7.981618716961858 L 6.530430514905763 -8.20731234089319 C 6.530430514905763 -8.336280125996804 6.517533736395402 -8.450201669505 6.491740179374679 -8.549076971417774 C 6.465946622353955 -8.647952273330548 6.423494726424014 -8.731781333647898 6.364384491584856 -8.800564152369828 C 6.305274256745698 -8.869346971091758 6.227893585683528 -8.92147145090447 6.132242478398345 -8.956937591807964 C 6.036591371113162 -8.992403732711459 5.919982998748642 -9.010136803163206 5.782417361304783 -9.010136803163206 L 5.621207629925261 -9.010136803163206 L 5.621207629925261 -7.262623315009192 L 5.782417361304783 -7.262623315009192 M 5.859798032366953 -4.692940196819616 C 5.971570112790088 -4.692940196819616 6.073132243559187 -4.707449072643773 6.164484424674249 -4.736466824292087 C 6.2558366057893116 -4.765484575940401 6.334292008394012 -4.810623300726667 6.39985063248835 -4.871882998650885 C 6.46540925658269 -4.9331426965751035 6.515921639081607 -5.011060733408539 6.5513877799851015 -5.105637109151192 C 6.586853920888596 -5.200213484893844 6.604586991340343 -5.311985565316979 6.604586991340343 -5.440953350420597 L 6.604586991340343 -5.869771235890124 C 6.604586991340343 -5.9987390209937415 6.591690212829982 -6.113197930273202 6.565896655809258 -6.213147963728506 C 6.540103098788535 -6.313097997183808 6.497651202858594 -6.39692705750116 6.438540968019437 -6.464635144680559 C 6.379430733180278 -6.532343231859958 6.302587427889373 -6.583930345901406 6.20801105214672 -6.6193964868049004 C 6.113434676404068 -6.654862627708395 5.997363669810812 -6.672595698160142 5.859798032366953 -6.672595698160142 L 5.621207629925261 -6.672595698160142 L 5.621207629925261 -4.692940196819616 L 5.859798032366953 -4.692940196819616" fill="NA" transform="matrix(1,0,0,1,0,0)" fill-rule="nonzero"></path><path d=" M 8.177993969604476 -9.619509587777799 L 9.013060378150398 -9.619509587777799 L 9.013060378150398 -7.2142603955953355 L 9.03885393517112 -7.2142603955953355 L 9.99321554493789 -9.619509587777799 L 10.825057758856222 -9.619509587777799 L 9.761073531751379 -7.036929691077861 L 10.944352960077067 -4.112585163853338 L 10.051251048234517 -4.112585163853338 L 9.03885393517112 -6.73385539608436 L 9.013060378150398 -6.73385539608436 L 9.013060378150398 -4.112585163853338 L 8.177993969604476 -4.112585163853338 L 8.177993969604476 -9.619509587777799" fill="NA" transform="matrix(1,0,0,1,0,0)" fill-rule="nonzero"></path></mask></defs></svg>