<svg xmlns="http://www.w3.org/2000/svg" version="1.1" xmlns:xlink="http://www.w3.org/1999/xlink" xmlns:svgjs="http://svgjs.dev/svgjs" viewBox="0 0 27.44710689927852 6.240591811387899"><g transform="matrix(1,0,0,1,5.610429144772383,2.0014814856939496)"><g><path d=" M 0.0285 1.0320000000000003 Q 0.0285 1.0215 0.0405 1.0155 Q 0.0525 1.0095 0.078 1.0050000000000001 Q 0.138 0.9945000000000002 0.1665 0.9690000000000001 Q 0.195 0.9435000000000001 0.195 0.8925000000000002 L 0.195 0.21750000000000014 Q 0.195 0.1635000000000001 0.17175 0.13800000000000012 Q 0.1485 0.11250000000000016 0.0945 0.1080000000000001 Q 0.07050000000000001 0.10650000000000015 0.05775 0.09750000000000014 Q 0.045 0.08850000000000013 0.045 0.07800000000000018 Q 0.045 0.06150000000000011 0.0885 0.06150000000000011 Q 0.156 0.06150000000000011 0.1785 0.06300000000000017 L 0.2445 0.06300000000000017 Q 0.267 0.06300000000000017 0.309 0.060000000000000164 Q 0.3855 0.055500000000000105 0.41100000000000003 0.055500000000000105 Q 0.591 0.055500000000000105 0.675 0.10725000000000018 Q 0.759 0.15900000000000014 0.759 0.27900000000000014 Q 0.759 0.3255000000000001 0.74325 0.36450000000000016 Q 0.7275 0.4035000000000001 0.708 0.42300000000000015 Q 0.684 0.4470000000000002 0.6637500000000001 0.4597500000000001 Q 0.6435 0.47250000000000014 0.6075 0.48750000000000016 Q 0.6015 0.49050000000000016 0.6015 0.49575000000000014 Q 0.6015 0.5010000000000001 0.6075 0.5025000000000002 Q 0.6705 0.5235000000000002 0.71325 0.5475000000000001 Q 0.756 0.5715000000000001 0.78825 0.6202500000000002 Q 0.8205 0.6690000000000002 0.8205 0.7500000000000002 Q 0.8205 0.8265000000000001 0.7965 0.8752500000000001 Q 0.7725 0.9240000000000002 0.74025 0.9487500000000002 Q 0.708 0.9735000000000001 0.6645 0.9960000000000001 Q 0.5625 1.0470000000000002 0.40950000000000003 1.0470000000000002 L 0.3645 1.0455 Q 0.324 1.0410000000000001 0.267 1.0410000000000001 Q 0.2295 1.0410000000000001 0.17550000000000002 1.044 Q 0.1335 1.0485000000000002 0.07200000000000001 1.0485000000000002 Q 0.0285 1.0485000000000002 0.0285 1.0320000000000003 M 0.5625 0.44100000000000017 Q 0.5865 0.4275000000000001 0.60825 0.3915000000000002 Q 0.63 0.35550000000000015 0.63 0.2985000000000001 Q 0.63 0.21750000000000014 0.58275 0.15900000000000014 Q 0.5355 0.10050000000000014 0.41100000000000003 0.10050000000000014 Q 0.3525 0.10050000000000014 0.33225 0.11625000000000008 Q 0.312 0.13200000000000012 0.312 0.16800000000000015 L 0.312 0.42900000000000016 Q 0.312 0.48450000000000015 0.381 0.48450000000000015 Q 0.4845 0.48450000000000015 0.5625 0.44100000000000017 M 0.5535 0.9555000000000001 Q 0.6105 0.9255000000000001 0.645 0.8730000000000001 Q 0.6795 0.8205000000000001 0.6795 0.7575000000000001 Q 0.6795 0.6810000000000002 0.64575 0.6345000000000001 Q 0.612 0.5880000000000001 0.5685 0.5640000000000001 Q 0.501 0.5265000000000002 0.3975 0.5265000000000002 Q 0.354 0.5265000000000002 0.333 0.5437500000000002 Q 0.312 0.5610000000000002 0.312 0.5805000000000001 L 0.312 0.8790000000000001 Q 0.312 0.9390000000000002 0.3405 0.9622500000000002 Q 0.369 0.9855000000000002 0.4305 0.9855000000000002 Q 0.4965 0.9855000000000002 0.5535 0.9555000000000001 M 1.767787646484375 1.0545000000000002 Q 1.717537646484375 1.0365000000000002 1.680037646484375 0.9915000000000002 Q 1.611037646484375 0.9060000000000001 1.566037646484375 0.8452500000000002 Q 1.521037646484375 0.7845000000000002 1.4520376464843747 0.6720000000000002 Q 1.4295376464843748 0.6345000000000001 1.387537646484375 0.6135000000000002 Q 1.3380376464843748 0.5895000000000001 1.269037646484375 0.5820000000000001 L 1.2660376464843748 0.5820000000000001 Q 1.246537646484375 0.5820000000000001 1.246537646484375 0.6120000000000001 L 1.246537646484375 0.8760000000000001 Q 1.246537646484375 0.9870000000000001 1.347037646484375 1.0050000000000001 Q 1.3725376464843748 1.0095 1.3845376464843748 1.0155 Q 1.3965376464843748 1.0215 1.3965376464843748 1.0320000000000003 Q 1.3965376464843748 1.0485000000000002 1.353037646484375 1.0485000000000002 Q 1.305037646484375 1.0485000000000002 1.2660376464843748 1.0425000000000002 Q 1.2390376464843749 1.0380000000000003 1.206037646484375 1.0380000000000003 Q 1.1790376464843748 1.0380000000000003 1.1512876464843749 1.0402500000000001 Q 1.123537646484375 1.0425000000000002 1.111537646484375 1.0425000000000002 Q 1.0515376464843749 1.0485000000000002 1.0110376464843749 1.0485000000000002 Q 0.9675376464843749 1.0485000000000002 0.9675376464843749 1.0320000000000003 Q 0.9675376464843749 1.0215 0.9795376464843749 1.0155 Q 0.9915376464843748 1.0095 1.017037646484375 1.0050000000000001 Q 1.0755376464843749 0.9945000000000002 1.101037646484375 0.9697500000000001 Q 1.1265376464843748 0.9450000000000002 1.1265376464843748 0.8910000000000001 L 1.1265376464843748 0.2520000000000001 Q 1.1265376464843748 0.18900000000000017 1.1212876464843748 0.16275000000000017 Q 1.1160376464843749 0.13650000000000018 1.0972876464843748 0.12450000000000017 Q 1.0785376464843748 0.11250000000000016 1.035037646484375 0.1080000000000001 Q 1.0110376464843749 0.10650000000000015 0.9982876464843748 0.09750000000000014 Q 0.9855376464843749 0.08850000000000013 0.9855376464843749 0.07800000000000018 Q 0.9855376464843749 0.06150000000000011 1.029037646484375 0.06150000000000011 Q 1.093537646484375 0.06150000000000011 1.1130376464843748 0.06300000000000017 L 1.176037646484375 0.06300000000000017 Q 1.1985376464843749 0.06300000000000017 1.2435376464843748 0.060000000000000164 Q 1.3245376464843748 0.055500000000000105 1.3485376464843748 0.055500000000000105 Q 1.5135376464843748 0.055500000000000105 1.599787646484375 0.11775000000000013 Q 1.686037646484375 0.18000000000000016 1.686037646484375 0.3015000000000001 Q 1.686037646484375 0.46350000000000013 1.5090376464843749 0.5535000000000001 Q 1.504537646484375 0.5550000000000002 1.504537646484375 0.5610000000000002 Q 1.504537646484375 0.5655000000000001 1.5090376464843749 0.5730000000000002 Q 1.603537646484375 0.7155000000000001 1.6612876464843749 0.7920000000000001 Q 1.7190376464843748 0.8685000000000002 1.8135376464843749 0.9540000000000002 Q 1.849537646484375 0.9855000000000002 1.8870376464843748 0.9945000000000002 Q 1.9245376464843749 1.0035 1.986037646484375 1.0035 Q 2.008537646484375 1.0035 2.008537646484375 1.0200000000000002 Q 2.008537646484375 1.0485000000000002 1.9687876464843748 1.0605000000000002 Q 1.929037646484375 1.0725000000000002 1.8870376464843748 1.0725000000000002 Q 1.8180376464843748 1.0725000000000002 1.767787646484375 1.0545000000000002 M 1.4437876464843749 0.5167500000000002 Q 1.495537646484375 0.4860000000000001 1.5232876464843748 0.43500000000000016 Q 1.551037646484375 0.3840000000000001 1.551037646484375 0.3255000000000001 Q 1.551037646484375 0.21900000000000008 1.506037646484375 0.15975000000000017 Q 1.4610376464843748 0.10050000000000014 1.330537646484375 0.10050000000000014 Q 1.2840376464843748 0.10050000000000014 1.2682876464843749 0.12975000000000014 Q 1.252537646484375 0.15900000000000014 1.2495376464843748 0.2400000000000001 Q 1.246537646484375 0.3420000000000001 1.246537646484375 0.4950000000000001 Q 1.246537646484375 0.5295000000000001 1.264537646484375 0.5385000000000001 Q 1.282537646484375 0.5475000000000001 1.3260376464843748 0.5475000000000001 Q 1.392037646484375 0.5475000000000001 1.4437876464843749 0.5167500000000002 M 2.12109873046875 1.0432500000000002 Q 2.10909873046875 1.0380000000000003 2.10909873046875 1.0290000000000001 Q 2.10909873046875 1.0095 2.15859873046875 0.9945000000000002 Q 2.20209873046875 0.9810000000000001 2.23359873046875 0.9562500000000002 Q 2.26509873046875 0.9315000000000001 2.28759873046875 0.8790000000000001 Q 2.36709873046875 0.6960000000000002 2.42634873046875 0.5467500000000001 Q 2.48559873046875 0.3975000000000002 2.56809873046875 0.17400000000000015 Q 2.58459873046875 0.12750000000000017 2.58909873046875 0.08700000000000008 Q 2.59359873046875 0.08550000000000013 2.61084873046875 0.08025000000000015 Q 2.62809873046875 0.07500000000000018 2.64309873046875 0.06450000000000011 Q 2.65509873046875 0.055500000000000105 2.66184873046875 0.03750000000000009 Q 2.6685987304687497 0.019500000000000073 2.67159873046875 0.013500000000000068 Q 2.67309873046875 0.012000000000000233 2.67534873046875 0.012750000000000039 Q 2.67759873046875 0.013500000000000068 2.67909873046875 0.015000000000000124 Q 2.6820987304687502 0.022500000000000187 2.68434873046875 0.031500000000000083 Q 2.68659873046875 0.0405000000000002 2.68959873046875 0.048000000000000154 Q 2.80059873046875 0.3975000000000002 2.95659873046875 0.8490000000000002 Q 2.98509873046875 0.9315000000000001 3.0195987304687497 0.9607500000000001 Q 3.05409873046875 0.9900000000000001 3.10809873046875 0.9990000000000001 Q 3.13209873046875 1.0035 3.14484873046875 1.0132500000000002 Q 3.15759873046875 1.0230000000000001 3.15759873046875 1.0335 Q 3.15759873046875 1.0485000000000002 3.1140987304687497 1.0485000000000002 L 3.0330987304687502 1.0455 Q 2.9490987304687497 1.0395 2.90559873046875 1.0395 L 2.74809873046875 1.0410000000000001 Q 2.70459873046875 1.0410000000000001 2.70459873046875 1.0230000000000001 Q 2.70459873046875 1.0140000000000002 2.71884873046875 1.0057500000000001 Q 2.73309873046875 0.9975000000000002 2.75409873046875 0.9945000000000002 Q 2.8455987304687502 0.9795000000000001 2.8455987304687502 0.9270000000000002 Q 2.8455987304687502 0.8790000000000001 2.78709873046875 0.6840000000000002 Q 2.78409873046875 0.6735000000000002 2.7758487304687502 0.6705000000000001 Q 2.76759873046875 0.6675000000000002 2.74659873046875 0.6675000000000002 L 2.46309873046875 0.6675000000000002 Q 2.44659873046875 0.6675000000000002 2.43759873046875 0.6945000000000001 Q 2.42109873046875 0.7425000000000002 2.39859873046875 0.8197500000000002 Q 2.37609873046875 0.8970000000000001 2.37609873046875 0.9105000000000001 Q 2.37609873046875 0.9420000000000002 2.40084873046875 0.9645000000000001 Q 2.42559873046875 0.9870000000000001 2.46309873046875 0.9960000000000001 Q 2.49009873046875 1.0035 2.50134873046875 1.0095 Q 2.51259873046875 1.0155 2.51259873046875 1.0260000000000002 Q 2.51259873046875 1.0425000000000002 2.46909873046875 1.0425000000000002 Q 2.44209873046875 1.0425000000000002 2.42409873046875 1.0410000000000001 L 2.33259873046875 1.0395 Q 2.30709873046875 1.0395 2.27634873046875 1.0417500000000002 Q 2.24559873046875 1.044 2.23059873046875 1.044 Q 2.1885987304687498 1.0485000000000002 2.15259873046875 1.0485000000000002 Q 2.13309873046875 1.0485000000000002 2.12109873046875 1.0432500000000002 M 2.73609873046875 0.6180000000000001 Q 2.74509873046875 0.6180000000000001 2.75109873046875 0.6165000000000002 Q 2.75709873046875 0.6150000000000002 2.75709873046875 0.6105000000000002 L 2.75409873046875 0.5955000000000001 L 2.63709873046875 0.22950000000000015 Q 2.62809873046875 0.20250000000000012 2.62359873046875 0.20250000000000012 Q 2.62059873046875 0.20250000000000012 2.61159873046875 0.2280000000000001 L 2.47509873046875 0.5955000000000001 L 2.47209873046875 0.6075000000000002 Q 2.47209873046875 0.6150000000000002 2.47884873046875 0.6165000000000002 Q 2.48559873046875 0.6180000000000001 2.50359873046875 0.6180000000000001 L 2.73609873046875 0.6180000000000001 M 4.1454486328125 1.0410000000000001 Q 4.1056986328125 1.0155 4.0741986328125 0.9720000000000002 Q 4.0621986328125 0.9540000000000002 3.8994486328124998 0.7620000000000001 Q 3.7366986328125 0.5700000000000001 3.6631986328125 0.48150000000000015 Q 3.5431986328125 0.34050000000000014 3.5221986328125 0.31500000000000017 Q 3.5026986328125 0.29100000000000015 3.4906986328125 0.29100000000000015 Q 3.4831986328125 0.29100000000000015 3.4801986328125 0.3007500000000002 Q 3.4771986328124997 0.3105000000000001 3.4771986328124997 0.3225000000000001 Q 3.4696986328125 0.6930000000000001 3.4696986328125 0.8850000000000001 Q 3.4696986328125 0.9870000000000001 3.5656986328125 1.0050000000000001 Q 3.5911986328125 1.0095 3.6031986328125 1.0155 Q 3.6151986328125 1.0215 3.6151986328125 1.0320000000000003 Q 3.6151986328125 1.0485000000000002 3.5716986328124998 1.0485000000000002 Q 3.5161986328125 1.0485000000000002 3.4861986328125 1.044 Q 3.4561986328125 1.0410000000000001 3.4306986328124998 1.0410000000000001 Q 3.4081986328125 1.0410000000000001 3.3781986328125 1.044 Q 3.3196986328125 1.0485000000000002 3.2941986328125 1.0485000000000002 Q 3.2506986328125 1.0485000000000002 3.2506986328125 1.0320000000000003 Q 3.2506986328125 1.0230000000000001 3.2619486328125 1.0170000000000001 Q 3.2731986328125 1.0110000000000001 3.3001986328125 1.0035 Q 3.3766986328125 0.9825000000000002 3.3871986328125 0.8805000000000002 Q 3.3976986328125 0.7830000000000001 3.4059486328125 0.6172500000000001 Q 3.4141986328125 0.4515000000000001 3.4141986328125 0.2805000000000001 Q 3.4141986328125 0.20700000000000018 3.3774486328125 0.17100000000000015 Q 3.3406986328125 0.13500000000000012 3.2656986328124997 0.1110000000000001 Q 3.2521986328125 0.10650000000000015 3.2356986328125 0.09675000000000011 Q 3.2191986328124997 0.08700000000000008 3.2191986328124997 0.07500000000000018 Q 3.2191986328124997 0.06300000000000017 3.2304486328125 0.05850000000000011 Q 3.2416986328125 0.05400000000000016 3.2536986328125 0.05400000000000016 L 3.3586986328125 0.05850000000000011 Q 3.4306986328124998 0.06150000000000011 3.4846986328125 0.06150000000000011 Q 3.4966986328125 0.06150000000000011 3.5034486328125 0.06675000000000009 Q 3.5101986328125 0.07200000000000017 3.5206986328125 0.08700000000000008 Q 3.5386986328125 0.11250000000000016 3.7741986328125 0.39900000000000013 Q 4.0096986328124995 0.6855000000000002 4.1101986328125 0.8070000000000002 Q 4.1356986328125 0.8370000000000002 4.1476986328125 0.8370000000000002 Q 4.1611986328125 0.8370000000000002 4.1626986328125 0.8055000000000001 Q 4.1656986328125 0.6915000000000001 4.1656986328125 0.19500000000000017 Q 4.1641986328125 0.16800000000000015 4.1349486328125 0.14250000000000018 Q 4.1056986328125 0.1170000000000001 4.0786986328125 0.11250000000000016 Q 4.0111986328124996 0.10050000000000014 4.0111986328124996 0.08250000000000013 Q 4.0111986328124996 0.07500000000000018 4.0306986328125 0.07050000000000012 Q 4.0501986328125 0.06600000000000017 4.0726986328125 0.06600000000000017 L 4.1581986328125 0.06600000000000017 L 4.2331986328125 0.06450000000000011 Q 4.2811986328125 0.06150000000000011 4.3306986328125 0.06150000000000011 Q 4.3741986328125 0.06150000000000011 4.3741986328125 0.07800000000000018 Q 4.3741986328125 0.09900000000000009 4.3246986328125 0.1080000000000001 Q 4.2691986328125004 0.11850000000000016 4.2511986328125 0.13500000000000012 Q 4.2331986328125 0.15150000000000008 4.2301986328125 0.18900000000000017 Q 4.2271986328125 0.2430000000000001 4.2271986328125 0.8835000000000002 Q 4.2271986328125 0.9435000000000001 4.2331986328125 0.9975000000000002 L 4.2346986328125 1.0290000000000001 Q 4.2346986328125 1.0665000000000002 4.2031986328125 1.0665000000000002 Q 4.1851986328125 1.0665000000000002 4.1454486328125 1.0410000000000001 M 4.9277619140625 1.0485000000000002 Q 4.7627619140625 1.0410000000000001 4.6847619140625 1.0410000000000001 Q 4.6592619140625 1.0410000000000001 4.6172619140624995 1.044 Q 4.5842619140625 1.0485000000000002 4.5272619140625 1.0485000000000002 Q 4.4837619140625 1.0485000000000002 4.4837619140625 1.0290000000000001 Q 4.4837619140625 1.0170000000000001 4.4927619140625 1.0140000000000002 Q 4.5017619140625 1.0110000000000001 4.5332619140625 1.0050000000000001 Q 4.5902619140625 0.9945000000000002 4.6120119140625 0.9705000000000001 Q 4.6337619140625 0.9465000000000001 4.6337619140625 0.8925000000000002 L 4.6337619140625 0.21750000000000014 Q 4.6337619140625 0.16500000000000015 4.6120119140625 0.14175000000000015 Q 4.5902619140625 0.11850000000000016 4.5332619140625 0.1080000000000001 Q 4.5047619140625 0.10350000000000015 4.4942619140625 0.09825000000000017 Q 4.4837619140625 0.09300000000000008 4.4837619140625 0.08100000000000018 Q 4.4837619140625 0.06150000000000011 4.5272619140625 0.06150000000000011 L 4.6127619140625 0.06300000000000017 Q 4.6352619140625 0.06450000000000011 4.6937619140625 0.06450000000000011 Q 4.7552619140625 0.06450000000000011 4.8482619140625 0.05700000000000016 Q 4.8797619140625 0.055500000000000105 4.9060119140625 0.05400000000000016 Q 4.9322619140625 0.0525000000000001 4.9502619140625 0.0525000000000001 Q 5.1452619140625 0.0525000000000001 5.2727619140624995 0.11475000000000013 Q 5.4002619140625 0.17700000000000016 5.4595119140624995 0.2842500000000001 Q 5.5187619140625 0.3915000000000002 5.5187619140625 0.5280000000000001 Q 5.5187619140625 0.6690000000000002 5.4482619140625 0.7897500000000002 Q 5.3777619140625 0.9105000000000001 5.2577619140625 0.9810000000000001 Q 5.1377619140625 1.0515 4.9967619140625 1.0515 L 4.9277619140625 1.0485000000000002 M 5.1850119140625 0.9420000000000002 Q 5.2757619140625 0.8850000000000001 5.3260119140625 0.7837500000000002 Q 5.3762619140625 0.6825000000000001 5.3762619140625 0.5535000000000001 Q 5.3762619140625 0.4155000000000001 5.3162619140625 0.31200000000000017 Q 5.2562619140625 0.20850000000000013 5.1595119140625 0.15375000000000016 Q 5.0627619140625 0.09900000000000009 4.9577619140625 0.09900000000000009 Q 4.8782619140625 0.09900000000000009 4.8385119140625 0.10350000000000015 Q 4.7987619140625 0.1080000000000001 4.7762619140625 0.12750000000000017 Q 4.7537619140625 0.14700000000000013 4.7537619140625 0.1905000000000001 L 4.7537619140625 0.8595000000000002 Q 4.7537619140625 0.9420000000000002 4.8145119140625 0.9705000000000001 Q 4.8752619140624995 0.9990000000000001 4.9787619140625 0.9990000000000001 Q 5.0942619140625 0.9990000000000001 5.1850119140625 0.9420000000000002 M 5.9411293945312496 0.9997500000000001 Q 5.82637939453125 0.9375000000000001 5.75812939453125 0.8250000000000002 Q 5.68987939453125 0.7125000000000001 5.68987939453125 0.5685000000000001 Q 5.68987939453125 0.4305000000000001 5.74987939453125 0.3105000000000001 Q 5.80987939453125 0.1905000000000001 5.92537939453125 0.11775000000000013 Q 6.04087939453125 0.04500000000000015 6.20137939453125 0.04500000000000015 Q 6.33337939453125 0.04500000000000015 6.44812939453125 0.10725000000000018 Q 6.56287939453125 0.1695000000000001 6.63112939453125 0.28200000000000014 Q 6.69937939453125 0.3945000000000002 6.69937939453125 0.5385000000000001 Q 6.69937939453125 0.6765000000000001 6.63937939453125 0.7965000000000002 Q 6.57937939453125 0.9165000000000001 6.46387939453125 0.9892500000000002 Q 6.34837939453125 1.062 6.18787939453125 1.062 Q 6.0558793945312495 1.062 5.9411293945312496 0.9997500000000001 M 6.46687939453125 0.8977500000000002 Q 6.55537939453125 0.7935000000000001 6.55537939453125 0.6120000000000001 Q 6.55537939453125 0.46950000000000014 6.51187939453125 0.35550000000000015 Q 6.46837939453125 0.24150000000000016 6.3836293945312494 0.17475000000000018 Q 6.29887939453125 0.1080000000000001 6.17737939453125 0.1080000000000001 Q 6.0108793945312495 0.1080000000000001 5.92237939453125 0.2107500000000001 Q 5.83387939453125 0.3135000000000001 5.83387939453125 0.49350000000000016 Q 5.83387939453125 0.6360000000000001 5.87662939453125 0.7515000000000002 Q 5.91937939453125 0.8670000000000001 6.00412939453125 0.9345000000000001 Q 6.08887939453125 1.0020000000000002 6.21037939453125 1.0020000000000002 Q 6.37837939453125 1.0020000000000002 6.46687939453125 0.8977500000000002 M 7.762205126953125 1.0410000000000001 Q 7.7224551269531245 1.0155 7.690955126953125 0.9720000000000002 Q 7.678955126953125 0.9540000000000002 7.516205126953125 0.7620000000000001 Q 7.353455126953125 0.5700000000000001 7.279955126953125 0.48150000000000015 Q 7.1599551269531245 0.34050000000000014 7.138955126953125 0.31500000000000017 Q 7.119455126953125 0.29100000000000015 7.107455126953125 0.29100000000000015 Q 7.099955126953125 0.29100000000000015 7.096955126953125 0.3007500000000002 Q 7.093955126953125 0.3105000000000001 7.093955126953125 0.3225000000000001 Q 7.086455126953125 0.6930000000000001 7.086455126953125 0.8850000000000001 Q 7.086455126953125 0.9870000000000001 7.1824551269531245 1.0050000000000001 Q 7.207955126953125 1.0095 7.219955126953125 1.0155 Q 7.231955126953125 1.0215 7.231955126953125 1.0320000000000003 Q 7.231955126953125 1.0485000000000002 7.188455126953125 1.0485000000000002 Q 7.132955126953125 1.0485000000000002 7.102955126953125 1.044 Q 7.072955126953125 1.0410000000000001 7.047455126953125 1.0410000000000001 Q 7.024955126953125 1.0410000000000001 6.9949551269531245 1.044 Q 6.936455126953125 1.0485000000000002 6.910955126953125 1.0485000000000002 Q 6.867455126953125 1.0485000000000002 6.867455126953125 1.0320000000000003 Q 6.867455126953125 1.0230000000000001 6.8787051269531245 1.0170000000000001 Q 6.889955126953125 1.0110000000000001 6.916955126953125 1.0035 Q 6.993455126953125 0.9825000000000002 7.003955126953125 0.8805000000000002 Q 7.014455126953125 0.7830000000000001 7.022705126953125 0.6172500000000001 Q 7.030955126953125 0.4515000000000001 7.030955126953125 0.2805000000000001 Q 7.030955126953125 0.20700000000000018 6.9942051269531245 0.17100000000000015 Q 6.957455126953125 0.13500000000000012 6.882455126953125 0.1110000000000001 Q 6.868955126953125 0.10650000000000015 6.852455126953125 0.09675000000000011 Q 6.835955126953125 0.08700000000000008 6.835955126953125 0.07500000000000018 Q 6.835955126953125 0.06300000000000017 6.847205126953125 0.05850000000000011 Q 6.858455126953125 0.05400000000000016 6.870455126953125 0.05400000000000016 L 6.975455126953125 0.05850000000000011 Q 7.047455126953125 0.06150000000000011 7.101455126953125 0.06150000000000011 Q 7.1134551269531245 0.06150000000000011 7.120205126953125 0.06675000000000009 Q 7.126955126953125 0.07200000000000017 7.137455126953125 0.08700000000000008 Q 7.155455126953125 0.11250000000000016 7.390955126953125 0.39900000000000013 Q 7.626455126953125 0.6855000000000002 7.726955126953125 0.8070000000000002 Q 7.752455126953125 0.8370000000000002 7.764455126953125 0.8370000000000002 Q 7.777955126953125 0.8370000000000002 7.779455126953125 0.8055000000000001 Q 7.782455126953125 0.6915000000000001 7.782455126953125 0.19500000000000017 Q 7.780955126953125 0.16800000000000015 7.751705126953125 0.14250000000000018 Q 7.7224551269531245 0.1170000000000001 7.695455126953125 0.11250000000000016 Q 7.627955126953125 0.10050000000000014 7.627955126953125 0.08250000000000013 Q 7.627955126953125 0.07500000000000018 7.647455126953125 0.07050000000000012 Q 7.666955126953125 0.06600000000000017 7.689455126953125 0.06600000000000017 L 7.774955126953125 0.06600000000000017 L 7.849955126953125 0.06450000000000011 Q 7.897955126953125 0.06150000000000011 7.947455126953125 0.06150000000000011 Q 7.990955126953125 0.06150000000000011 7.990955126953125 0.07800000000000018 Q 7.990955126953125 0.09900000000000009 7.941455126953125 0.1080000000000001 Q 7.8859551269531245 0.11850000000000016 7.867955126953125 0.13500000000000012 Q 7.849955126953125 0.15150000000000008 7.846955126953125 0.18900000000000017 Q 7.843955126953125 0.2430000000000001 7.843955126953125 0.8835000000000002 Q 7.843955126953125 0.9435000000000001 7.849955126953125 0.9975000000000002 L 7.851455126953125 1.0290000000000001 Q 7.851455126953125 1.0665000000000002 7.819955126953125 1.0665000000000002 Q 7.801955126953125 1.0665000000000002 7.762205126953125 1.0410000000000001 M 8.45461171875 1.0320000000000003 Q 8.45461171875 1.0215 8.46661171875 1.0155 Q 8.478611718749999 1.0095 8.50411171875 1.0050000000000001 Q 8.56111171875 0.9945000000000002 8.58286171875 0.9697500000000001 Q 8.60461171875 0.9450000000000002 8.60461171875 0.8895000000000002 L 8.60461171875 0.21450000000000014 Q 8.60461171875 0.1635000000000001 8.58286171875 0.14100000000000013 Q 8.56111171875 0.11850000000000016 8.50411171875 0.1080000000000001 Q 8.45461171875 0.09900000000000009 8.45461171875 0.07800000000000018 Q 8.45461171875 0.06150000000000011 8.49811171875 0.06150000000000011 L 8.59111171875 0.06300000000000017 Q 8.61361171875 0.06450000000000011 8.666111718749999 0.06450000000000011 Q 8.70811171875 0.06450000000000011 8.72461171875 0.06300000000000017 L 8.81161171875 0.06150000000000011 Q 8.855111718749999 0.06150000000000011 8.855111718749999 0.07800000000000018 Q 8.855111718749999 0.09900000000000009 8.80561171875 0.1080000000000001 Q 8.75311171875 0.1170000000000001 8.73886171875 0.14100000000000013 Q 8.72461171875 0.16500000000000015 8.72461171875 0.21450000000000014 L 8.72461171875 0.4950000000000001 Q 8.72461171875 0.5235000000000002 8.73211171875 0.5235000000000002 Q 8.73961171875 0.5235000000000002 8.75161171875 0.5152500000000001 Q 8.76361171875 0.5070000000000001 8.77261171875 0.49650000000000016 L 9.07261171875 0.1905000000000001 Q 9.09511171875 0.16800000000000015 9.09511171875 0.14550000000000007 Q 9.09511171875 0.13350000000000017 9.08761171875 0.12375000000000014 Q 9.08011171875 0.1140000000000001 9.06661171875 0.1110000000000001 Q 9.041111718749999 0.10350000000000015 9.03061171875 0.09750000000000014 Q 9.02011171875 0.09150000000000014 9.02011171875 0.08100000000000018 Q 9.02011171875 0.06450000000000011 9.06361171875 0.06450000000000011 L 9.14461171875 0.06450000000000011 Q 9.17911171875 0.06450000000000011 9.33661171875 0.060000000000000164 L 9.38761171875 0.05850000000000011 Q 9.40261171875 0.05850000000000011 9.41161171875 0.06300000000000017 Q 9.42061171875 0.06750000000000012 9.42061171875 0.07500000000000018 Q 9.42061171875 0.09600000000000009 9.371111718749999 0.1050000000000001 Q 9.230111718749999 0.13050000000000017 9.14311171875 0.20400000000000018 Q 9.06211171875 0.2715000000000002 8.99836171875 0.33450000000000013 Q 8.93461171875 0.3975000000000002 8.855111718749999 0.48450000000000015 Q 8.85211171875 0.48750000000000016 8.85211171875 0.4920000000000001 Q 8.85211171875 0.5010000000000001 8.86261171875 0.5115000000000002 L 9.22561171875 0.8985000000000001 Q 9.278111718749999 0.9570000000000002 9.30361171875 0.9742500000000002 Q 9.32911171875 0.9915000000000002 9.39061171875 1.0050000000000001 Q 9.417611718749999 1.0110000000000001 9.42886171875 1.0170000000000001 Q 9.44011171875 1.0230000000000001 9.44011171875 1.0320000000000003 Q 9.44011171875 1.0485000000000002 9.39661171875 1.0485000000000002 Q 9.33661171875 1.0485000000000002 9.28861171875 1.044 Q 9.228611718749999 1.0410000000000001 9.18811171875 1.0410000000000001 L 9.14611171875 1.0410000000000001 Q 9.12661171875 1.0425000000000002 9.06661171875 1.0425000000000002 Q 9.02311171875 1.0425000000000002 9.02311171875 1.0260000000000002 Q 9.02311171875 1.0155 9.03211171875 1.01025 Q 9.041111718749999 1.0050000000000001 9.06361171875 1.0005000000000002 Q 9.10561171875 0.9900000000000001 9.10561171875 0.9705000000000001 Q 9.10561171875 0.9585000000000001 9.08311171875 0.9330000000000002 L 8.76511171875 0.5820000000000001 Q 8.73961171875 0.5565000000000002 8.73061171875 0.5565000000000002 Q 8.72461171875 0.5565000000000002 8.72461171875 0.5775000000000001 Q 8.72461171875 0.6690000000000002 8.73211171875 0.8760000000000001 Q 8.73511171875 0.9300000000000002 8.75536171875 0.9630000000000002 Q 8.77561171875 0.9960000000000001 8.82811171875 1.0050000000000001 Q 8.853611718749999 1.0095 8.86561171875 1.0155 Q 8.87761171875 1.0215 8.87761171875 1.0320000000000003 Q 8.87761171875 1.0485000000000002 8.83411171875 1.0485000000000002 Q 8.78611171875 1.0485000000000002 8.74711171875 1.0425000000000002 Q 8.72011171875 1.0380000000000003 8.68711171875 1.0380000000000003 Q 8.66161171875 1.0380000000000003 8.63536171875 1.0402500000000001 Q 8.60911171875 1.0425000000000002 8.59711171875 1.0425000000000002 Q 8.54011171875 1.0485000000000002 8.49811171875 1.0485000000000002 Q 8.45461171875 1.0485000000000002 8.45461171875 1.0320000000000003 M 9.536140576171876 1.0320000000000003 Q 9.536140576171876 1.0215 9.548140576171877 1.0155 Q 9.560140576171875 1.0095 9.585640576171876 1.0050000000000001 Q 9.644140576171877 0.9945000000000002 9.670390576171876 0.9697500000000001 Q 9.696640576171875 0.9450000000000002 9.696640576171875 0.8925000000000002 L 9.696640576171875 0.21750000000000014 Q 9.696640576171875 0.16500000000000015 9.674890576171876 0.14175000000000015 Q 9.653140576171875 0.11850000000000016 9.596140576171877 0.1080000000000001 Q 9.546640576171876 0.09900000000000009 9.546640576171876 0.07800000000000018 Q 9.546640576171876 0.06150000000000011 9.590140576171876 0.06150000000000011 Q 9.647140576171875 0.06150000000000011 9.728140576171876 0.06450000000000011 L 9.855640576171876 0.06600000000000017 L 10.061140576171876 0.06450000000000011 L 10.188640576171876 0.06150000000000011 Q 10.214140576171875 0.06150000000000011 10.215640576171875 0.07500000000000018 Q 10.218640576171875 0.08700000000000008 10.228390576171876 0.14100000000000013 Q 10.238140576171876 0.19500000000000017 10.238140576171876 0.22950000000000015 Q 10.238140576171876 0.2520000000000001 10.217140576171875 0.2520000000000001 Q 10.209640576171875 0.2520000000000001 10.206640576171875 0.2490000000000001 Q 10.203640576171876 0.2460000000000001 10.200640576171876 0.2370000000000001 Q 10.197640576171876 0.22950000000000015 10.188640576171876 0.19800000000000018 Q 10.179640576171876 0.1665000000000001 10.167640576171875 0.15450000000000008 Q 10.131640576171876 0.1140000000000001 10.067140576171877 0.1140000000000001 L 9.870640576171876 0.1140000000000001 Q 9.855640576171876 0.1140000000000001 9.836140576171875 0.1282500000000001 Q 9.816640576171876 0.14250000000000018 9.816640576171876 0.16200000000000014 L 9.816640576171876 0.4800000000000001 Q 9.816640576171876 0.49350000000000016 9.824890576171876 0.5032500000000001 Q 9.833140576171875 0.5130000000000001 9.843640576171875 0.5130000000000001 L 9.992140576171876 0.5130000000000001 Q 10.034140576171875 0.5130000000000001 10.050640576171876 0.4980000000000001 Q 10.067140576171877 0.4830000000000001 10.079140576171875 0.4395000000000001 Q 10.088140576171876 0.4065000000000001 10.106140576171876 0.4065000000000001 Q 10.112140576171877 0.4065000000000001 10.118890576171875 0.4132500000000001 Q 10.125640576171875 0.42000000000000015 10.125640576171875 0.4305000000000001 L 10.124140576171875 0.46950000000000014 L 10.121140576171875 0.5355000000000001 L 10.122640576171875 0.6150000000000002 L 10.124140576171875 0.6510000000000001 Q 10.124140576171875 0.6765000000000001 10.110640576171877 0.6765000000000001 Q 10.088140576171876 0.6765000000000001 10.076140576171875 0.6285000000000001 Q 10.067140576171877 0.5925000000000001 10.051390576171876 0.5767500000000001 Q 10.035640576171875 0.5610000000000002 10.007140576171876 0.5610000000000002 L 9.867640576171876 0.5610000000000002 Q 9.839140576171875 0.5610000000000002 9.827890576171876 0.5685000000000001 Q 9.816640576171876 0.5760000000000001 9.816640576171876 0.6000000000000001 L 9.816640576171876 0.8880000000000001 Q 9.816640576171876 0.9435000000000001 9.839890576171875 0.9660000000000002 Q 9.863140576171876 0.9885000000000002 9.915640576171876 0.9885000000000002 L 10.026640576171875 0.9885000000000002 Q 10.076140576171875 0.9885000000000002 10.108390576171876 0.9825000000000002 Q 10.140640576171876 0.9765000000000001 10.163140576171875 0.9630000000000002 Q 10.185640576171876 0.9480000000000002 10.204390576171877 0.9217500000000002 Q 10.223140576171875 0.8955000000000002 10.248640576171876 0.8475000000000001 Q 10.259140576171875 0.8280000000000002 10.269640576171875 0.8280000000000002 Q 10.289140576171876 0.8280000000000002 10.289140576171876 0.8490000000000002 Q 10.289140576171876 0.8685000000000002 10.272640576171876 0.9307500000000002 Q 10.256140576171875 0.9930000000000001 10.242640576171876 1.0230000000000001 Q 10.241140576171876 1.0260000000000002 10.238140576171876 1.0335 Q 10.235140576171876 1.0410000000000001 10.231390576171876 1.04475 Q 10.227640576171876 1.0485000000000002 10.221640576171875 1.0485000000000002 Q 10.191640576171876 1.0485000000000002 9.957640576171876 1.044 Q 9.854140576171876 1.0395 9.752140576171875 1.0395 Q 9.710140576171876 1.0395 9.674140576171876 1.044 Q 9.597640576171877 1.0485000000000002 9.579640576171876 1.0485000000000002 Q 9.536140576171876 1.0485000000000002 9.536140576171876 1.0320000000000003 M 11.32200439453125 1.0410000000000001 Q 11.28225439453125 1.0155 11.25075439453125 0.9720000000000002 Q 11.23875439453125 0.9540000000000002 11.07600439453125 0.7620000000000001 Q 10.91325439453125 0.5700000000000001 10.83975439453125 0.48150000000000015 Q 10.71975439453125 0.34050000000000014 10.69875439453125 0.31500000000000017 Q 10.67925439453125 0.29100000000000015 10.66725439453125 0.29100000000000015 Q 10.65975439453125 0.29100000000000015 10.65675439453125 0.3007500000000002 Q 10.65375439453125 0.3105000000000001 10.65375439453125 0.3225000000000001 Q 10.64625439453125 0.6930000000000001 10.64625439453125 0.8850000000000001 Q 10.64625439453125 0.9870000000000001 10.74225439453125 1.0050000000000001 Q 10.76775439453125 1.0095 10.779754394531249 1.0155 Q 10.79175439453125 1.0215 10.79175439453125 1.0320000000000003 Q 10.79175439453125 1.0485000000000002 10.74825439453125 1.0485000000000002 Q 10.69275439453125 1.0485000000000002 10.66275439453125 1.044 Q 10.63275439453125 1.0410000000000001 10.60725439453125 1.0410000000000001 Q 10.58475439453125 1.0410000000000001 10.55475439453125 1.044 Q 10.496254394531249 1.0485000000000002 10.47075439453125 1.0485000000000002 Q 10.42725439453125 1.0485000000000002 10.42725439453125 1.0320000000000003 Q 10.42725439453125 1.0230000000000001 10.43850439453125 1.0170000000000001 Q 10.449754394531249 1.0110000000000001 10.47675439453125 1.0035 Q 10.55325439453125 0.9825000000000002 10.56375439453125 0.8805000000000002 Q 10.57425439453125 0.7830000000000001 10.58250439453125 0.6172500000000001 Q 10.590754394531249 0.4515000000000001 10.590754394531249 0.2805000000000001 Q 10.590754394531249 0.20700000000000018 10.55400439453125 0.17100000000000015 Q 10.51725439453125 0.13500000000000012 10.44225439453125 0.1110000000000001 Q 10.42875439453125 0.10650000000000015 10.41225439453125 0.09675000000000011 Q 10.39575439453125 0.08700000000000008 10.39575439453125 0.07500000000000018 Q 10.39575439453125 0.06300000000000017 10.40700439453125 0.05850000000000011 Q 10.41825439453125 0.05400000000000016 10.43025439453125 0.05400000000000016 L 10.53525439453125 0.05850000000000011 Q 10.60725439453125 0.06150000000000011 10.66125439453125 0.06150000000000011 Q 10.67325439453125 0.06150000000000011 10.68000439453125 0.06675000000000009 Q 10.686754394531249 0.07200000000000017 10.69725439453125 0.08700000000000008 Q 10.71525439453125 0.11250000000000016 10.95075439453125 0.39900000000000013 Q 11.18625439453125 0.6855000000000002 11.28675439453125 0.8070000000000002 Q 11.31225439453125 0.8370000000000002 11.32425439453125 0.8370000000000002 Q 11.337754394531249 0.8370000000000002 11.339254394531249 0.8055000000000001 Q 11.342254394531249 0.6915000000000001 11.342254394531249 0.19500000000000017 Q 11.340754394531249 0.16800000000000015 11.31150439453125 0.14250000000000018 Q 11.28225439453125 0.1170000000000001 11.25525439453125 0.11250000000000016 Q 11.18775439453125 0.10050000000000014 11.18775439453125 0.08250000000000013 Q 11.18775439453125 0.07500000000000018 11.20725439453125 0.07050000000000012 Q 11.22675439453125 0.06600000000000017 11.249254394531249 0.06600000000000017 L 11.33475439453125 0.06600000000000017 L 11.40975439453125 0.06450000000000011 Q 11.45775439453125 0.06150000000000011 11.50725439453125 0.06150000000000011 Q 11.55075439453125 0.06150000000000011 11.55075439453125 0.07800000000000018 Q 11.55075439453125 0.09900000000000009 11.50125439453125 0.1080000000000001 Q 11.44575439453125 0.11850000000000016 11.42775439453125 0.13500000000000012 Q 11.40975439453125 0.15150000000000008 11.40675439453125 0.18900000000000017 Q 11.40375439453125 0.2430000000000001 11.40375439453125 0.8835000000000002 Q 11.40375439453125 0.9435000000000001 11.40975439453125 0.9975000000000002 L 11.41125439453125 1.0290000000000001 Q 11.41125439453125 1.0665000000000002 11.37975439453125 1.0665000000000002 Q 11.36175439453125 1.0665000000000002 11.32200439453125 1.0410000000000001 M 12.56106767578125 1.0410000000000001 Q 12.52131767578125 1.0155 12.489817675781248 0.9720000000000002 Q 12.47781767578125 0.9540000000000002 12.315067675781249 0.7620000000000001 Q 12.15231767578125 0.5700000000000001 12.078817675781249 0.48150000000000015 Q 11.95881767578125 0.34050000000000014 11.937817675781249 0.31500000000000017 Q 11.91831767578125 0.29100000000000015 11.90631767578125 0.29100000000000015 Q 11.898817675781249 0.29100000000000015 11.895817675781249 0.3007500000000002 Q 11.892817675781249 0.3105000000000001 11.892817675781249 0.3225000000000001 Q 11.885317675781248 0.6930000000000001 11.885317675781248 0.8850000000000001 Q 11.885317675781248 0.9870000000000001 11.981317675781249 1.0050000000000001 Q 12.00681767578125 1.0095 12.018817675781248 1.0155 Q 12.030817675781249 1.0215 12.030817675781249 1.0320000000000003 Q 12.030817675781249 1.0485000000000002 11.987317675781249 1.0485000000000002 Q 11.931817675781248 1.0485000000000002 11.901817675781249 1.044 Q 11.87181767578125 1.0410000000000001 11.846317675781249 1.0410000000000001 Q 11.82381767578125 1.0410000000000001 11.793817675781249 1.044 Q 11.735317675781248 1.0485000000000002 11.709817675781249 1.0485000000000002 Q 11.666317675781249 1.0485000000000002 11.666317675781249 1.0320000000000003 Q 11.666317675781249 1.0230000000000001 11.67756767578125 1.0170000000000001 Q 11.688817675781248 1.0110000000000001 11.715817675781249 1.0035 Q 11.792317675781248 0.9825000000000002 11.802817675781249 0.8805000000000002 Q 11.81331767578125 0.7830000000000001 11.82156767578125 0.6172500000000001 Q 11.829817675781248 0.4515000000000001 11.829817675781248 0.2805000000000001 Q 11.829817675781248 0.20700000000000018 11.793067675781248 0.17100000000000015 Q 11.756317675781249 0.13500000000000012 11.68131767578125 0.1110000000000001 Q 11.667817675781249 0.10650000000000015 11.651317675781248 0.09675000000000011 Q 11.63481767578125 0.08700000000000008 11.63481767578125 0.07500000000000018 Q 11.63481767578125 0.06300000000000017 11.646067675781248 0.05850000000000011 Q 11.657317675781249 0.05400000000000016 11.66931767578125 0.05400000000000016 L 11.77431767578125 0.05850000000000011 Q 11.846317675781249 0.06150000000000011 11.900317675781249 0.06150000000000011 Q 11.91231767578125 0.06150000000000011 11.91906767578125 0.06675000000000009 Q 11.925817675781248 0.07200000000000017 11.936317675781249 0.08700000000000008 Q 11.95431767578125 0.11250000000000016 12.18981767578125 0.39900000000000013 Q 12.42531767578125 0.6855000000000002 12.52581767578125 0.8070000000000002 Q 12.551317675781249 0.8370000000000002 12.56331767578125 0.8370000000000002 Q 12.57681767578125 0.8370000000000002 12.57831767578125 0.8055000000000001 Q 12.581317675781248 0.6915000000000001 12.581317675781248 0.19500000000000017 Q 12.579817675781248 0.16800000000000015 12.550567675781249 0.14250000000000018 Q 12.52131767578125 0.1170000000000001 12.494317675781248 0.11250000000000016 Q 12.42681767578125 0.10050000000000014 12.42681767578125 0.08250000000000013 Q 12.42681767578125 0.07500000000000018 12.446317675781248 0.07050000000000012 Q 12.465817675781249 0.06600000000000017 12.488317675781248 0.06600000000000017 L 12.57381767578125 0.06600000000000017 L 12.648817675781249 0.06450000000000011 Q 12.696817675781249 0.06150000000000011 12.746317675781249 0.06150000000000011 Q 12.789817675781249 0.06150000000000011 12.789817675781249 0.07800000000000018 Q 12.789817675781249 0.09900000000000009 12.740317675781249 0.1080000000000001 Q 12.684817675781249 0.11850000000000016 12.66681767578125 0.13500000000000012 Q 12.648817675781249 0.15150000000000008 12.645817675781249 0.18900000000000017 Q 12.642817675781249 0.2430000000000001 12.642817675781249 0.8835000000000002 Q 12.642817675781249 0.9435000000000001 12.648817675781249 0.9975000000000002 L 12.650317675781249 1.0290000000000001 Q 12.650317675781249 1.0665000000000002 12.61881767578125 1.0665000000000002 Q 12.600817675781249 1.0665000000000002 12.56106767578125 1.0410000000000001 M 12.91138095703125 1.0320000000000003 Q 12.91138095703125 1.0215 12.92338095703125 1.0155 Q 12.93538095703125 1.0095 12.96088095703125 1.0050000000000001 Q 13.01938095703125 0.9945000000000002 13.04563095703125 0.9697500000000001 Q 13.071880957031249 0.9450000000000002 13.071880957031249 0.8925000000000002 L 13.071880957031249 0.21750000000000014 Q 13.071880957031249 0.16500000000000015 13.05013095703125 0.14175000000000015 Q 13.02838095703125 0.11850000000000016 12.97138095703125 0.1080000000000001 Q 12.92188095703125 0.09900000000000009 12.92188095703125 0.07800000000000018 Q 12.92188095703125 0.06150000000000011 12.96538095703125 0.06150000000000011 Q 13.022380957031249 0.06150000000000011 13.10338095703125 0.06450000000000011 L 13.23088095703125 0.06600000000000017 L 13.43638095703125 0.06450000000000011 L 13.56388095703125 0.06150000000000011 Q 13.58938095703125 0.06150000000000011 13.59088095703125 0.07500000000000018 Q 13.59388095703125 0.08700000000000008 13.60363095703125 0.14100000000000013 Q 13.61338095703125 0.19500000000000017 13.61338095703125 0.22950000000000015 Q 13.61338095703125 0.2520000000000001 13.59238095703125 0.2520000000000001 Q 13.584880957031249 0.2520000000000001 13.581880957031249 0.2490000000000001 Q 13.57888095703125 0.2460000000000001 13.57588095703125 0.2370000000000001 Q 13.57288095703125 0.22950000000000015 13.56388095703125 0.19800000000000018 Q 13.55488095703125 0.1665000000000001 13.54288095703125 0.15450000000000008 Q 13.50688095703125 0.1140000000000001 13.44238095703125 0.1140000000000001 L 13.24588095703125 0.1140000000000001 Q 13.23088095703125 0.1140000000000001 13.211380957031249 0.1282500000000001 Q 13.19188095703125 0.14250000000000018 13.19188095703125 0.16200000000000014 L 13.19188095703125 0.4800000000000001 Q 13.19188095703125 0.49350000000000016 13.20013095703125 0.5032500000000001 Q 13.208380957031249 0.5130000000000001 13.21888095703125 0.5130000000000001 L 13.36738095703125 0.5130000000000001 Q 13.40938095703125 0.5130000000000001 13.42588095703125 0.4980000000000001 Q 13.44238095703125 0.4830000000000001 13.45438095703125 0.4395000000000001 Q 13.46338095703125 0.4065000000000001 13.48138095703125 0.4065000000000001 Q 13.48738095703125 0.4065000000000001 13.494130957031249 0.4132500000000001 Q 13.50088095703125 0.42000000000000015 13.50088095703125 0.4305000000000001 L 13.49938095703125 0.46950000000000014 L 13.49638095703125 0.5355000000000001 L 13.49788095703125 0.6150000000000002 L 13.49938095703125 0.6510000000000001 Q 13.49938095703125 0.6765000000000001 13.48588095703125 0.6765000000000001 Q 13.46338095703125 0.6765000000000001 13.45138095703125 0.6285000000000001 Q 13.44238095703125 0.5925000000000001 13.42663095703125 0.5767500000000001 Q 13.41088095703125 0.5610000000000002 13.38238095703125 0.5610000000000002 L 13.24288095703125 0.5610000000000002 Q 13.21438095703125 0.5610000000000002 13.20313095703125 0.5685000000000001 Q 13.19188095703125 0.5760000000000001 13.19188095703125 0.6000000000000001 L 13.19188095703125 0.8880000000000001 Q 13.19188095703125 0.9435000000000001 13.21513095703125 0.9660000000000002 Q 13.23838095703125 0.9885000000000002 13.29088095703125 0.9885000000000002 L 13.40188095703125 0.9885000000000002 Q 13.45138095703125 0.9885000000000002 13.48363095703125 0.9825000000000002 Q 13.51588095703125 0.9765000000000001 13.538380957031249 0.9630000000000002 Q 13.56088095703125 0.9480000000000002 13.57963095703125 0.9217500000000002 Q 13.59838095703125 0.8955000000000002 13.62388095703125 0.8475000000000001 Q 13.634380957031249 0.8280000000000002 13.64488095703125 0.8280000000000002 Q 13.66438095703125 0.8280000000000002 13.66438095703125 0.8490000000000002 Q 13.66438095703125 0.8685000000000002 13.64788095703125 0.9307500000000002 Q 13.631380957031249 0.9930000000000001 13.61788095703125 1.0230000000000001 Q 13.61638095703125 1.0260000000000002 13.61338095703125 1.0335 Q 13.61038095703125 1.0410000000000001 13.60663095703125 1.04475 Q 13.60288095703125 1.0485000000000002 13.59688095703125 1.0485000000000002 Q 13.56688095703125 1.0485000000000002 13.33288095703125 1.044 Q 13.22938095703125 1.0395 13.12738095703125 1.0395 Q 13.08538095703125 1.0395 13.04938095703125 1.044 Q 12.97288095703125 1.0485000000000002 12.95488095703125 1.0485000000000002 Q 12.91138095703125 1.0485000000000002 12.91138095703125 1.0320000000000003 M 14.240494775390625 1.0485000000000002 Q 14.075494775390624 1.0410000000000001 13.997494775390624 1.0410000000000001 Q 13.971994775390623 1.0410000000000001 13.929994775390623 1.044 Q 13.896994775390624 1.0485000000000002 13.839994775390624 1.0485000000000002 Q 13.796494775390624 1.0485000000000002 13.796494775390624 1.0290000000000001 Q 13.796494775390624 1.0170000000000001 13.805494775390624 1.0140000000000002 Q 13.814494775390624 1.0110000000000001 13.845994775390624 1.0050000000000001 Q 13.902994775390624 0.9945000000000002 13.924744775390623 0.9705000000000001 Q 13.946494775390624 0.9465000000000001 13.946494775390624 0.8925000000000002 L 13.946494775390624 0.21750000000000014 Q 13.946494775390624 0.16500000000000015 13.924744775390623 0.14175000000000015 Q 13.902994775390624 0.11850000000000016 13.845994775390624 0.1080000000000001 Q 13.817494775390625 0.10350000000000015 13.806994775390624 0.09825000000000017 Q 13.796494775390624 0.09300000000000008 13.796494775390624 0.08100000000000018 Q 13.796494775390624 0.06150000000000011 13.839994775390624 0.06150000000000011 L 13.925494775390623 0.06300000000000017 Q 13.947994775390624 0.06450000000000011 14.006494775390625 0.06450000000000011 Q 14.067994775390623 0.06450000000000011 14.160994775390623 0.05700000000000016 Q 14.192494775390625 0.055500000000000105 14.218744775390624 0.05400000000000016 Q 14.244994775390623 0.0525000000000001 14.262994775390624 0.0525000000000001 Q 14.457994775390624 0.0525000000000001 14.585494775390623 0.11475000000000013 Q 14.712994775390623 0.17700000000000016 14.772244775390623 0.2842500000000001 Q 14.831494775390624 0.3915000000000002 14.831494775390624 0.5280000000000001 Q 14.831494775390624 0.6690000000000002 14.760994775390625 0.7897500000000002 Q 14.690494775390624 0.9105000000000001 14.570494775390625 0.9810000000000001 Q 14.450494775390624 1.0515 14.309494775390624 1.0515 L 14.240494775390625 1.0485000000000002 M 14.497744775390624 0.9420000000000002 Q 14.588494775390624 0.8850000000000001 14.638744775390624 0.7837500000000002 Q 14.688994775390624 0.6825000000000001 14.688994775390624 0.5535000000000001 Q 14.688994775390624 0.4155000000000001 14.628994775390623 0.31200000000000017 Q 14.568994775390625 0.20850000000000013 14.472244775390624 0.15375000000000016 Q 14.375494775390624 0.09900000000000009 14.270494775390624 0.09900000000000009 Q 14.190994775390624 0.09900000000000009 14.151244775390623 0.10350000000000015 Q 14.111494775390623 0.1080000000000001 14.088994775390624 0.12750000000000017 Q 14.066494775390623 0.14700000000000013 14.066494775390623 0.1905000000000001 L 14.066494775390623 0.8595000000000002 Q 14.066494775390623 0.9420000000000002 14.127244775390624 0.9705000000000001 Q 14.187994775390624 0.9990000000000001 14.291494775390625 0.9990000000000001 Q 14.406994775390624 0.9990000000000001 14.497744775390624 0.9420000000000002 M 15.134582958984373 1.0320000000000003 Q 15.134582958984373 1.0215 15.146582958984373 1.0155 Q 15.158582958984374 1.0095 15.184082958984373 1.0050000000000001 Q 15.301082958984374 0.9840000000000001 15.301082958984374 0.8790000000000001 L 15.301082958984374 0.6570000000000001 Q 15.301082958984374 0.6315000000000002 15.288332958984373 0.5992500000000001 Q 15.275582958984373 0.5670000000000002 15.263582958984372 0.5460000000000002 L 15.088082958984373 0.2580000000000001 Q 15.005582958984373 0.1260000000000001 14.954582958984373 0.1110000000000001 Q 14.929082958984372 0.10200000000000009 14.917082958984373 0.09450000000000014 Q 14.905082958984373 0.08700000000000008 14.905082958984373 0.07800000000000018 Q 14.905082958984373 0.06150000000000011 14.948582958984373 0.06150000000000011 L 15.017582958984374 0.06300000000000017 Q 15.083582958984373 0.06600000000000017 15.124082958984372 0.06600000000000017 L 15.196082958984373 0.06450000000000011 Q 15.214082958984372 0.06300000000000017 15.244082958984373 0.06300000000000017 Q 15.287582958984373 0.06300000000000017 15.287582958984373 0.07950000000000013 Q 15.287582958984373 0.09750000000000014 15.238082958984373 0.10950000000000015 Q 15.212582958984372 0.11550000000000016 15.201332958984374 0.12375000000000014 Q 15.190082958984373 0.13200000000000012 15.190082958984373 0.14700000000000013 Q 15.190082958984373 0.1665000000000001 15.209582958984374 0.20100000000000018 L 15.347582958984374 0.4560000000000002 Q 15.377582958984373 0.5130000000000001 15.389582958984374 0.5130000000000001 Q 15.398582958984372 0.5130000000000001 15.407582958984372 0.5017500000000001 Q 15.416582958984373 0.49050000000000016 15.439082958984374 0.4560000000000002 Q 15.484082958984374 0.3840000000000001 15.538082958984372 0.28800000000000014 Q 15.544082958984372 0.27600000000000013 15.565082958984373 0.2400000000000001 Q 15.592082958984372 0.19500000000000017 15.592082958984372 0.1635000000000001 Q 15.592082958984372 0.1200000000000001 15.530582958984374 0.1110000000000001 Q 15.514082958984373 0.1080000000000001 15.497582958984372 0.09900000000000009 Q 15.481082958984373 0.09000000000000008 15.481082958984373 0.08100000000000018 Q 15.481082958984373 0.06450000000000011 15.524582958984373 0.06450000000000011 L 15.637082958984372 0.06600000000000017 Q 15.679082958984374 0.06600000000000017 15.736082958984372 0.06300000000000017 L 15.793082958984373 0.06150000000000011 Q 15.836582958984373 0.06150000000000011 15.836582958984373 0.07800000000000018 Q 15.836582958984373 0.08700000000000008 15.816332958984374 0.09600000000000009 Q 15.796082958984373 0.1050000000000001 15.757082958984373 0.11550000000000016 Q 15.721082958984374 0.1260000000000001 15.696332958984373 0.15300000000000014 Q 15.671582958984374 0.18000000000000016 15.625082958984374 0.2520000000000001 Q 15.545582958984372 0.3750000000000001 15.458582958984373 0.5160000000000001 Q 15.431582958984373 0.5610000000000002 15.426332958984373 0.5820000000000001 Q 15.421082958984373 0.6030000000000002 15.421082958984373 0.6510000000000001 L 15.421082958984373 0.8790000000000001 Q 15.421082958984373 0.9300000000000002 15.451832958984372 0.9622500000000002 Q 15.482582958984374 0.9945000000000002 15.539582958984372 1.0050000000000001 Q 15.565082958984373 1.0095 15.577082958984374 1.0155 Q 15.589082958984372 1.0215 15.589082958984372 1.0320000000000003 Q 15.589082958984372 1.0485000000000002 15.545582958984372 1.0485000000000002 Q 15.490082958984374 1.0485000000000002 15.449582958984372 1.044 Q 15.401582958984372 1.0410000000000001 15.370082958984373 1.0410000000000001 Q 15.332582958984373 1.0410000000000001 15.278582958984373 1.044 Q 15.233582958984373 1.0485000000000002 15.178082958984373 1.0485000000000002 Q 15.134582958984373 1.0485000000000002 15.134582958984373 1.0320000000000003 M 15.917662353515622 0.9930000000000001 Q 15.901162353515621 0.9765000000000001 15.898162353515621 0.9630000000000002 Q 15.892162353515623 0.9360000000000002 15.884662353515623 0.8385000000000001 L 15.883162353515623 0.8055000000000001 Q 15.883162353515623 0.7950000000000002 15.891412353515623 0.7897500000000002 Q 15.899662353515621 0.7845000000000002 15.913162353515622 0.7845000000000002 Q 15.932662353515623 0.7845000000000002 15.937162353515623 0.8010000000000002 Q 15.964162353515622 0.9105000000000001 16.02191235351562 0.9630000000000002 Q 16.079662353515623 1.0155 16.150162353515622 1.0155 Q 16.22816235351562 1.0155 16.279162353515623 0.9652500000000002 Q 16.33016235351562 0.9150000000000001 16.33016235351562 0.8325000000000001 Q 16.33016235351562 0.7740000000000001 16.31141235351562 0.7357500000000001 Q 16.292662353515624 0.6975000000000001 16.259662353515623 0.6712500000000001 Q 16.22666235351562 0.6450000000000001 16.160662353515622 0.6045000000000001 L 16.13066235351562 0.5865000000000001 Q 16.057162353515622 0.5415000000000001 16.01516235351562 0.5085000000000002 Q 15.973162353515622 0.47550000000000014 15.943162353515621 0.4275000000000001 Q 15.913162353515622 0.37950000000000017 15.913162353515622 0.31800000000000017 Q 15.913162353515622 0.19800000000000018 15.994162353515621 0.12150000000000016 Q 16.075162353515623 0.04500000000000015 16.22666235351562 0.04500000000000015 Q 16.30316235351562 0.04500000000000015 16.384162353515624 0.07800000000000018 Q 16.39466235351562 0.08250000000000013 16.40366235351562 0.09300000000000008 Q 16.41266235351562 0.10350000000000015 16.41566235351562 0.11550000000000016 Q 16.430662353515622 0.16800000000000015 16.438162353515622 0.20025000000000015 Q 16.445662353515623 0.23250000000000015 16.445662353515623 0.2640000000000001 Q 16.445662353515623 0.2805000000000001 16.42316235351562 0.2805000000000001 Q 16.40966235351562 0.2805000000000001 16.39691235351562 0.2745000000000001 Q 16.384162353515624 0.2685000000000002 16.381162353515624 0.2595000000000002 Q 16.348162353515622 0.17700000000000016 16.30541235351562 0.13650000000000018 Q 16.262662353515623 0.09600000000000009 16.20116235351562 0.09600000000000009 Q 16.12616235351562 0.09600000000000009 16.077412353515623 0.1372500000000001 Q 16.02866235351562 0.1785000000000001 16.02866235351562 0.2670000000000001 Q 16.02866235351562 0.30900000000000016 16.055662353515622 0.3450000000000001 Q 16.082662353515623 0.3810000000000001 16.12391235351562 0.41100000000000014 Q 16.165162353515623 0.44100000000000017 16.238662353515622 0.4860000000000001 Q 16.30916235351562 0.5295000000000001 16.352662353515623 0.5640000000000001 Q 16.39616235351562 0.5985000000000001 16.426162353515622 0.6495000000000002 Q 16.456162353515623 0.7005000000000001 16.456162353515623 0.7710000000000001 Q 16.456162353515623 0.9045000000000001 16.366162353515623 0.9847500000000001 Q 16.276162353515623 1.0650000000000002 16.12916235351562 1.0650000000000002 Q 16.003162353515624 1.0650000000000002 15.917662353515622 0.9930000000000001 M 16.600277636718747 1.0320000000000003 Q 16.600277636718747 1.0215 16.612277636718748 1.0155 Q 16.624277636718745 1.0095 16.649777636718746 1.0050000000000001 Q 16.727777636718745 0.9915000000000002 16.742777636718746 0.8880000000000001 Q 16.804277636718748 0.42600000000000016 16.804277636718748 0.2490000000000001 Q 16.804277636718748 0.21450000000000014 16.802777636718748 0.19950000000000012 Q 16.801277636718748 0.18300000000000016 16.797527636718748 0.17175000000000018 Q 16.793777636718747 0.1605000000000001 16.780277636718747 0.15000000000000013 Q 16.756277636718746 0.12900000000000011 16.733027636718745 0.12150000000000016 Q 16.709777636718748 0.1140000000000001 16.667777636718746 0.1050000000000001 Q 16.652777636718746 0.10200000000000009 16.643777636718745 0.09375000000000011 Q 16.634777636718745 0.08550000000000013 16.634777636718745 0.07500000000000018 Q 16.634777636718745 0.06450000000000011 16.647527636718745 0.06150000000000011 Q 16.660277636718746 0.05850000000000011 16.685777636718747 0.05850000000000011 Q 16.705277636718748 0.05850000000000011 16.798277636718748 0.06450000000000011 Q 16.891277636718748 0.07050000000000012 16.910777636718745 0.07050000000000012 Q 16.931777636718746 0.07050000000000012 16.939277636718746 0.09450000000000014 L 16.949777636718746 0.13350000000000017 Q 16.963277636718747 0.1875000000000001 16.972277636718747 0.21000000000000008 L 17.209277636718745 0.8115000000000001 Q 17.213777636718746 0.8250000000000002 17.228777636718746 0.8250000000000002 Q 17.239277636718747 0.8250000000000002 17.243777636718747 0.8160000000000002 L 17.539277636718747 0.20100000000000018 Q 17.557277636718744 0.13350000000000017 17.566277636718745 0.08850000000000013 Q 17.570777636718745 0.06900000000000017 17.581277636718745 0.06900000000000017 L 17.635277636718747 0.06900000000000017 Q 17.657777636718745 0.06900000000000017 17.743277636718744 0.06150000000000011 Q 17.782277636718746 0.05700000000000016 17.806277636718747 0.05700000000000016 Q 17.837777636718748 0.05700000000000016 17.837777636718748 0.07200000000000017 Q 17.837777636718748 0.08250000000000013 17.829527636718748 0.08850000000000013 Q 17.821277636718747 0.09450000000000014 17.798777636718746 0.10350000000000015 Q 17.785277636718746 0.1080000000000001 17.762777636718745 0.1170000000000001 Q 17.740277636718748 0.1260000000000001 17.710277636718747 0.13800000000000012 Q 17.693777636718746 0.14550000000000007 17.684027636718746 0.15900000000000014 Q 17.674277636718745 0.1725000000000001 17.674277636718745 0.18900000000000017 Q 17.674277636718745 0.3210000000000002 17.679527636718745 0.4365000000000001 Q 17.684777636718746 0.5520000000000002 17.695277636718746 0.7065000000000001 Q 17.704277636718746 0.8295000000000001 17.707277636718747 0.8985000000000001 Q 17.708777636718747 0.9450000000000002 17.735777636718748 0.9697500000000001 Q 17.762777636718745 0.9945000000000002 17.819777636718747 1.0050000000000001 Q 17.845277636718745 1.0095 17.857277636718745 1.0155 Q 17.869277636718746 1.0215 17.869277636718746 1.0320000000000003 Q 17.869277636718746 1.0485000000000002 17.825777636718747 1.0485000000000002 Q 17.770277636718745 1.0485000000000002 17.729777636718747 1.044 Q 17.681777636718746 1.0410000000000001 17.650277636718748 1.0410000000000001 Q 17.624777636718747 1.0410000000000001 17.582777636718745 1.044 Q 17.549777636718748 1.0485000000000002 17.492777636718746 1.0485000000000002 Q 17.449277636718747 1.0485000000000002 17.449277636718747 1.0320000000000003 Q 17.449277636718747 1.0110000000000001 17.498777636718746 1.0050000000000001 Q 17.542277636718747 0.9990000000000001 17.558777636718744 0.9750000000000001 Q 17.575277636718745 0.9510000000000002 17.575277636718745 0.8970000000000001 Q 17.575277636718745 0.7440000000000002 17.570027636718745 0.6142500000000002 Q 17.564777636718745 0.48450000000000015 17.563277636718745 0.46050000000000013 Q 17.560277636718745 0.42300000000000015 17.557277636718744 0.3450000000000001 Q 17.555777636718744 0.3300000000000002 17.548277636718748 0.3300000000000002 Q 17.542277636718747 0.3300000000000002 17.533277636718747 0.3450000000000001 L 17.188277636718745 1.0485000000000002 Q 17.186777636718745 1.0575 17.174777636718748 1.0575 Q 17.165777636718747 1.0575 17.161277636718747 1.0470000000000002 Q 17.057777636718747 0.7395000000000002 16.885277636718747 0.33450000000000013 Q 16.882277636718747 0.3270000000000002 16.874777636718747 0.3270000000000002 Q 16.867277636718747 0.3270000000000002 16.865777636718747 0.33450000000000013 Q 16.838777636718746 0.5340000000000001 16.828277636718745 0.6420000000000001 Q 16.817777636718745 0.7500000000000002 16.817777636718745 0.8880000000000001 Q 16.817777636718745 0.9300000000000002 16.844027636718746 0.9630000000000002 Q 16.870277636718747 0.9960000000000001 16.915277636718745 1.0050000000000001 Q 16.940777636718746 1.0095 16.952777636718746 1.0155 Q 16.964777636718747 1.0215 16.964777636718747 1.0320000000000003 Q 16.964777636718747 1.0485000000000002 16.921277636718745 1.0485000000000002 Q 16.865777636718747 1.0485000000000002 16.835777636718745 1.044 Q 16.805777636718748 1.0410000000000001 16.780277636718747 1.0410000000000001 Q 16.757777636718746 1.0410000000000001 16.727777636718745 1.044 Q 16.669277636718746 1.0485000000000002 16.643777636718745 1.0485000000000002 Q 16.600277636718747 1.0485000000000002 16.600277636718747 1.0320000000000003 M 18.002854101562498 1.0320000000000003 Q 18.002854101562498 1.0215 18.0148541015625 1.0155 Q 18.026854101562495 1.0095 18.052354101562496 1.0050000000000001 Q 18.1123541015625 0.9945000000000002 18.140854101562496 0.9697500000000001 Q 18.169354101562497 0.9450000000000002 18.169354101562497 0.8940000000000001 L 18.169354101562497 0.21600000000000008 Q 18.169354101562497 0.1635000000000001 18.147604101562496 0.14100000000000013 Q 18.125854101562496 0.11850000000000016 18.068854101562497 0.1080000000000001 Q 18.0193541015625 0.09900000000000009 18.0193541015625 0.07800000000000018 Q 18.0193541015625 0.06150000000000011 18.062854101562497 0.06150000000000011 Q 18.1048541015625 0.06150000000000011 18.158854101562497 0.06450000000000011 L 18.238354101562496 0.06600000000000017 L 18.310354101562496 0.06450000000000011 Q 18.358354101562497 0.06150000000000011 18.401854101562495 0.06150000000000011 Q 18.445354101562497 0.06150000000000011 18.445354101562497 0.07800000000000018 Q 18.445354101562497 0.09900000000000009 18.3958541015625 0.1080000000000001 Q 18.337354101562497 0.11850000000000016 18.313354101562496 0.14175000000000015 Q 18.2893541015625 0.16500000000000015 18.2893541015625 0.21600000000000008 L 18.2893541015625 0.8940000000000001 Q 18.2893541015625 0.9450000000000002 18.318604101562496 0.9697500000000001 Q 18.347854101562497 0.9945000000000002 18.407854101562496 1.0050000000000001 Q 18.433354101562497 1.0095 18.445354101562497 1.0155 Q 18.457354101562498 1.0215 18.457354101562498 1.0320000000000003 Q 18.457354101562498 1.0485000000000002 18.413854101562496 1.0485000000000002 Q 18.358354101562497 1.0485000000000002 18.317854101562496 1.044 Q 18.269854101562498 1.0410000000000001 18.238354101562496 1.0410000000000001 Q 18.2008541015625 1.0410000000000001 18.146854101562496 1.044 Q 18.1018541015625 1.0485000000000002 18.046354101562496 1.0485000000000002 Q 18.002854101562498 1.0485000000000002 18.002854101562498 1.0320000000000003 M 18.812969384765623 1.0320000000000003 Q 18.812969384765623 1.0215 18.824969384765623 1.0155 Q 18.836969384765624 1.0095 18.862469384765625 1.0050000000000001 Q 18.920969384765623 0.9945000000000002 18.950219384765624 0.9675000000000001 Q 18.979469384765622 0.9405000000000001 18.979469384765622 0.8880000000000001 L 18.979469384765622 0.30600000000000016 Q 18.979469384765622 0.20550000000000013 18.97271938476562 0.17025000000000012 Q 18.96596938476562 0.13500000000000012 18.947969384765624 0.13200000000000012 Q 18.928469384765624 0.12750000000000017 18.902219384765623 0.12675000000000014 Q 18.87596938476562 0.1260000000000001 18.841469384765624 0.1260000000000001 L 18.77096938476562 0.1260000000000001 Q 18.731969384765623 0.1260000000000001 18.697469384765622 0.14100000000000013 Q 18.662969384765624 0.15600000000000014 18.647969384765624 0.1845000000000001 Q 18.638969384765623 0.20250000000000012 18.620219384765623 0.2220000000000001 Q 18.601469384765622 0.24150000000000016 18.58646938476562 0.24150000000000016 Q 18.575969384765624 0.24150000000000016 18.575969384765624 0.2220000000000001 Q 18.575969384765624 0.20700000000000018 18.58346938476562 0.19200000000000017 Q 18.604469384765622 0.15150000000000008 18.613469384765622 0.11775000000000013 Q 18.622469384765623 0.08400000000000007 18.629969384765623 0.0345000000000002 Q 18.634469384765623 2.220446049250313e-16 18.655469384765624 2.220446049250313e-16 Q 18.659969384765624 2.220446049250313e-16 18.672719384765625 0.01650000000000018 Q 18.68546938476562 0.03300000000000014 18.69296938476562 0.048000000000000154 Q 18.701969384765622 0.06300000000000017 18.732719384765623 0.07050000000000012 Q 18.763469384765624 0.07800000000000018 18.797969384765622 0.07800000000000018 L 19.325969384765624 0.07800000000000018 Q 19.418969384765624 0.07800000000000018 19.468469384765623 0.055500000000000105 Q 19.477469384765623 0.051000000000000156 19.494719384765624 0.03825000000000012 Q 19.511969384765624 0.025500000000000078 19.52696938476562 0.025500000000000078 Q 19.53146938476562 0.025500000000000078 19.53446938476562 0.03675000000000006 Q 19.537469384765622 0.048000000000000154 19.537469384765622 0.060000000000000164 Q 19.537469384765622 0.06600000000000017 19.53146938476562 0.10200000000000009 L 19.52246938476562 0.14700000000000013 Q 19.516469384765625 0.16500000000000015 19.516469384765625 0.1905000000000001 L 19.516469384765625 0.20850000000000013 Q 19.516469384765625 0.22350000000000014 19.509719384765624 0.2400000000000001 Q 19.502969384765624 0.2565000000000002 19.492469384765624 0.2565000000000002 Q 19.481969384765623 0.2565000000000002 19.475969384765623 0.24225000000000008 Q 19.469969384765623 0.2280000000000001 19.463969384765623 0.19500000000000017 Q 19.457969384765622 0.16200000000000014 19.426469384765625 0.14400000000000013 Q 19.394969384765623 0.1260000000000001 19.325969384765624 0.1260000000000001 L 19.174469384765622 0.1260000000000001 Q 19.136969384765624 0.1260000000000001 19.122719384765624 0.13500000000000012 Q 19.108469384765623 0.14400000000000013 19.103969384765623 0.17775000000000007 Q 19.099469384765623 0.21150000000000013 19.099469384765623 0.2985000000000001 L 19.099469384765623 0.8880000000000001 Q 19.099469384765623 0.9405000000000001 19.129469384765624 0.9675000000000001 Q 19.15946938476562 0.9945000000000002 19.217969384765624 1.0050000000000001 Q 19.24346938476562 1.0095 19.25546938476562 1.0155 Q 19.267469384765622 1.0215 19.267469384765622 1.0320000000000003 Q 19.267469384765622 1.0485000000000002 19.223969384765624 1.0485000000000002 Q 19.168469384765622 1.0485000000000002 19.127969384765624 1.044 Q 19.079969384765622 1.0410000000000001 19.048469384765625 1.0410000000000001 Q 19.010969384765623 1.0410000000000001 18.95696938476562 1.044 Q 18.911969384765623 1.0485000000000002 18.856469384765624 1.0485000000000002 Q 18.812969384765623 1.0485000000000002 18.812969384765623 1.0320000000000003 M 19.659018749999998 1.0432500000000002 Q 19.647018749999997 1.0380000000000003 19.647018749999997 1.0290000000000001 Q 19.647018749999997 1.0200000000000002 19.657518749999998 1.01475 Q 19.668018749999998 1.0095 19.69501875 1.0050000000000001 Q 19.750518749999998 0.9945000000000002 19.76851875 0.9712500000000002 Q 19.78651875 0.9480000000000002 19.78651875 0.8925000000000002 L 19.78651875 0.21450000000000014 Q 19.78651875 0.1755000000000001 19.78201875 0.15675000000000017 Q 19.77751875 0.13800000000000012 19.761018749999998 0.1260000000000001 Q 19.744518749999997 0.1140000000000001 19.70701875 0.1080000000000001 Q 19.68151875 0.10350000000000015 19.669518749999998 0.09750000000000014 Q 19.657518749999998 0.09150000000000014 19.657518749999998 0.08100000000000018 Q 19.657518749999998 0.06150000000000011 19.70101875 0.06150000000000011 Q 19.746018749999998 0.06150000000000011 19.79101875 0.06450000000000011 L 19.855518749999998 0.06600000000000017 L 19.923018749999997 0.06450000000000011 Q 19.97101875 0.06150000000000011 20.014518749999997 0.06150000000000011 Q 20.05801875 0.06150000000000011 20.05801875 0.08100000000000018 Q 20.05801875 0.09150000000000014 20.046018749999998 0.09750000000000014 Q 20.034018749999998 0.10350000000000015 20.00851875 0.1080000000000001 Q 19.95301875 0.11850000000000016 19.929768749999997 0.14400000000000013 Q 19.90651875 0.1695000000000001 19.90651875 0.21450000000000014 L 19.90651875 0.5100000000000001 Q 19.90651875 0.5235000000000002 19.927518749999997 0.5235000000000002 L 20.484018749999997 0.5235000000000002 Q 20.494518749999997 0.5235000000000002 20.494518749999997 0.5055000000000002 L 20.494518749999997 0.21300000000000008 Q 20.494518749999997 0.1695000000000001 20.47201875 0.1432500000000001 Q 20.44951875 0.1170000000000001 20.395518749999997 0.1080000000000001 Q 20.37001875 0.10350000000000015 20.35801875 0.09750000000000014 Q 20.34601875 0.09150000000000014 20.34601875 0.08100000000000018 Q 20.34601875 0.07200000000000017 20.35801875 0.06675000000000009 Q 20.37001875 0.06150000000000011 20.38951875 0.06150000000000011 Q 20.43151875 0.06150000000000011 20.485518749999997 0.06450000000000011 L 20.56351875 0.06600000000000017 L 20.61601875 0.06450000000000011 Q 20.65501875 0.06150000000000011 20.700018749999998 0.06150000000000011 Q 20.74351875 0.06150000000000011 20.74351875 0.08100000000000018 Q 20.74351875 0.09150000000000014 20.73151875 0.09750000000000014 Q 20.71951875 0.10350000000000015 20.694018749999998 0.1080000000000001 Q 20.64301875 0.1170000000000001 20.62876875 0.1402500000000001 Q 20.61451875 0.1635000000000001 20.61451875 0.21300000000000008 L 20.61451875 0.8910000000000001 Q 20.61451875 0.9495000000000001 20.62951875 0.9727500000000001 Q 20.64451875 0.9960000000000001 20.698518749999998 1.0050000000000001 Q 20.72551875 1.0095 20.73601875 1.01475 Q 20.74651875 1.0200000000000002 20.74651875 1.0290000000000001 Q 20.74651875 1.0380000000000003 20.73451875 1.0432500000000002 Q 20.72251875 1.0485000000000002 20.70301875 1.0485000000000002 Q 20.64751875 1.0485000000000002 20.61301875 1.044 Q 20.57401875 1.0410000000000001 20.54701875 1.0410000000000001 Q 20.51701875 1.0410000000000001 20.47801875 1.044 Q 20.44201875 1.0485000000000002 20.38651875 1.0485000000000002 Q 20.36701875 1.0485000000000002 20.35501875 1.0432500000000002 Q 20.34301875 1.0380000000000003 20.34301875 1.0290000000000001 Q 20.34301875 1.0200000000000002 20.35351875 1.01475 Q 20.36401875 1.0095 20.391018749999997 1.0050000000000001 Q 20.494518749999997 0.9855000000000002 20.494518749999997 0.8955000000000002 L 20.494518749999997 0.6030000000000002 L 20.494518749999997 0.5955000000000001 Q 20.494518749999997 0.5895000000000001 20.493018749999997 0.5850000000000002 Q 20.491518749999997 0.5805000000000001 20.487018749999997 0.5805000000000001 L 19.91401875 0.5805000000000001 Q 19.90951875 0.5805000000000001 19.90801875 0.5850000000000002 Q 19.90651875 0.5895000000000001 19.90651875 0.5970000000000002 L 19.90651875 0.8820000000000001 Q 19.90651875 0.9285000000000001 19.940268749999998 0.9622500000000002 Q 19.97401875 0.9960000000000001 20.026518749999997 1.0050000000000001 Q 20.05351875 1.0095 20.06401875 1.01475 Q 20.07451875 1.0200000000000002 20.07451875 1.0290000000000001 Q 20.07451875 1.0380000000000003 20.06251875 1.0432500000000002 Q 20.05051875 1.0485000000000002 20.031018749999998 1.0485000000000002 Q 19.97551875 1.0485000000000002 19.935018749999998 1.044 Q 19.88701875 1.0410000000000001 19.855518749999998 1.0410000000000001 Q 19.82551875 1.0410000000000001 19.78351875 1.044 Q 19.747518749999998 1.0485000000000002 19.69051875 1.0485000000000002 Q 19.671018749999998 1.0485000000000002 19.659018749999998 1.0432500000000002" fill="#000000" fill-rule="nonzero"></path></g><g><path d=" M 0.092853 1.6674788400000002 L 0.153126 1.6674788400000002 L 0.153126 2.23762884 L 0.092853 2.23762884 L 0.092853 1.6674788400000002 M 0.8165378408203126 1.6674788400000002 L 0.8165378408203126 2.23762884 L 0.7668533408203124 2.23762884 L 0.40032834082031254 1.7749928400000001 L 0.40032834082031254 2.23762884 L 0.3400553408203125 2.23762884 L 0.3400553408203125 1.6674788400000002 L 0.38973984082031254 1.6674788400000002 L 0.7570793408203125 2.13011484 L 0.7570793408203125 1.6674788400000002 L 0.8165378408203126 1.6674788400000002 M 1.4799385458984373 1.6674788400000002 L 1.4799385458984373 2.23762884 L 1.4302540458984372 2.23762884 L 1.0637290458984374 1.7749928400000001 L 1.0637290458984374 2.23762884 L 1.0034560458984374 2.23762884 L 1.0034560458984374 1.6674788400000002 L 1.0531405458984373 1.6674788400000002 L 1.4204800458984375 2.13011484 L 1.4204800458984375 1.6674788400000002 L 1.4799385458984373 1.6674788400000002 M 1.7625605009765621 2.20464159 Q 1.6937352509765622 2.1667673400000003 1.655046500976562 2.10079284 Q 1.616357750976562 2.03481834 1.616357750976562 1.9525538400000002 Q 1.616357750976562 1.8702893400000002 1.655046500976562 1.8043148400000002 Q 1.6937352509765622 1.7383403400000002 1.7625605009765621 1.7004660900000002 Q 1.831385750976562 1.6625918400000002 1.916093750976562 1.6625918400000002 Q 2.000801750976562 1.6625918400000002 2.068812500976562 1.70005884 Q 2.136823250976562 1.7375258400000002 2.175919250976562 1.8039075900000001 Q 2.215015250976562 1.8702893400000002 2.215015250976562 1.9525538400000002 Q 2.215015250976562 2.03481834 2.175919250976562 2.1012000900000003 Q 2.136823250976562 2.16758184 2.068812500976562 2.2050488400000003 Q 2.000801750976562 2.2425158400000003 1.916093750976562 2.2425158400000003 Q 1.831385750976562 2.2425158400000003 1.7625605009765621 2.20464159 M 2.0382687509765622 2.15821509 Q 2.092840250976562 2.12767134 2.123791250976562 2.07350709 Q 2.154742250976562 2.01934284 2.154742250976562 1.9525538400000002 Q 2.154742250976562 1.8857648400000002 2.123791250976562 1.8316005900000003 Q 2.092840250976562 1.7774363400000002 2.0382687509765622 1.7468925900000003 Q 1.983697250976562 1.7163488400000002 1.916093750976562 1.7163488400000002 Q 1.8484902509765622 1.7163488400000002 1.793511500976562 1.7468925900000003 Q 1.738532750976562 1.7774363400000002 1.7071745009765622 1.8316005900000003 Q 1.6758162509765622 1.8857648400000002 1.6758162509765622 1.9525538400000002 Q 1.6758162509765622 2.01934284 1.7071745009765622 2.07350709 Q 1.738532750976562 2.12767134 1.793511500976562 2.15821509 Q 1.8484902509765622 2.18875884 1.916093750976562 2.18875884 Q 1.983697250976562 2.18875884 2.0382687509765622 2.15821509 M 2.8083729331054683 1.6674788400000002 L 2.555877933105468 2.23762884 L 2.4964194331054683 2.23762884 L 2.243924433105468 1.6674788400000002 L 2.3090844331054683 1.6674788400000002 L 2.5273704331054683 2.1626948400000003 L 2.747285433105468 1.6674788400000002 L 2.8083729331054683 1.6674788400000002 M 3.232309842773437 2.08531734 L 2.914654842773437 2.08531734 L 2.846236842773437 2.23762884 L 2.783520342773437 2.23762884 L 3.044160342773437 1.6674788400000002 L 3.1036188427734372 1.6674788400000002 L 3.3642588427734372 2.23762884 L 3.300727842773437 2.23762884 L 3.232309842773437 2.08531734 M 3.210318342773437 2.03644734 L 3.073482342773437 1.7301953400000003 L 2.9366463427734373 2.03644734 L 3.210318342773437 2.03644734 M 3.542232660644531 1.7196068400000002 L 3.341865660644531 1.7196068400000002 L 3.341865660644531 1.6674788400000002 L 3.802872660644531 1.6674788400000002 L 3.802872660644531 1.7196068400000002 L 3.602505660644531 1.7196068400000002 L 3.602505660644531 2.23762884 L 3.542232660644531 2.23762884 L 3.542232660644531 1.7196068400000002 M 4.303362229980468 2.18550084 L 4.303362229980468 2.23762884 L 3.900184729980468 2.23762884 L 3.900184729980468 1.6674788400000002 L 4.291144729980468 1.6674788400000002 L 4.291144729980468 1.7196068400000002 L 3.960457729980468 1.7196068400000002 L 3.960457729980468 1.9224173400000002 L 4.255306729980468 1.9224173400000002 L 4.255306729980468 1.9737308400000002 L 3.960457729980468 1.9737308400000002 L 3.960457729980468 2.18550084 L 4.303362229980468 2.18550084 M 4.6169693876953115 1.9916498400000002 L 4.830368387695311 1.9916498400000002 L 4.830368387695311 2.0421488400000003 L 4.6169693876953115 2.0421488400000003 L 4.6169693876953115 1.9916498400000002 M 5.187968885742186 1.6674788400000002 L 5.248241885742186 1.6674788400000002 L 5.248241885742186 2.23762884 L 5.187968885742186 2.23762884 L 5.187968885742186 1.6674788400000002 M 5.911653726562498 1.6674788400000002 L 5.911653726562498 2.23762884 L 5.861969226562498 2.23762884 L 5.4954442265624985 1.7749928400000001 L 5.4954442265624985 2.23762884 L 5.435171226562498 2.23762884 L 5.435171226562498 1.6674788400000002 L 5.484855726562499 1.6674788400000002 L 5.852195226562499 2.13011484 L 5.852195226562499 1.6674788400000002 L 5.911653726562498 1.6674788400000002 M 6.209343931640623 1.7196068400000002 L 6.008976931640623 1.7196068400000002 L 6.008976931640623 1.6674788400000002 L 6.469983931640623 1.6674788400000002 L 6.469983931640623 1.7196068400000002 L 6.269616931640623 1.7196068400000002 L 6.269616931640623 2.23762884 L 6.209343931640623 2.23762884 L 6.209343931640623 1.7196068400000002 M 6.970473500976561 2.18550084 L 6.970473500976561 2.23762884 L 6.567296000976561 2.23762884 L 6.567296000976561 1.6674788400000002 L 6.958256000976561 1.6674788400000002 L 6.958256000976561 1.7196068400000002 L 6.627569000976561 1.7196068400000002 L 6.627569000976561 1.9224173400000002 L 6.9224180009765615 1.9224173400000002 L 6.9224180009765615 1.9737308400000002 L 6.627569000976561 1.9737308400000002 L 6.627569000976561 2.18550084 L 6.970473500976561 2.18550084 M 7.511690854248045 1.9525538400000002 L 7.569520354248045 1.9525538400000002 L 7.569520354248045 2.17002534 Q 7.529609854248045 2.2050488400000003 7.475038354248045 2.22378234 Q 7.420466854248045 2.2425158400000003 7.360193854248045 2.2425158400000003 Q 7.274671354248045 2.2425158400000003 7.206253354248045 2.2050488400000003 Q 7.137835354248045 2.16758184 7.098739354248045 2.1012000900000003 Q 7.0596433542480455 2.03481834 7.0596433542480455 1.9525538400000002 Q 7.0596433542480455 1.8702893400000002 7.098739354248045 1.8039075900000001 Q 7.137835354248045 1.7375258400000002 7.206253354248045 1.70005884 Q 7.274671354248045 1.6625918400000002 7.361008354248045 1.6625918400000002 Q 7.426168354248045 1.6625918400000002 7.4807398542480446 1.68336159 Q 7.535311354248045 1.7041313400000002 7.572778354248045 1.7448563400000001 L 7.535311354248045 1.7831378400000002 Q 7.467707854248045 1.7163488400000002 7.363451854248045 1.7163488400000002 Q 7.294219354248045 1.7163488400000002 7.238426104248045 1.7468925900000003 Q 7.182632854248045 1.7774363400000002 7.150867354248045 1.8316005900000003 Q 7.119101854248045 1.8857648400000002 7.119101854248045 1.9525538400000002 Q 7.119101854248045 2.01934284 7.150867354248045 2.0730998400000002 Q 7.182632854248045 2.1268568400000003 7.238018854248045 2.1578078400000003 Q 7.293404854248045 2.18875884 7.362637354248045 2.18875884 Q 7.450603354248045 2.18875884 7.511690854248045 2.1447758400000003 L 7.511690854248045 1.9525538400000002 M 8.130311956054685 2.23762884 L 7.999991956054686 2.05436634 Q 7.978000456054685 2.05680984 7.9543799560546855 2.05680984 L 7.801253956054686 2.05680984 L 7.801253956054686 2.23762884 L 7.740980956054686 2.23762884 L 7.740980956054686 1.6674788400000002 L 7.9543799560546855 1.6674788400000002 Q 8.063522956054685 1.6674788400000002 8.125424956054685 1.7196068400000002 Q 8.187326956054687 1.7717348400000001 8.187326956054687 1.8629588400000001 Q 8.187326956054687 1.92974784 8.153525206054686 1.9757670900000002 Q 8.119723456054686 2.0217863400000002 8.057006956054686 2.0421488400000003 L 8.196286456054686 2.23762884 L 8.130311956054685 2.23762884 M 8.082256456054687 1.9680293400000002 Q 8.127053956054686 1.9305623400000003 8.127053956054686 1.8629588400000001 Q 8.127053956054686 1.79372634 8.082256456054687 1.7566665900000002 Q 8.037458956054685 1.7196068400000002 7.952750956054686 1.7196068400000002 L 7.801253956054686 1.7196068400000002 L 7.801253956054686 2.00549634 L 7.952750956054686 2.00549634 Q 8.037458956054685 2.00549634 8.082256456054687 1.9680293400000002 M 8.68867000048828 2.08531734 L 8.37101500048828 2.08531734 L 8.30259700048828 2.23762884 L 8.23988050048828 2.23762884 L 8.50052050048828 1.6674788400000002 L 8.55997900048828 1.6674788400000002 L 8.82061900048828 2.23762884 L 8.757088000488281 2.23762884 L 8.68867000048828 2.08531734 M 8.66667850048828 2.03644734 L 8.52984250048828 1.7301953400000003 L 8.39300650048828 2.03644734 L 8.66667850048828 2.03644734 M 8.998592818359375 1.7196068400000002 L 8.798225818359375 1.7196068400000002 L 8.798225818359375 1.6674788400000002 L 9.259232818359374 1.6674788400000002 L 9.259232818359374 1.7196068400000002 L 9.058865818359374 1.7196068400000002 L 9.058865818359374 2.23762884 L 8.998592818359375 2.23762884 L 8.998592818359375 1.7196068400000002 M 9.759722387695312 2.18550084 L 9.759722387695312 2.23762884 L 9.356544887695312 2.23762884 L 9.356544887695312 1.6674788400000002 L 9.747504887695312 1.6674788400000002 L 9.747504887695312 1.7196068400000002 L 9.416817887695313 1.7196068400000002 L 9.416817887695313 1.9224173400000002 L 9.711666887695312 1.9224173400000002 L 9.711666887695312 1.9737308400000002 L 9.416817887695313 1.9737308400000002 L 9.416817887695313 2.18550084 L 9.759722387695312 2.18550084 M 10.073329545410157 1.9916498400000002 L 10.286728545410156 1.9916498400000002 L 10.286728545410156 2.0421488400000003 L 10.073329545410157 2.0421488400000003 L 10.073329545410157 1.9916498400000002 M 10.64432904345703 1.6674788400000002 L 10.704602043457031 1.6674788400000002 L 10.704602043457031 2.23762884 L 10.64432904345703 2.23762884 L 10.64432904345703 1.6674788400000002 M 11.483672884277343 1.6674788400000002 L 11.483672884277343 2.23762884 L 11.425843384277343 2.23762884 L 11.425843384277343 1.78150884 L 11.201855884277343 2.1651383400000004 L 11.173348384277343 2.1651383400000004 L 10.949360884277343 1.7839523400000001 L 10.949360884277343 2.23762884 L 10.891531384277343 2.23762884 L 10.891531384277343 1.6674788400000002 L 10.941215884277343 1.6674788400000002 L 11.188823884277342 2.09020434 L 11.433988384277344 1.6674788400000002 L 11.483672884277343 1.6674788400000002 M 12.055058553955078 1.7196068400000002 Q 12.116960553955078 1.7717348400000001 12.116960553955078 1.8629588400000001 Q 12.116960553955078 1.95418284 12.055058553955078 2.00590359 Q 11.993156553955078 2.0576243400000003 11.884013553955079 2.0576243400000003 L 11.730887553955078 2.0576243400000003 L 11.730887553955078 2.23762884 L 11.670614553955078 2.23762884 L 11.670614553955078 1.6674788400000002 L 11.884013553955079 1.6674788400000002 Q 11.993156553955078 1.6674788400000002 12.055058553955078 1.7196068400000002 M 12.011890053955078 1.96762209 Q 12.056687553955078 1.9305623400000003 12.056687553955078 1.8629588400000001 Q 12.056687553955078 1.79372634 12.011890053955078 1.7566665900000002 Q 11.967092553955078 1.7196068400000002 11.882384553955077 1.7196068400000002 L 11.730887553955078 1.7196068400000002 L 11.730887553955078 2.00468184 L 11.882384553955077 2.00468184 Q 11.967092553955078 2.00468184 12.011890053955078 1.96762209 M 12.577588541015624 2.08531734 L 12.259933541015624 2.08531734 L 12.191515541015624 2.23762884 L 12.128799041015624 2.23762884 L 12.389439041015624 1.6674788400000002 L 12.448897541015624 1.6674788400000002 L 12.709537541015624 2.23762884 L 12.646006541015625 2.23762884 L 12.577588541015624 2.08531734 M 12.555597041015623 2.03644734 L 12.418761041015625 1.7301953400000003 L 12.281925041015624 2.03644734 L 12.555597041015623 2.03644734 M 12.891961281005859 2.2050488400000003 Q 12.82395053100586 2.16758184 12.78526178100586 2.1012000900000003 Q 12.746573031005859 2.03481834 12.746573031005859 1.9525538400000002 Q 12.746573031005859 1.8702893400000002 12.78526178100586 1.8039075900000001 Q 12.82395053100586 1.7375258400000002 12.892368531005859 1.70005884 Q 12.960786531005859 1.6625918400000002 13.04549453100586 1.6625918400000002 Q 13.109025531005859 1.6625918400000002 13.16278253100586 1.6837688400000002 Q 13.216539531005859 1.7049458400000002 13.25400653100586 1.7456708400000003 L 13.21572503100586 1.7839523400000001 Q 13.14893603100586 1.7163488400000002 13.047123531005859 1.7163488400000002 Q 12.97952003100586 1.7163488400000002 12.92413403100586 1.7472998400000002 Q 12.86874803100586 1.77825084 12.837389781005859 1.8320078400000002 Q 12.806031531005859 1.8857648400000002 12.806031531005859 1.9525538400000002 Q 12.806031531005859 2.01934284 12.837389781005859 2.0730998400000002 Q 12.86874803100586 2.1268568400000003 12.92413403100586 2.1578078400000003 Q 12.97952003100586 2.18875884 13.047123531005859 2.18875884 Q 13.149750531005859 2.18875884 13.21572503100586 2.1203408400000003 L 13.25400653100586 2.15862234 Q 13.216539531005859 2.19934734 13.16237528100586 2.22093159 Q 13.10821103100586 2.2425158400000003 13.044680031005859 2.2425158400000003 Q 12.95997203100586 2.2425158400000003 12.891961281005859 2.2050488400000003 M 13.487378677734375 1.7196068400000002 L 13.287011677734375 1.7196068400000002 L 13.287011677734375 1.6674788400000002 L 13.748018677734374 1.6674788400000002 L 13.748018677734374 1.7196068400000002 L 13.547651677734374 1.7196068400000002 L 13.547651677734374 2.23762884 L 13.487378677734375 2.23762884 L 13.487378677734375 1.7196068400000002" fill="#525252" fill-rule="nonzero"></path></g><g clip-path="url(#SvgjsClipPath1004)"><g clip-path="url(#SvgjsClipPath10008e8545a9-39d4-4057-bc06-5d7c7b1e332c)"><path d=" M -1.0038185914373692 -0.8319696360290744 L -4.440917295107509 -0.8319696360290744 L -4.440917295107509 2.605129067641065 L -1.0038185914373692 2.605129067641065 Z M -4.580266478156868 -0.9713188190784336 L -4.580266478156868 2.744478250690424 L -0.8644694083880102 2.744478250690424 L -0.8644694083880102 -0.9713188190784336 Z" fill="#525252" transform="matrix(1,0,0,1,0,0)" fill-rule="evenodd"></path></g><g clip-path="url(#SvgjsClipPath10008e8545a9-39d4-4057-bc06-5d7c7b1e332c)"><path d=" M -0.5393491830493593 -0.36750022764106494 L -3.9764478867194994 -0.36750022764106494 L -3.9764478867194994 3.069598476029075 L -0.5393491830493593 3.069598476029075 Z M -4.115797069768859 -0.5068494106904241 L -4.115797069768859 3.208947659078434 L -0.40000000000000036 3.208947659078434 L -0.40000000000000036 -0.5068494106904241 Z" fill="#525252" transform="matrix(1,0,0,1,0,0)" fill-rule="evenodd"></path></g><path d=" M -3.3037768734905493 0.6061685668703436 L -3.0503833518007473 0.6061685668703436 C -2.9791011665084333 0.6061685668703436 -2.915386610476604 0.6147126644225045 -2.859239683705261 0.6318008595268264 C -2.8030927569339177 0.6488890546311482 -2.7589075667355996 0.6757419326522254 -2.726684113110307 0.712359493590058 C -2.6944606594850145 0.7489770545278907 -2.678348932672368 0.7970681178929109 -2.678348932672368 0.8566326836851187 C -2.678348932672368 0.9015502251021933 -2.686893030224529 0.9393883714046204 -2.703981225328851 0.9701471225923998 C -2.7210694204331727 1.000905873780179 -2.743284074068791 1.02482934692623 -2.7706251862357063 1.0419175420305518 C -2.7979662984026215 1.0590057371348736 -2.8267721130070496 1.0695027712703855 -2.857042630048991 1.0734086444370876 C -2.8082192154652144 1.0773145176037897 -2.7640340252668962 1.0909850736872473 -2.724487059454037 1.1144203126874603 C -2.684940093641178 1.1378555516876732 -2.6539372253804796 1.1691025370212902 -2.6314784546719423 1.2081612686883116 C -2.609019683963405 1.247220000355333 -2.5977902986091364 1.2931140100640832 -2.5977902986091364 1.3458432978145622 C -2.5977902986091364 1.4083372684817967 -2.614878493713458 1.4608224391593567 -2.6490548839221018 1.5032988098472426 C -2.683231274130746 1.5457751805351283 -2.731322337495766 1.577754517087502 -2.7933280740171624 1.599236819504364 C -2.855333810538559 1.6207191219212258 -2.9273483470496298 1.6314602731296568 -3.0093716835503748 1.6314602731296568 L -3.154377224864192 1.6314602731296568 C -3.154377224864192 1.6314602731296568 -3.154133107791273 1.6258455804525223 -3.1536448736454354 1.6146161950982536 C -3.1531566394995973 1.603386809743985 -3.1529125224266785 1.5924015414626354 -3.1529125224266785 1.5816603902542044 C -3.1529125224266785 1.5709192390457734 -3.1529125224266785 1.5655486634415579 -3.1529125224266785 1.5655486634415579 L -3.0738185908009603 1.5655486634415579 C -3.029877517675561 1.5655486634415579 -2.9910629030814584 1.557248682962316 -2.9573747470186524 1.5406487220038318 C -2.9236865909558465 1.5240487610453477 -2.897321947080607 1.4981723513159462 -2.8782808153929342 1.4630194928156266 C -2.859239683705261 1.4278666343153075 -2.8497191178614245 1.3829490928982329 -2.8497191178614245 1.3282668685644028 C -2.8497191178614245 1.285302263730679 -2.8563102788302346 1.2486847027928465 -2.8694926007678543 1.2184141857509048 C -2.882674922705474 1.1881436687089633 -2.9002513519556334 1.1634878443441559 -2.922221888518333 1.1444467126564828 C -2.9441924250810327 1.12540558096881 -2.9698247177375157 1.1114909078124335 -2.999118766487782 1.1027026931873536 C -3.028412815238048 1.093914478562274 -3.059171566425827 1.089520371249734 -3.0913950200511198 1.089520371249734 L -3.0913950200511198 1.0763380493121142 C -3.0689362493425825 1.0763380493121142 -3.046965712779883 1.072676293218331 -3.0254834103630213 1.0653527810307646 C -3.0040011079461593 1.058029268843198 -2.9847158591855676 1.0465557664160103 -2.967627664081246 1.030932273749202 C -2.950539468976924 1.0153087810823933 -2.937113029966385 0.9945588298842881 -2.9273483470496298 0.9686824201548864 C -2.9175836641328745 0.9428060104254847 -2.9127013226744967 0.9118031421647864 -2.9127013226744967 0.8756738153727915 C -2.9127013226744967 0.8258739324973392 -2.9205130690079013 0.7858387325386422 -2.9361365616747097 0.7555682154967005 C -2.951760054341518 0.725297698454759 -2.973486473831299 0.7033271618920595 -3.0013158201440517 0.689656605808602 C -3.0291451664568045 0.6759860497251444 -3.0621009713008536 0.6691507716834155 -3.1001832346761997 0.6691507716834155 L -3.289129849115416 0.6691507716834155 C -3.289129849115416 0.66817430339174 -3.2903504344800103 0.6625596107146057 -3.2927916052091994 0.6523066936520127 C -3.295232775938388 0.6420537765894194 -3.297673946667577 0.6318008595268263 -3.300115117396766 0.6215479424642332 C -3.3025562881259547 0.6112950254016402 -3.3037768734905493 0.6061685668703436 -3.3037768734905493 0.6061685668703436 M -3.141194902926572 0.6061685668703436 L -3.141194902926572 1.6314602731296568 L -3.360900268553568 1.6314602731296568 L -3.360900268553568 0.6061685668703436 L -3.141194902926572 0.6061685668703436 M -3.356506161241028 1.5245369951911856 L -3.356506161241028 1.6314602731296568 L -3.4736823562420924 1.6314602731296568 L -3.4736823562420924 1.6168132487545237 C -3.4717294196587414 1.6168132487545237 -3.468311780637877 1.6168132487545237 -3.463429439179499 1.6168132487545237 C -3.4585470977211217 1.6168132487545237 -3.455617692846095 1.6168132487545237 -3.4546412245544196 1.6168132487545237 C -3.4292530489708555 1.6168132487545237 -3.4075266294810747 1.607780917056525 -3.3894619660850775 1.5897162536605276 C -3.37139730268908 1.57165159026453 -3.3618767368452436 1.5499251707747494 -3.360900268553568 1.5245369951911856 L -3.356506161241028 1.5245369951911856 M -3.356506161241028 0.7130918448088148 L -3.360900268553568 0.7130918448088148 C -3.3618767368452436 0.6877036692252508 -3.37139730268908 0.66597724973547 -3.3894619660850775 0.6479125863394728 C -3.4075266294810747 0.6298479229434752 -3.4292530489708555 0.6208155912454766 -3.4546412245544196 0.6208155912454766 C -3.455617692846095 0.6208155912454766 -3.4585470977211217 0.6208155912454766 -3.463429439179499 0.6208155912454766 C -3.468311780637877 0.6208155912454766 -3.4717294196587414 0.6208155912454766 -3.4736823562420924 0.6208155912454766 L -3.4736823562420924 0.6061685668703436 L -3.356506161241028 0.6061685668703436 L -3.356506161241028 0.7130918448088148 M -1.9489521503265397 1.0001735225614226 L -1.5652001116980538 1.5260016976286988 C -1.5427413409895165 1.555295746378965 -1.5197943361351411 1.5775104000145834 -1.4963590971349285 1.5926456585355542 C -1.4729238581347155 1.607780917056525 -1.4460709801136384 1.6158367804628482 -1.415800463071697 1.6168132487545237 L -1.415800463071697 1.6314602731296568 L -1.5359060629477879 1.6314602731296568 C -1.5466472141562186 1.6314602731296568 -1.5644677604792976 1.630972038983819 -1.5893677019170234 1.6299955706921434 C -1.6142676433547494 1.6290191024004679 -1.642341106740421 1.6251132292337658 -1.6735880920740382 1.618277951192037 C -1.7048350774076557 1.6114426731503082 -1.7363261798141916 1.5994809365772829 -1.7680613992936467 1.582392741472961 C -1.7997966187731016 1.5653045463686392 -1.8273818480129354 1.5411369561496695 -1.8508170870131482 1.5098899708160525 C -1.855699428471526 1.5030546927743238 -1.865464111388281 1.489872370836704 -1.8801111357634144 1.4703430050031931 C -1.8947581601385475 1.4508136391696824 -1.9118463552428693 1.4273784001694696 -1.93137572107638 1.4000372880025547 C -1.9509050869098907 1.3726961758356395 -1.9711668039621582 1.344622712449968 -1.9921608722331823 1.3158168978455396 C -2.013154940504206 1.2870110832411112 -2.0329284234106355 1.2599140881471151 -2.0514813209524707 1.2345259125635513 C -2.070034218494306 1.2091377369799874 -2.084925359942358 1.188387785781882 -2.0961547452966265 1.1722760589692358 C -2.107384130650895 1.1561643321565895 -2.11299882332803 1.1481084687502663 -2.11299882332803 1.1481084687502663 L -1.9489521503265397 1.0001735225614226 M -1.5813118385107003 0.6164214839329367 L -2.0221872722022045 1.1393202541251863 L -2.11299882332803 1.1481084687502663 L -1.710205653011871 0.6164214839329367 L -1.5813118385107003 0.6164214839329367 M -1.4787826678847686 0.6061685668703436 L -1.4787826678847686 0.6193508888079633 L -1.4846414776348222 0.6193508888079633 C -1.5168649312601148 0.6193508888079633 -1.5468913312291375 0.6259420497767731 -1.5747206775418905 0.639124371714393 C -1.6025500238546433 0.6523066936520125 -1.626229379927775 0.6696390058292534 -1.6457587457612857 0.6911213082461153 L -1.7643996431998632 0.6881919033710886 C -1.752682023699757 0.6715919424126044 -1.7507290871164058 0.6559684497457958 -1.75854083344981 0.6413214253706628 C -1.7663525797832142 0.6266744009955297 -1.7800231358666718 0.6193508888079633 -1.7995525017001825 0.6193508888079633 L -1.8141995260753156 0.6193508888079633 L -1.8141995260753156 0.6061685668703436 L -1.4846414776348222 0.6061685668703436 L -1.4787826678847686 0.6061685668703436 M -2.1598693013284556 0.6061685668703436 L -2.1598693013284556 1.6314602731296568 L -2.379574666955451 1.6314602731296568 L -2.379574666955451 0.6061685668703436 L -2.1598693013284556 0.6061685668703436 M -2.375180559642911 1.5245369951911856 L -2.375180559642911 1.6314602731296568 L -2.4923567546439758 1.6314602731296568 L -2.4923567546439758 1.6168132487545237 C -2.4913802863523 1.6168132487545237 -2.488206764404355 1.6168132487545237 -2.4828361888001393 1.6168132487545237 C -2.477465613195924 1.6168132487545237 -2.474292091247978 1.6168132487545237 -2.473315622956303 1.6168132487545237 C -2.447927447372739 1.6168132487545237 -2.426201027882958 1.607780917056525 -2.4081363644869604 1.5897162536605276 C -2.3900717010909633 1.57165159026453 -2.380551135247127 1.5499251707747494 -2.379574666955451 1.5245369951911856 L -2.375180559642911 1.5245369951911856 M -2.375180559642911 0.7130918448088148 L -2.379574666955451 0.7130918448088148 C -2.380551135247127 0.6877036692252508 -2.3900717010909633 0.66597724973547 -2.4081363644869604 0.6479125863394728 C -2.426201027882958 0.6298479229434752 -2.447927447372739 0.6208155912454766 -2.473315622956303 0.6208155912454766 C -2.474292091247978 0.6208155912454766 -2.477465613195924 0.6208155912454766 -2.4828361888001393 0.6208155912454766 C -2.488206764404355 0.6208155912454766 -2.4913802863523 0.6208155912454766 -2.4923567546439758 0.6208155912454766 L -2.4923567546439758 0.6061685668703436 L -2.375180559642911 0.6061685668703436 L -2.375180559642911 0.7130918448088148 M -2.1642634086409958 1.5245369951911856 L -2.1598693013284556 1.5245369951911856 C -2.15889283303678 1.5499251707747494 -2.149372267192944 1.57165159026453 -2.1313076037969463 1.5897162536605276 C -2.1132429404009487 1.607780917056525 -2.091516520911168 1.6168132487545237 -2.066128345327604 1.6168132487545237 C -2.0651518770359285 1.6168132487545237 -2.061978355087983 1.6168132487545237 -2.056607779483768 1.6168132487545237 C -2.051237203879552 1.6168132487545237 -2.0480636819316067 1.6168132487545237 -2.047087213639931 1.6168132487545237 L -2.047087213639931 1.6314602731296568 L -2.1642634086409958 1.6314602731296568 L -2.1642634086409958 1.5245369951911856 M -2.1642634086409958 0.7130918448088148 L -2.1642634086409958 0.6061685668703436 L -2.047087213639931 0.6061685668703436 L -2.047087213639931 0.6208155912454766 C -2.0480636819316067 0.6208155912454766 -2.051237203879552 0.6208155912454766 -2.056607779483768 0.6208155912454766 C -2.061978355087983 0.6208155912454766 -2.0651518770359285 0.6208155912454766 -2.066128345327604 0.6208155912454766 C -2.091516520911168 0.6208155912454766 -2.1132429404009487 0.6298479229434752 -2.1313076037969463 0.6479125863394728 C -2.149372267192944 0.66597724973547 -2.15889283303678 0.6877036692252508 -2.1598693013284556 0.7130918448088148 L -2.1642634086409958 0.7130918448088148" fill="#1a702d" transform="matrix(1,0,0,1,0,0)" fill-rule="nonzero"></path></g></g><defs><clipPath id="SvgjsClipPath1004"><path d=" M -4.580266478156868 -0.9713188190784336 h 4.1802664781568675 v 4.1802664781568675 h -4.1802664781568675 Z"></path></clipPath><clipPath id="SvgjsClipPath10008e8545a9-39d4-4057-bc06-5d7c7b1e332c"><path d=" M -4.580266478156868 -0.9713188190784336 L -0.40000000000000036 -0.9713188190784336 L -0.40000000000000036 3.208947659078434 L -4.580266478156868 3.208947659078434 Z"></path></clipPath></defs></svg>