<svg xmlns="http://www.w3.org/2000/svg" version="1.1" xmlns:xlink="http://www.w3.org/1999/xlink" viewBox="0 0 13.837412186038819 1.9105445102575698"><g transform="matrix(1,0,0,1,0.385772255128785,0.6152722551287849)"><g clip-path="url(#SvgjsClipPath1001)"><g clip-path="url(#SvgjsClipPath100042384dba-24d3-4199-84cb-07900ad0a385)"><path d=" M 9.64436239890625 -0.1915314349999999 L 8.707853818906251 -0.1915314349999999 L 8.707853818906251 0.7449771449999999 L 9.64436239890625 0.7449771449999999 Z M 8.66988525390625 -0.22949999999999993 L 8.66988525390625 0.7829457099999998 L 9.68233096390625 0.7829457099999998 L 9.68233096390625 -0.22949999999999993 Z" fill="#ffffff" transform="matrix(1,0,0,1,0,0)" fill-rule="evenodd"></path></g><g clip-path="url(#SvgjsClipPath100042384dba-24d3-4199-84cb-07900ad0a385)"><path d=" M 9.77091668890625 -0.06497714499999994 L 8.834408108906251 -0.06497714499999994 L 8.834408108906251 0.8715314349999999 L 9.77091668890625 0.8715314349999999 Z M 8.796439543906251 -0.10294570999999991 L 8.796439543906251 0.9094999999999999 L 9.80888525390625 0.9094999999999999 L 9.80888525390625 -0.10294570999999991 Z" fill="#ffffff" transform="matrix(1,0,0,1,0,0)" fill-rule="evenodd"></path></g><path d=" M 9.01769122926981 0.20031904191616764 L 9.086733531408388 0.20031904191616764 C 9.106155836056237 0.20031904191616764 9.123516183703797 0.2026470578842315 9.138814574351075 0.20730308982035928 C 9.154112964998351 0.21195912175648698 9.166152133290339 0.219275743370402 9.174932079227037 0.22925295466210432 C 9.183712025163736 0.23923016595380664 9.188101998132085 0.252333570116909 9.188101998132085 0.26856316715141143 C 9.188101998132085 0.280801879669233 9.18577398216402 0.29111166467065863 9.181117950227893 0.29949252215568856 C 9.176461918291764 0.3078733796407185 9.1704090767748 0.31439182435129737 9.162959425676995 0.3190478562874251 C 9.15550977457919 0.32370388822355284 9.147661035029717 0.32656402212717417 9.139413207028577 0.32762825799828904 C 9.152716155417513 0.32869249386940397 9.164755323709501 0.33241731941830616 9.175530711904539 0.33880273464499566 C 9.186306100099578 0.34518814987168517 9.194753472326553 0.3537020368406044 9.200872828585464 0.3643443955517536 C 9.206992184844374 0.3749867542629027 9.21005186297383 0.38749152574850293 9.21005186297383 0.4018587100085543 C 9.21005186297383 0.4188864839463929 9.205395831037702 0.4331871534644995 9.196083767165446 0.4447607185628742 C 9.186771703293191 0.45633428366124884 9.173668299130089 0.46504771485600216 9.156773554676139 0.47090101214713426 C 9.13987881022219 0.47675430943826624 9.120256961348508 0.47968095808383227 9.097908008055095 0.47968095808383227 L 9.058398251339954 0.47968095808383227 C 9.058398251339954 0.47968095808383227 9.058464766081899 0.47815111901910456 9.058597795565788 0.47509144088964916 C 9.058730825049677 0.4720317627601938 9.058797339791623 0.46903859937268316 9.058797339791623 0.4661119507271171 C 9.058797339791623 0.46318530208155106 9.058797339791623 0.4617219777587681 9.058797339791623 0.4617219777587681 L 9.0803481161817 0.4617219777587681 C 9.092320769731742 0.4617219777587681 9.102896613700947 0.4594604765326489 9.112075648089313 0.4549374740804105 C 9.121254682477678 0.45041447162817216 9.128438274607705 0.44336390898203587 9.13362642447939 0.43378578614200164 C 9.138814574351075 0.4242076633019674 9.141408649286918 0.41196895078414597 9.141408649286918 0.39706964858853716 C 9.141408649286918 0.3853630540062731 9.139612751254411 0.3753858427145708 9.136020955189398 0.3671380147134302 C 9.132429159124385 0.35889018671228967 9.127640097704369 0.35217219777587677 9.121653770929347 0.3469840479041915 C 9.115667444154326 0.3417958980325063 9.108683396250134 0.3380045577416595 9.100701627216772 0.3356100270316509 C 9.09271985818341 0.3332154963216424 9.08433900069838 0.33201823096663813 9.075559054761682 0.33201823096663813 L 9.075559054761682 0.32842643490162526 C 9.081678411020594 0.32842643490162526 9.087664737795615 0.327428713772455 9.093518035086747 0.3254332715141146 C 9.099371332377878 0.32343782925577413 9.104625996991508 0.32031163638437404 9.109282028927636 0.3160546928999144 C 9.113938060863763 0.3117977494154548 9.117596371670722 0.30614399635015677 9.120256961348508 0.29909343370402053 C 9.122917551026296 0.2920428710578842 9.12424784586519 0.2835954988309096 9.12424784586519 0.27375131702309663 C 9.12424784586519 0.26018230966638145 9.12211937412296 0.24927389198745362 9.1178624306385 0.24102606398631304 C 9.113605487154041 0.23277823598517247 9.107685675120964 0.2267919092101511 9.10010299453927 0.22306708366124892 C 9.092520313957577 0.2193422581123467 9.083540823795044 0.21747984533789558 9.073164524051673 0.21747984533789558 L 9.02168211378649 0.21747984533789558 C 9.02168211378649 0.21721378637011687 9.021349540076766 0.21568394730538917 9.02068439265732 0.21289032814371256 C 9.020019245237872 0.2100967089820359 9.019354097818425 0.20730308982035925 9.01868895039898 0.20450947065868258 C 9.018023802979533 0.20171585149700597 9.01769122926981 0.20031904191616764 9.01769122926981 0.20031904191616764 M 9.061990047404967 0.20031904191616764 L 9.061990047404967 0.47968095808383227 L 9.002126779654754 0.47968095808383227 L 9.002126779654754 0.20031904191616764 L 9.061990047404967 0.20031904191616764 M 9.003324045009757 0.45054750111206154 L 9.003324045009757 0.47968095808383227 L 8.971396968876311 0.47968095808383227 L 8.971396968876311 0.4756900735671513 C 8.971929086811867 0.4756900735671513 8.972860293199092 0.4756900735671513 8.974190588037986 0.4756900735671513 C 8.97552088287688 0.4756900735671513 8.976319059780216 0.4756900735671513 8.976585118747995 0.4756900735671513 C 8.983502651910243 0.4756900735671513 8.989422463943319 0.47322902811519807 8.994344554847226 0.46830693721129163 C 8.999266645751131 0.46338484630738513 9.001860720686974 0.45746503427430846 9.002126779654754 0.45054750111206154 L 9.003324045009757 0.45054750111206154 M 9.003324045009757 0.2294524988879384 L 9.002126779654754 0.2294524988879384 C 9.001860720686974 0.22253496572569145 8.999266645751131 0.21661515369261472 8.994344554847226 0.21169306278870828 C 8.989422463943319 0.2067709718848018 8.983502651910243 0.20430992643284857 8.976585118747995 0.20430992643284857 C 8.976319059780216 0.20430992643284857 8.97552088287688 0.20430992643284857 8.974190588037986 0.20430992643284857 C 8.972860293199092 0.20430992643284857 8.971929086811867 0.20430992643284857 8.971396968876311 0.20430992643284857 L 8.971396968876311 0.20031904191616764 L 9.003324045009757 0.20031904191616764 L 9.003324045009757 0.2294524988879384 M 9.386841226703513 0.30767383541488447 L 9.491402401040553 0.4509465895637296 C 9.497521757299463 0.45892835859709147 9.503774143042264 0.4649812001140575 9.510159558268953 0.4691051141146278 C 9.516544973495643 0.47322902811519807 9.523861595109558 0.4754240145993726 9.532109423110699 0.4756900735671513 L 9.532109423110699 0.47968095808383227 L 9.499384170073915 0.47968095808383227 C 9.496457521428349 0.47968095808383227 9.491601945266387 0.4795479285999429 9.48481744158803 0.4792818696321642 C 9.478032937909672 0.4790158106643854 9.470383742586034 0.47795157479327055 9.461869855617115 0.47608916201881946 C 9.453355968648195 0.47422674924436836 9.44477556693733 0.4709675268890789 9.436128650484521 0.46631149495295116 C 9.427481734031714 0.4616554630168234 9.419965568191964 0.4550705035642999 9.413580152965276 0.4465566165953806 C 9.412249858126382 0.4446942038209295 9.409589268448594 0.4411024077559167 9.405598383931913 0.43578122840034206 C 9.401607499415233 0.43046004904476753 9.396951467479104 0.4240746338180781 9.39163028812353 0.4166249827202737 C 9.386309108767955 0.4091753316224693 9.380788385186547 0.4015261362988308 9.375068117379303 0.39367739674935837 C 9.369347849572062 0.3858286571998859 9.363960155474542 0.37844552084402616 9.358905035086746 0.37152798768177925 C 9.35384991469895 0.36461045451953233 9.349792515440324 0.3589567014542343 9.346732837310869 0.35456672848588533 C 9.343673159181414 0.3501767555175363 9.342143320116687 0.3479817690333618 9.342143320116687 0.3479817690333618 L 9.386841226703513 0.30767383541488447 M 9.487012428072203 0.2031126610778443 L 9.366886804120108 0.34558723832335325 L 9.342143320116687 0.3479817690333618 L 9.451892644325412 0.2031126610778443 L 9.487012428072203 0.2031126610778443 M 9.51494861968897 0.20031904191616764 L 9.51494861968897 0.20391083798118048 L 9.513352265882299 0.20391083798118048 C 9.5045723199456 0.20391083798118048 9.496391006686403 0.20570673601368689 9.48880832610471 0.20929853207869975 C 9.481225645523017 0.21289032814371253 9.474773715554383 0.21761287482178499 9.469452536198808 0.22346617211291703 L 9.437126371613692 0.22266799520958083 C 9.440319079227038 0.21814499275734245 9.440851197162594 0.21388804927288277 9.438722725420364 0.20989716475620185 C 9.436594253678136 0.20590628023952093 9.432869428129234 0.20391083798118048 9.427548248773657 0.20391083798118048 L 9.423557364256977 0.20391083798118048 L 9.423557364256977 0.20031904191616764 L 9.513352265882299 0.20031904191616764 L 9.51494861968897 0.20031904191616764 M 9.329372489663308 0.20031904191616764 L 9.329372489663308 0.47968095808383227 L 9.269509221913093 0.47968095808383227 L 9.269509221913093 0.20031904191616764 L 9.329372489663308 0.20031904191616764 M 9.270706487268098 0.45054750111206154 L 9.270706487268098 0.47968095808383227 L 9.23877941113465 0.47968095808383227 L 9.23877941113465 0.4756900735671513 C 9.239045470102429 0.4756900735671513 9.23991016174771 0.4756900735671513 9.241373486070493 0.4756900735671513 C 9.242836810393277 0.4756900735671513 9.243701502038558 0.4756900735671513 9.243967561006336 0.4756900735671513 C 9.250885094168583 0.4756900735671513 9.25680490620166 0.47322902811519807 9.261726997105566 0.46830693721129163 C 9.266649088009473 0.46338484630738513 9.269243162945315 0.45746503427430846 9.269509221913093 0.45054750111206154 L 9.270706487268098 0.45054750111206154 M 9.270706487268098 0.2294524988879384 L 9.269509221913093 0.2294524988879384 C 9.269243162945315 0.22253496572569145 9.266649088009473 0.21661515369261472 9.261726997105566 0.21169306278870828 C 9.25680490620166 0.2067709718848018 9.250885094168583 0.20430992643284857 9.243967561006336 0.20430992643284857 C 9.243701502038558 0.20430992643284857 9.242836810393277 0.20430992643284857 9.241373486070493 0.20430992643284857 C 9.23991016174771 0.20430992643284857 9.239045470102429 0.20430992643284857 9.23877941113465 0.20430992643284857 L 9.23877941113465 0.20031904191616764 L 9.270706487268098 0.20031904191616764 L 9.270706487268098 0.2294524988879384 M 9.328175224308303 0.45054750111206154 L 9.329372489663308 0.45054750111206154 C 9.329638548631086 0.45746503427430846 9.332232623566929 0.46338484630738513 9.337154714470836 0.46830693721129163 C 9.342076805374742 0.47322902811519807 9.34799661740782 0.4756900735671513 9.354914150570066 0.4756900735671513 C 9.355180209537844 0.4756900735671513 9.356044901183125 0.4756900735671513 9.357508225505908 0.4756900735671513 C 9.358971549828691 0.4756900735671513 9.359836241473971 0.4756900735671513 9.360102300441751 0.4756900735671513 L 9.360102300441751 0.47968095808383227 L 9.328175224308303 0.47968095808383227 L 9.328175224308303 0.45054750111206154 M 9.328175224308303 0.2294524988879384 L 9.328175224308303 0.20031904191616764 L 9.360102300441751 0.20031904191616764 L 9.360102300441751 0.20430992643284857 C 9.359836241473971 0.20430992643284857 9.358971549828691 0.20430992643284857 9.357508225505908 0.20430992643284857 C 9.356044901183125 0.20430992643284857 9.355180209537844 0.20430992643284857 9.354914150570066 0.20430992643284857 C 9.34799661740782 0.20430992643284857 9.342076805374742 0.2067709718848018 9.337154714470836 0.21169306278870828 C 9.332232623566929 0.21661515369261472 9.329638548631086 0.22253496572569145 9.329372489663308 0.2294524988879384 L 9.328175224308303 0.2294524988879384" fill="#ffffff" transform="matrix(1,0,0,1,0,0)" fill-rule="nonzero"></path></g><g><path d=" M 0.225 0.6699999999999999 L 0.225 0.6539999999999999 L 0.315 0.6139999999999999 L 0.315 0.36199999999999993 L 0.094 0.06099999999999994 L 0.031 0.025999999999999912 L 0.031 0.009999999999999898 L 0.289 0.009999999999999898 L 0.289 0.025999999999999912 L 0.216 0.061999999999999944 L 0.216 0.06599999999999995 L 0.393 0.30699999999999994 L 0.553 0.06699999999999995 L 0.553 0.06299999999999994 L 0.47900000000000004 0.025999999999999912 L 0.47900000000000004 0.009999999999999898 L 0.6950000000000001 0.009999999999999898 L 0.6950000000000001 0.025999999999999912 L 0.63 0.05899999999999994 L 0.419 0.36099999999999993 L 0.419 0.6139999999999999 L 0.509 0.6539999999999999 L 0.509 0.6699999999999999 L 0.225 0.6699999999999999 M 1.08898828125 0.6799999999999999 Q 1.01698828125 0.6799999999999999 0.9554882812500001 0.6545 Q 0.89398828125 0.6289999999999999 0.84848828125 0.5834999999999999 Q 0.80298828125 0.5379999999999999 0.77798828125 0.4759999999999999 Q 0.75298828125 0.4139999999999999 0.75298828125 0.3399999999999999 Q 0.75298828125 0.2659999999999999 0.77798828125 0.2039999999999999 Q 0.80298828125 0.1419999999999999 0.84848828125 0.09649999999999992 Q 0.89398828125 0.050999999999999934 0.9554882812500001 0.025499999999999967 Q 1.01698828125 -1.1102230246251565e-16 1.08898828125 -1.1102230246251565e-16 Q 1.16098828125 -1.1102230246251565e-16 1.22248828125 0.025499999999999967 Q 1.28398828125 0.050999999999999934 1.32948828125 0.09649999999999992 Q 1.37498828125 0.1419999999999999 1.40048828125 0.2039999999999999 Q 1.42598828125 0.2659999999999999 1.42598828125 0.3399999999999999 Q 1.42598828125 0.4139999999999999 1.40048828125 0.4759999999999999 Q 1.37498828125 0.5379999999999999 1.32948828125 0.5834999999999999 Q 1.28398828125 0.6289999999999999 1.22248828125 0.6545 Q 1.16098828125 0.6799999999999999 1.08898828125 0.6799999999999999 M 1.10898828125 0.6299999999999999 Q 1.16998828125 0.6299999999999999 1.21598828125 0.5979999999999999 Q 1.26198828125 0.566 1.28798828125 0.5079999999999999 Q 1.31398828125 0.44999999999999996 1.31398828125 0.37099999999999994 Q 1.31398828125 0.2739999999999999 1.2819882812499999 0.2014999999999999 Q 1.24998828125 0.1289999999999999 1.1949882812500001 0.08899999999999997 Q 1.13998828125 0.04899999999999993 1.07298828125 0.04899999999999993 Q 1.01198828125 0.04899999999999993 0.96498828125 0.0804999999999999 Q 0.91798828125 0.11199999999999988 0.89148828125 0.16999999999999993 Q 0.86498828125 0.22799999999999992 0.86498828125 0.30699999999999994 Q 0.86498828125 0.4039999999999999 0.89748828125 0.4769999999999999 Q 0.92998828125 0.5499999999999999 0.98548828125 0.59 Q 1.04098828125 0.6299999999999999 1.10898828125 0.6299999999999999 M 1.89099462890625 0.6799999999999999 Q 1.81399462890625 0.6799999999999999 1.75299462890625 0.6519999999999999 Q 1.69199462890625 0.6239999999999999 1.65749462890625 0.564 Q 1.62299462890625 0.5039999999999999 1.62299462890625 0.4069999999999999 L 1.62299462890625 0.06599999999999995 L 1.54199462890625 0.025999999999999912 L 1.54199462890625 0.009999999999999898 L 1.80899462890625 0.009999999999999898 L 1.80899462890625 0.025999999999999912 L 1.72799462890625 0.06599999999999995 L 1.72799462890625 0.3959999999999999 Q 1.72799462890625 0.4789999999999999 1.75399462890625 0.5274999999999999 Q 1.77999462890625 0.576 1.82399462890625 0.597 Q 1.8679946289062501 0.6179999999999999 1.92299462890625 0.6179999999999999 Q 1.9669946289062499 0.6179999999999999 2.00449462890625 0.5994999999999999 Q 2.04199462890625 0.581 2.06449462890625 0.5394999999999999 Q 2.08699462890625 0.4979999999999999 2.08699462890625 0.43099999999999994 L 2.08699462890625 0.06399999999999995 L 1.9889946289062501 0.025999999999999912 L 1.9889946289062501 0.009999999999999898 L 2.2379946289062502 0.009999999999999898 L 2.2379946289062502 0.025999999999999912 L 2.15699462890625 0.06499999999999995 L 2.15699462890625 0.4069999999999999 Q 2.15699462890625 0.5039999999999999 2.12249462890625 0.564 Q 2.08799462890625 0.6239999999999999 2.0279946289062503 0.6519999999999999 Q 1.96799462890625 0.6799999999999999 1.89099462890625 0.6799999999999999 M 2.3579736328125 0.6699999999999999 L 2.3579736328125 0.6539999999999999 L 2.4389736328125 0.6139999999999999 L 2.4389736328125 0.06599999999999995 L 2.3579736328125 0.025999999999999912 L 2.3579736328125 0.009999999999999898 L 2.6359736328125 0.009999999999999898 Q 2.7409736328125 0.009999999999999898 2.8014736328125 0.05349999999999988 Q 2.8619736328125 0.09699999999999986 2.8619736328125 0.17299999999999993 Q 2.8619736328125 0.22899999999999993 2.8239736328125 0.2719999999999999 Q 2.7859736328125 0.31499999999999995 2.7239736328125 0.3379999999999999 L 2.9129736328125 0.6169999999999999 L 2.9799736328125 0.6539999999999999 L 2.9799736328125 0.6699999999999999 L 2.8189736328125 0.6699999999999999 L 2.6269736328125 0.36599999999999994 L 2.5439736328125 0.36599999999999994 L 2.5439736328125 0.6129999999999999 L 2.6189736328125 0.6539999999999999 L 2.6189736328125 0.6699999999999999 L 2.3579736328125 0.6699999999999999 M 2.6029736328125 0.06499999999999995 L 2.5439736328125 0.06499999999999995 L 2.5439736328125 0.31299999999999994 L 2.6089736328125 0.31299999999999994 Q 2.6709736328125 0.31299999999999994 2.7114736328125 0.2774999999999999 Q 2.7519736328125 0.24199999999999994 2.7519736328125 0.18699999999999994 Q 2.7519736328125 0.1299999999999999 2.7124736328125 0.09749999999999992 Q 2.6729736328125 0.06499999999999995 2.6029736328125 0.06499999999999995 M 3.6249755859375 0.6799999999999999 Q 3.5219755859375 0.6799999999999999 3.4469755859375 0.6379999999999999 Q 3.3719755859375 0.596 3.3309755859375 0.5229999999999999 Q 3.2899755859375 0.44999999999999996 3.2899755859375 0.35699999999999993 Q 3.2899755859375 0.2849999999999999 3.3179755859375 0.22099999999999992 Q 3.3459755859375 0.15699999999999992 3.3944755859375 0.10699999999999987 Q 3.4429755859375 0.05699999999999994 3.5059755859375 0.02849999999999997 Q 3.5689755859375 -1.1102230246251565e-16 3.6399755859375 -1.1102230246251565e-16 Q 3.6909755859375 -1.1102230246251565e-16 3.7259755859375 0.00649999999999995 Q 3.7609755859375 0.0129999999999999 3.7884755859375 0.023499999999999965 Q 3.8159755859375 0.03399999999999992 3.8439755859374998 0.04799999999999993 L 3.8499755859375 0.22599999999999992 L 3.8319755859375 0.22599999999999992 L 3.7629755859375003 0.09599999999999986 Q 3.7289755859375 0.07199999999999995 3.7014755859375 0.06099999999999994 Q 3.6739755859375 0.04999999999999993 3.6399755859375 0.04999999999999993 Q 3.5709755859375 0.04999999999999993 3.5159755859375 0.08599999999999997 Q 3.4609755859375 0.12199999999999989 3.4294755859375 0.18549999999999994 Q 3.3979755859375 0.24899999999999994 3.3979755859375 0.3319999999999999 Q 3.3979755859375 0.42499999999999993 3.4284755859375 0.49149999999999994 Q 3.4589755859375 0.5579999999999999 3.5109755859375 0.593 Q 3.5629755859375 0.6279999999999999 3.6259755859375 0.6279999999999999 Q 3.6779755859375 0.6279999999999999 3.7134755859375 0.6139999999999999 Q 3.7489755859375 0.5999999999999999 3.7769755859375 0.581 L 3.8439755859374998 0.4689999999999999 L 3.8609755859375 0.4689999999999999 L 3.8489755859375 0.6299999999999999 Q 3.8049755859375 0.6519999999999999 3.7549755859375002 0.6659999999999999 Q 3.7049755859375 0.6799999999999999 3.6249755859375 0.6799999999999999 M 4.34796044921875 0.6799999999999999 Q 4.27596044921875 0.6799999999999999 4.21446044921875 0.6545 Q 4.15296044921875 0.6289999999999999 4.10746044921875 0.5834999999999999 Q 4.06196044921875 0.5379999999999999 4.03696044921875 0.4759999999999999 Q 4.01196044921875 0.4139999999999999 4.01196044921875 0.3399999999999999 Q 4.01196044921875 0.2659999999999999 4.03696044921875 0.2039999999999999 Q 4.06196044921875 0.1419999999999999 4.10746044921875 0.09649999999999992 Q 4.15296044921875 0.050999999999999934 4.21446044921875 0.025499999999999967 Q 4.27596044921875 -1.1102230246251565e-16 4.34796044921875 -1.1102230246251565e-16 Q 4.41996044921875 -1.1102230246251565e-16 4.4814604492187495 0.025499999999999967 Q 4.54296044921875 0.050999999999999934 4.58846044921875 0.09649999999999992 Q 4.63396044921875 0.1419999999999999 4.65946044921875 0.2039999999999999 Q 4.6849604492187495 0.2659999999999999 4.6849604492187495 0.3399999999999999 Q 4.6849604492187495 0.4139999999999999 4.65946044921875 0.4759999999999999 Q 4.63396044921875 0.5379999999999999 4.58846044921875 0.5834999999999999 Q 4.54296044921875 0.6289999999999999 4.4814604492187495 0.6545 Q 4.41996044921875 0.6799999999999999 4.34796044921875 0.6799999999999999 M 4.36796044921875 0.6299999999999999 Q 4.42896044921875 0.6299999999999999 4.4749604492187505 0.5979999999999999 Q 4.52096044921875 0.566 4.54696044921875 0.5079999999999999 Q 4.57296044921875 0.44999999999999996 4.57296044921875 0.37099999999999994 Q 4.57296044921875 0.2739999999999999 4.54096044921875 0.2014999999999999 Q 4.50896044921875 0.1289999999999999 4.45396044921875 0.08899999999999997 Q 4.39896044921875 0.04899999999999993 4.33196044921875 0.04899999999999993 Q 4.27096044921875 0.04899999999999993 4.22396044921875 0.0804999999999999 Q 4.17696044921875 0.11199999999999988 4.15046044921875 0.16999999999999993 Q 4.12396044921875 0.22799999999999992 4.12396044921875 0.30699999999999994 Q 4.12396044921875 0.4039999999999999 4.15646044921875 0.4769999999999999 Q 4.18896044921875 0.5499999999999999 4.24446044921875 0.59 Q 4.29996044921875 0.6299999999999999 4.36796044921875 0.6299999999999999 M 4.80191064453125 0.6699999999999999 L 4.80191064453125 0.6539999999999999 L 4.88191064453125 0.6139999999999999 L 4.90291064453125 0.06599999999999995 L 4.81691064453125 0.025999999999999912 L 4.81691064453125 0.009999999999999898 L 5.01591064453125 0.009999999999999898 L 5.23991064453125 0.5269999999999999 L 5.46291064453125 0.009999999999999898 L 5.65391064453125 0.009999999999999898 L 5.65391064453125 0.025999999999999912 L 5.56891064453125 0.06299999999999994 L 5.58591064453125 0.6139999999999999 L 5.65791064453125 0.6539999999999999 L 5.65791064453125 0.6699999999999999 L 5.41091064453125 0.6699999999999999 L 5.41091064453125 0.6539999999999999 L 5.48591064453125 0.6149999999999999 L 5.47591064453125 0.1259999999999999 L 5.23991064453125 0.6749999999999999 L 5.19191064453125 0.6749999999999999 L 4.95791064453125 0.1319999999999999 L 4.94491064453125 0.6149999999999999 L 5.02791064453125 0.6539999999999999 L 5.02791064453125 0.6699999999999999 L 4.80191064453125 0.6699999999999999 M 5.77392822265625 0.6699999999999999 L 5.77392822265625 0.6539999999999999 L 5.85492822265625 0.6139999999999999 L 5.85492822265625 0.06599999999999995 L 5.77392822265625 0.025999999999999912 L 5.77392822265625 0.009999999999999898 L 6.05392822265625 0.009999999999999898 Q 6.17192822265625 0.009999999999999898 6.24342822265625 0.052999999999999936 Q 6.31492822265625 0.09599999999999986 6.31492822265625 0.18899999999999995 Q 6.31492822265625 0.24399999999999994 6.27742822265625 0.2864999999999999 Q 6.23992822265625 0.3289999999999999 6.17592822265625 0.3534999999999999 Q 6.11192822265625 0.37799999999999995 6.02992822265625 0.37799999999999995 L 5.95992822265625 0.37799999999999995 L 5.95992822265625 0.6139999999999999 L 6.05192822265625 0.6539999999999999 L 6.05192822265625 0.6699999999999999 L 5.77392822265625 0.6699999999999999 M 5.95992822265625 0.06499999999999995 L 5.95992822265625 0.3249999999999999 L 6.03592822265625 0.3249999999999999 Q 6.11492822265625 0.3249999999999999 6.15992822265625 0.2889999999999999 Q 6.20492822265625 0.25299999999999995 6.20492822265625 0.1969999999999999 Q 6.20492822265625 0.1269999999999999 6.15942822265625 0.09599999999999986 Q 6.11392822265625 0.06499999999999995 6.02892822265625 0.06499999999999995 L 5.95992822265625 0.06499999999999995 M 6.313935546875 0.6699999999999999 L 6.313935546875 0.6539999999999999 L 6.376935546875 0.6209999999999999 L 6.633935546875 0.004999999999999893 L 6.688935546875 0.004999999999999893 L 6.942935546875 0.6179999999999999 L 7.009935546875 0.6539999999999999 L 7.009935546875 0.6699999999999999 L 6.745935546875 0.6699999999999999 L 6.745935546875 0.6539999999999999 L 6.833935546875 0.6189999999999999 L 6.759935546875 0.43899999999999995 L 6.518935546875 0.43899999999999995 L 6.445935546875 0.6199999999999999 L 6.529935546875 0.6539999999999999 L 6.529935546875 0.6699999999999999 L 6.313935546875 0.6699999999999999 M 6.541935546875 0.3839999999999999 L 6.737935546875 0.3839999999999999 L 6.639935546875 0.1429999999999999 L 6.541935546875 0.3839999999999999 M 7.0959169921875 0.6699999999999999 L 7.0959169921875 0.6539999999999999 L 7.1769169921875005 0.6139999999999999 L 7.1769169921875005 0.06799999999999995 L 7.0969169921875 0.025999999999999912 L 7.0969169921875 0.009999999999999898 L 7.2539169921875 0.009999999999999898 L 7.6369169921874995 0.4809999999999999 L 7.6369169921874995 0.06499999999999995 L 7.5339169921875 0.025999999999999912 L 7.5339169921875 0.009999999999999898 L 7.7869169921875 0.009999999999999898 L 7.7869169921875 0.025999999999999912 L 7.7069169921875 0.06499999999999995 L 7.7069169921875 0.6749999999999999 L 7.6639169921875 0.6749999999999999 L 7.2469169921875 0.16299999999999992 L 7.2469169921875 0.6149999999999999 L 7.3499169921875 0.6539999999999999 L 7.3499169921875 0.6699999999999999 L 7.0959169921875 0.6699999999999999 M 8.0678955078125 0.6699999999999999 L 8.0678955078125 0.6539999999999999 L 8.1578955078125 0.6139999999999999 L 8.1578955078125 0.36199999999999993 L 7.9368955078125 0.06099999999999994 L 7.8738955078125 0.025999999999999912 L 7.8738955078125 0.009999999999999898 L 8.1318955078125 0.009999999999999898 L 8.1318955078125 0.025999999999999912 L 8.0588955078125 0.061999999999999944 L 8.0588955078125 0.06599999999999995 L 8.2358955078125 0.30699999999999994 L 8.3958955078125 0.06699999999999995 L 8.3958955078125 0.06299999999999994 L 8.3218955078125 0.025999999999999912 L 8.3218955078125 0.009999999999999898 L 8.5378955078125 0.009999999999999898 L 8.5378955078125 0.025999999999999912 L 8.4728955078125 0.05899999999999994 L 8.2618955078125 0.36099999999999993 L 8.2618955078125 0.6139999999999999 L 8.3518955078125 0.6539999999999999 L 8.3518955078125 0.6699999999999999 L 8.0678955078125 0.6699999999999999" fill="#ffffff" fill-rule="nonzero"></path></g><g><path d=" M 9.964885253906248 0.6699999999999999 L 9.964885253906248 0.6539999999999999 L 10.045885253906249 0.6139999999999999 L 10.045885253906249 0.06799999999999995 L 9.965885253906249 0.025999999999999912 L 9.965885253906249 0.009999999999999898 L 10.122885253906249 0.009999999999999898 L 10.505885253906248 0.4809999999999999 L 10.505885253906248 0.06499999999999995 L 10.402885253906248 0.025999999999999912 L 10.402885253906248 0.009999999999999898 L 10.655885253906249 0.009999999999999898 L 10.655885253906249 0.025999999999999912 L 10.575885253906248 0.06499999999999995 L 10.575885253906248 0.6749999999999999 L 10.53288525390625 0.6749999999999999 L 10.11588525390625 0.16299999999999992 L 10.11588525390625 0.6149999999999999 L 10.21888525390625 0.6539999999999999 L 10.21888525390625 0.6699999999999999 L 9.964885253906248 0.6699999999999999 M 10.712872070312498 0.6699999999999999 L 10.712872070312498 0.6539999999999999 L 10.775872070312499 0.6209999999999999 L 11.032872070312498 0.004999999999999893 L 11.087872070312498 0.004999999999999893 L 11.3418720703125 0.6179999999999999 L 11.408872070312498 0.6539999999999999 L 11.408872070312498 0.6699999999999999 L 11.144872070312498 0.6699999999999999 L 11.144872070312498 0.6539999999999999 L 11.2328720703125 0.6189999999999999 L 11.1588720703125 0.43899999999999995 L 10.917872070312498 0.43899999999999995 L 10.8448720703125 0.6199999999999999 L 10.928872070312499 0.6539999999999999 L 10.928872070312499 0.6699999999999999 L 10.712872070312498 0.6699999999999999 M 10.940872070312498 0.3839999999999999 L 11.1368720703125 0.3839999999999999 L 11.038872070312499 0.1429999999999999 L 10.940872070312498 0.3839999999999999 M 11.494853515624998 0.6699999999999999 L 11.494853515624998 0.6539999999999999 L 11.574853515624998 0.6139999999999999 L 11.595853515624999 0.06599999999999995 L 11.509853515624998 0.025999999999999912 L 11.509853515624998 0.009999999999999898 L 11.708853515624998 0.009999999999999898 L 11.932853515624998 0.5269999999999999 L 12.155853515625 0.009999999999999898 L 12.346853515624998 0.009999999999999898 L 12.346853515624998 0.025999999999999912 L 12.261853515624999 0.06299999999999994 L 12.278853515624998 0.6139999999999999 L 12.350853515625 0.6539999999999999 L 12.350853515625 0.6699999999999999 L 12.103853515624998 0.6699999999999999 L 12.103853515624998 0.6539999999999999 L 12.178853515624999 0.6149999999999999 L 12.168853515624999 0.1259999999999999 L 11.932853515624998 0.6749999999999999 L 11.884853515624998 0.6749999999999999 L 11.650853515624998 0.1319999999999999 L 11.637853515624998 0.6149999999999999 L 11.720853515624999 0.6539999999999999 L 11.720853515624999 0.6699999999999999 L 11.494853515624998 0.6699999999999999 M 12.46687109375 0.6699999999999999 L 12.46687109375 0.6539999999999999 L 12.547871093749999 0.6139999999999999 L 12.547871093749999 0.06599999999999995 L 12.46687109375 0.025999999999999912 L 12.46687109375 0.009999999999999898 L 12.968871093749998 0.009999999999999898 L 12.968871093749998 0.18199999999999994 L 12.952871093749998 0.18199999999999994 L 12.887871093749999 0.06499999999999995 L 12.652871093749999 0.06499999999999995 L 12.652871093749999 0.30199999999999994 L 12.81887109375 0.30199999999999994 L 12.869871093749998 0.21799999999999992 L 12.885871093749998 0.21799999999999992 L 12.885871093749998 0.43899999999999995 L 12.869871093749998 0.43899999999999995 L 12.81887109375 0.35699999999999993 L 12.652871093749999 0.35699999999999993 L 12.652871093749999 0.6149999999999999 L 12.914871093749998 0.6149999999999999 L 12.980871093749998 0.48299999999999993 L 12.996871093749998 0.48299999999999993 L 12.996871093749998 0.6699999999999999 L 12.46687109375 0.6699999999999999" fill="#ffffff" fill-rule="nonzero"></path></g><g></g></g><defs><clipPath id="SvgjsClipPath1001"><path d=" M 8.66988525390625 -0.22949999999999993 h 1.1389999999999998 v 1.1389999999999998 h -1.1389999999999998 Z"></path></clipPath><clipPath id="SvgjsClipPath100042384dba-24d3-4199-84cb-07900ad0a385"><path d=" M 8.66988525390625 -0.22949999999999993 L 9.80888525390625 -0.22949999999999993 L 9.80888525390625 0.9094999999999999 L 8.66988525390625 0.9094999999999999 Z"></path></clipPath></defs></svg>